# Exported from Wings 3D 0.99.03
mtllib block.mtl
o cube1
#24 vertices, 14 faces
v -1.00000000 0.32949333 1.00000000
v -1.00000000 2.4000000e-2 0.69450667
v -0.69450667 2.4000000e-2 1.00000000
v -1.00000000 1.71850667 1.00000000
v -1.00000000 2.02400000 0.69450667
v -0.69450667 2.02400000 1.00000000
v 0.69450667 2.02400000 1.00000000
v 1.00000000 2.02400000 0.69450667
v 1.00000000 1.71850667 1.00000000
v 0.69450667 2.4000000e-2 1.00000000
v 1.00000000 0.32949333 1.00000000
v 1.00000000 2.4000000e-2 0.69450667
v -1.00000000 2.4000000e-2 -0.69450667
v -0.69450667 2.4000000e-2 -1.00000000
v -1.00000000 0.32949333 -1.00000000
v -1.00000000 2.02400000 -0.69450667
v -1.00000000 1.71850667 -1.00000000
v -0.69450667 2.02400000 -1.00000000
v 1.00000000 2.02400000 -0.69450667
v 0.69450667 2.02400000 -1.00000000
v 1.00000000 1.71850667 -1.00000000
v 1.00000000 2.4000000e-2 -0.69450667
v 1.00000000 0.32949333 -1.00000000
v 0.69450667 2.4000000e-2 -1.00000000
vt 0.0000000e+0 0.22654267
vt 0.0000000e+0 0.49283490
vt 1.6653345e-16 0.31921534
vt 5.5511151e-16 5.4487562e-2
vt 3.7841025e-2 1.6646538e-2
vt 3.7841025e-2 0.26438369
vt 3.8185104e-2 0.28103023
vt 3.8185104e-2 0.53102000
vt 0.20989613 1.6646538e-2
vt 0.20989613 0.26438369
vt 0.21180466 0.28103023
vt 0.21180466 0.53102000
vt 0.24404825 5.5974589e-2
vt 0.24404825 0.22505564
vt 0.24998977 0.31921534
vt 0.24998977 0.49283490
vt 0.27820036 1.5795971e-2
vt 0.27820036 0.26523426
vt 0.28817487 0.28103023
vt 0.28817487 0.53102000
vt 0.45306702 1.3448827e-2
vt 0.45306702 0.26758140
vt 0.46179443 0.28103023
vt 0.46179443 0.53102000
vt 0.48833530 5.3211631e-2
vt 0.48833530 0.22781860
vt 0.49997953 0.31921534
vt 0.49997953 0.49283490
vt 0.52360357 1.0869327e-2
vt 0.52360357 0.27016090
vt 0.70202010 1.3264119e-2
vt 0.70202010 0.26776611
vt 0.73686552 5.4258380e-2
vt 0.73686552 0.22677185
vt 0.77171094 1.4131953e-2
vt 0.77171094 0.26689828
vt 0.94725883 1.4131953e-2
vt 0.94725883 0.26689828
vt 0.98586805 5.2741167e-2
vt 0.98586805 0.22828906
vt 1.00000000 0.0000000e+0
vt 1.00000000 0.28103023
vn -0.68455032 -0.25056281 0.68455032
vn -0.68455032 -0.68455032 0.25056281
vn -0.25056281 -0.68455032 0.68455032
vn -0.68455032 0.25056281 0.68455032
vn -0.68455032 0.68455032 0.25056281
vn -0.25056281 0.68455032 0.68455032
vn 0.25056281 0.68455032 0.68455032
vn 0.68455032 0.68455032 0.25056281
vn 0.68455032 0.25056281 0.68455032
vn 0.25056281 -0.68455032 0.68455032
vn 0.68455032 -0.25056281 0.68455032
vn 0.68455032 -0.68455032 0.25056281
vn -0.68455032 -0.68455032 -0.25056281
vn -0.25056281 -0.68455032 -0.68455032
vn -0.68455032 -0.25056281 -0.68455032
vn -0.68455032 0.68455032 -0.25056281
vn -0.68455032 0.25056281 -0.68455032
vn -0.25056281 0.68455032 -0.68455032
vn 0.68455032 0.68455032 -0.25056281
vn 0.25056281 0.68455032 -0.68455032
vn 0.68455032 0.25056281 -0.68455032
vn 0.68455032 -0.68455032 -0.25056281
vn 0.68455032 -0.25056281 -0.68455032
vn 0.25056281 -0.68455032 -0.68455032
g cube1_cube1_auv
usemtl cube1_auv
f 1/33/1 4/34/4 5/32/5 16/30/16 17/26/17 15/25/15 13/29/13 2/31/2
f 2/31/2 3/35/3 1/33/1
f 2/27/2 13/28/13 14/24/14 24/20/24 22/16/22 12/15/12 10/19/10 3/23/3
f 3/35/3 10/37/10 11/39/11 9/40/9 7/38/7 6/36/6 4/34/4 1/33/1
f 4/34/4 6/36/6 5/32/5
f 6/7/6 7/11/7 8/15/8 19/16/19 20/12/20 18/8/18 16/2/16 5/3/5
f 7/38/7 9/40/9 8/42/8
f 9/1/9 11/4/11 12/5/12 22/9/22 23/13/23 21/14/21 19/10/19 8/6/8
f 10/37/10 12/41/12 11/39/11
f 13/29/13 15/25/15 14/21/14
f 15/25/15 17/26/17 18/22/18 20/18/20 21/14/21 23/13/23 24/17/24 14/21/14
f 16/30/16 18/22/18 17/26/17
f 19/10/19 21/14/21 20/18/20
f 22/9/22 24/17/24 23/13/23
