# Exported from Wings 3D 0.99.03
mtllib box.mtl
o cube1
#8 vertices, 6 faces
v -1.68981600 -2.2001717e-3 1.68981600
v -1.68981600 3.37743182 1.68981600
v 1.68981600 3.37743182 1.68981600
v 1.68981600 -2.2001717e-3 1.68981600
v -1.68981600 -2.2001717e-3 -1.68981600
v -1.68981600 3.37743182 -1.68981600
v 1.68981600 3.37743182 -1.68981600
v 1.68981600 -2.2001717e-3 -1.68981600
vt 0.0000000e+0 0.33333333
vt 0.0000000e+0 0.66666667
vt 2.7755576e-17 0.33333333
vt 5.5511151e-17 0.0000000e+0
vt 0.33333333 2.7755576e-17
vt 0.33333333 5.5511151e-17
vt 0.33333333 0.33333333
vt 0.33333333 0.66666667
vt 0.66666667 0.0000000e+0
vt 0.66666667 0.33333333
vt 0.66666667 0.66666667
vt 1.00000000 0.0000000e+0
vt 1.00000000 0.33333333
vt 1.00000000 0.66666667
vn -0.57735027 -0.57735027 0.57735027
vn -0.57735027 0.57735027 0.57735027
vn 0.57735027 0.57735027 0.57735027
vn 0.57735027 -0.57735027 0.57735027
vn -0.57735027 -0.57735027 -0.57735027
vn -0.57735027 0.57735027 -0.57735027
vn 0.57735027 0.57735027 -0.57735027
vn 0.57735027 -0.57735027 -0.57735027
g cube1_cube1_auv
usemtl cube1_auv
f 1/5/1 4/9/4 3/10/3 2/7/2
f 1/10/1 5/11/5 8/8/8 4/7/4
f 2/14/2 6/11/6 5/10/5 1/13/1
f 3/7/3 7/8/7 6/2/6 2/3/2
f 4/4/4 8/6/8 7/7/7 3/1/3
f 6/13/6 7/10/7 8/9/8 5/12/5
