# Exported from Wings 3D 1.1.9.1
mtllib techie.mtl
o c:/Documents and Settings/v21/My Documents/My Dropbox/joebabies/other/techie.ai
#152 vertices, 164 faces
v -0.72000000 9.76000560 0.25585032
v -0.72000000 9.60000560 0.25585032
v -0.88000000 9.60000560 0.25585032
v -0.88000000 9.44000560 0.25585032
v -1.04000000 9.44000560 0.25585032
v -1.04000000 8.16000560 0.25585032
v -0.88000000 8.16000560 0.25585032
v -0.88000000 7.84000560 0.25585032
v -0.72000000 7.84000560 0.25585032
v -0.72000000 7.68000560 0.25585032
v -0.56000000 7.68000560 0.25585032
v -0.56000000 7.52000560 0.25585032
v -0.72000000 7.52000560 0.25585032
v -0.72000000 7.36000560 0.25585032
v -1.04000000 7.36000560 0.25585032
v -1.04000000 7.20000560 0.25585032
v -1.36000000 7.20000560 0.25585032
v -1.36000000 7.04000560 0.25585032
v -1.52000000 7.04000560 0.25585032
v -1.52000000 6.88000560 0.25585032
v -1.68000000 6.88000560 0.25585032
v -1.68000000 3.68000560 0.25585032
v -1.52000000 3.68000560 0.25585032
v -1.52000000 3.52000560 0.25585032
v -1.20000000 3.52000560 0.25585032
v -1.20000000 3.68000560 0.25585032
v -1.36000000 3.68000560 0.25585032
v -1.36000000 4.00000560 0.25585032
v -1.20000000 4.00000560 0.25585032
v -1.20000000 6.40000560 0.25585032
v -1.04000000 6.40000560 0.25585032
v -1.04000000 0.32000560 0.25585032
v -1.36000000 0.32000560 0.25585032
v -1.36000000 5.5951360e-6 0.25585032
v -0.40000000 5.5951360e-6 0.25585032
v -0.40000000 1.76000560 0.25585032
v -0.24000000 1.76000560 0.25585032
v -0.24000000 2.88000560 0.25585032
v 0.24000000 2.88000560 0.25585032
v 0.24000000 2.40000560 0.25585032
v 0.40000000 2.40000560 0.25585032
v 0.40000000 5.5951360e-6 0.25585032
v 1.36000000 5.5951360e-6 0.25585032
v 1.36000000 0.32000560 0.25585032
v 1.04000000 0.32000560 0.25585032
v 1.04000000 6.40000560 0.25585032
v 1.20000000 6.40000560 0.25585032
v 1.20000000 4.00000560 0.25585032
v 1.36000000 4.00000560 0.25585032
v 1.36000000 3.68000560 0.25585032
v 1.20000000 3.68000560 0.25585032
v 1.20000000 3.52000560 0.25585032
v 1.52000000 3.52000560 0.25585032
v 1.52000000 3.68000560 0.25585032
v 1.68000000 3.68000560 0.25585032
v 1.68000000 6.88000560 0.25585032
v 1.52000000 6.88000560 0.25585032
v 1.52000000 7.04000560 0.25585032
v 1.36000000 7.04000560 0.25585032
v 1.36000000 7.20000560 0.25585032
v 1.04000000 7.20000560 0.25585032
v 1.04000000 7.36000560 0.25585032
v 0.56000000 7.36000560 0.25585032
v 0.56000000 7.52000560 0.25585032
v 0.40000000 7.52000560 0.25585032
v 0.40000000 7.84000560 0.25585032
v 0.56000000 7.84000560 0.25585032
v 0.56000000 8.16000560 0.25585032
v 0.72000000 8.16000560 0.25585032
v 0.72000000 9.60000560 0.25585032
v 0.56000000 9.60000560 0.25585032
v 0.56000000 9.76000560 0.25585032
v -0.24000000 9.76000560 0.25585032
v -0.24000000 9.60000560 0.25585032
v -0.40000000 9.60000560 0.25585032
v -0.40000000 9.76000560 0.25585032
v -0.72000000 9.76000560 -0.25585032
v -0.72000000 9.60000560 -0.25585032
v -0.88000000 9.60000560 -0.25585032
v -0.88000000 9.44000560 -0.25585032
v -1.04000000 9.44000560 -0.25585032
v -1.04000000 8.16000560 -0.25585032
v -0.88000000 8.16000560 -0.25585032
v -0.88000000 7.84000560 -0.25585032
v -0.72000000 7.84000560 -0.25585032
v -0.72000000 7.68000560 -0.25585032
v -0.56000000 7.68000560 -0.25585032
v -0.56000000 7.52000560 -0.25585032
v -0.72000000 7.52000560 -0.25585032
v -0.72000000 7.36000560 -0.25585032
v -1.04000000 7.36000560 -0.25585032
v -1.04000000 7.20000560 -0.25585032
v -1.36000000 7.20000560 -0.25585032
v -1.36000000 7.04000560 -0.25585032
v -1.52000000 7.04000560 -0.25585032
v -1.52000000 6.88000560 -0.25585032
v -1.68000000 6.88000560 -0.25585032
v -1.68000000 3.68000560 -0.25585032
v -1.52000000 3.68000560 -0.25585032
v -1.52000000 3.52000560 -0.25585032
v -1.20000000 3.52000560 -0.25585032
v -1.20000000 3.68000560 -0.25585032
v -1.36000000 3.68000560 -0.25585032
v -1.36000000 4.00000560 -0.25585032
v -1.20000000 4.00000560 -0.25585032
v -1.20000000 6.40000560 -0.25585032
v -1.04000000 6.40000560 -0.25585032
v -1.04000000 0.32000560 -0.25585032
v -1.36000000 0.32000560 -0.25585032
v -1.36000000 5.5951360e-6 -0.25585032
v -0.40000000 5.5951360e-6 -0.25585032
v -0.40000000 1.76000560 -0.25585032
v -0.24000000 1.76000560 -0.25585032
v -0.24000000 2.88000560 -0.25585032
v 0.24000000 2.88000560 -0.25585032
v 0.24000000 2.40000560 -0.25585032
v 0.40000000 2.40000560 -0.25585032
v 0.40000000 5.5951360e-6 -0.25585032
v 1.36000000 5.5951360e-6 -0.25585032
v 1.36000000 0.32000560 -0.25585032
v 1.04000000 0.32000560 -0.25585032
v 1.04000000 6.40000560 -0.25585032
v 1.20000000 6.40000560 -0.25585032
v 1.20000000 4.00000560 -0.25585032
v 1.36000000 4.00000560 -0.25585032
v 1.36000000 3.68000560 -0.25585032
v 1.20000000 3.68000560 -0.25585032
v 1.20000000 3.52000560 -0.25585032
v 1.52000000 3.52000560 -0.25585032
v 1.52000000 3.68000560 -0.25585032
v 1.68000000 3.68000560 -0.25585032
v 1.68000000 6.88000560 -0.25585032
v 1.52000000 6.88000560 -0.25585032
v 1.52000000 7.04000560 -0.25585032
v 1.36000000 7.04000560 -0.25585032
v 1.36000000 7.20000560 -0.25585032
v 1.04000000 7.20000560 -0.25585032
v 1.04000000 7.36000560 -0.25585032
v 0.56000000 7.36000560 -0.25585032
v 0.56000000 7.52000560 -0.25585032
v 0.40000000 7.52000560 -0.25585032
v 0.40000000 7.84000560 -0.25585032
v 0.56000000 7.84000560 -0.25585032
v 0.56000000 8.16000560 -0.25585032
v 0.72000000 8.16000560 -0.25585032
v 0.72000000 9.60000560 -0.25585032
v 0.56000000 9.60000560 -0.25585032
v 0.56000000 9.76000560 -0.25585032
v -0.24000000 9.76000560 -0.25585032
v -0.24000000 9.60000560 -0.25585032
v -0.40000000 9.60000560 -0.25585032
v -0.40000000 9.76000560 -0.25585032
vt 0.0000000e+0 0.37704918
vt 5.5511151e-17 0.70491803
vt 1.6393443e-2 0.36065574
vt 1.6393443e-2 0.37704918
vt 1.6393443e-2 0.70491803
vt 1.6393443e-2 0.72131148
vt 3.2786885e-2 0.0000000e+0
vt 3.2786885e-2 3.2786885e-2
vt 3.2786885e-2 0.37704918
vt 3.2786885e-2 0.40983607
vt 3.2786885e-2 0.72131148
vt 3.2786885e-2 0.73770492
vt 4.9180328e-2 0.36065574
vt 4.9180328e-2 0.37704918
vt 4.9180328e-2 0.40983607
vt 4.9180328e-2 0.65573770
vt 6.5573770e-2 3.2786885e-2
vt 6.5573770e-2 0.65573770
vt 6.5573770e-2 0.73770492
vt 6.5573770e-2 0.75409836
vt 9.8360656e-2 0.83606557
vt 9.8360656e-2 0.98360656
vt 0.11475410 0.75409836
vt 0.11475410 0.77049180
vt 0.11475410 0.80327869
vt 0.11475410 0.83606557
vt 0.11475410 0.98360656
vt 0.11475410 1.00000000
vt 0.13114754 0.0000000e+0
vt 0.13114754 0.24590164
vt 0.13114754 0.77049180
vt 0.13114754 0.80327869
vt 0.14754098 0.24590164
vt 0.14754098 0.29508197
vt 0.19672131 0.18032787
vt 0.19672131 0.29508197
vt 0.19672131 0.98360656
vt 0.19672131 1.00000000
vt 0.21311475 0.0000000e+0
vt 0.21311475 0.18032787
vt 0.21311475 0.98360656
vt 0.21311475 1.00000000
vt 0.22950820 0.77049180
vt 0.22950820 0.78688525
vt 0.24590164 0.75409836
vt 0.24590164 0.77049180
vt 0.24590164 0.78688525
vt 0.24590164 0.80327869
vt 0.24590164 0.98360656
vt 0.24590164 1.00000000
vt 0.26229508 0.80327869
vt 0.26229508 0.83606557
vt 0.26229508 0.96721311
vt 0.26229508 0.98360656
vt 0.27868852 3.2786885e-2
vt 0.27868852 0.65573770
vt 0.27868852 0.73770492
vt 0.27868852 0.75409836
vt 0.27868852 0.83606557
vt 0.27868852 0.96721311
vt 0.29508197 0.36065574
vt 0.29508197 0.37704918
vt 0.29508197 0.40983607
vt 0.29508197 0.65573770
vt 0.31147541 0.0000000e+0
vt 0.31147541 3.2786885e-2
vt 0.31147541 0.37704918
vt 0.31147541 0.40983607
vt 0.31147541 0.72131148
vt 0.31147541 0.73770492
vt 0.32786885 0.36065574
vt 0.32786885 0.37704918
vt 0.32786885 0.70491803
vt 0.32786885 0.72131148
vt 0.34426230 0.37704918
vt 0.34426230 0.70491803
vt 0.40651785 0.70376248
vt 0.40651785 0.37589362
vt 0.42291129 0.70376248
vt 0.42291129 0.72015592
vt 0.42291129 0.35950018
vt 0.42291129 0.37589362
vt 0.43930474 0.72015592
vt 0.43930474 0.73654936
vt 0.43930474 -1.1555556e-3
vt 0.43930474 3.1631330e-2
vt 0.43930474 0.37589362
vt 0.43930474 0.40868051
vt 0.45569818 0.35950018
vt 0.45569818 0.37589362
vt 0.45569818 0.40868051
vt 0.45569818 0.65458215
vt 0.47209162 0.65458215
vt 0.47209162 0.73654936
vt 0.47209162 0.75294281
vt 0.47209162 0.83491002
vt 0.47209162 0.96605756
vt 0.47209162 3.1631330e-2
vt 0.48848506 0.80212313
vt 0.48848506 0.83491002
vt 0.48848506 0.96605756
vt 0.48848506 0.98245100
vt 0.50487851 0.75294281
vt 0.50487851 0.76933625
vt 0.50487851 0.78572969
vt 0.50487851 0.80212313
vt 0.50487851 0.98245100
vt 0.50487851 0.99884444
vt 0.52127195 0.76933625
vt 0.52127195 0.78572969
vt 0.53766539 -1.1555556e-3
vt 0.53766539 0.17917231
vt 0.53766539 0.98245100
vt 0.53766539 0.99884444
vt 0.55405883 0.17917231
vt 0.55405883 0.29392641
vt 0.55405883 0.98245100
vt 0.55405883 0.99884444
vt 0.60323916 0.24474608
vt 0.60323916 0.29392641
vt 0.61963260 -1.1555556e-3
vt 0.61963260 0.24474608
vt 0.61963260 0.76933625
vt 0.61963260 0.80212313
vt 0.63602605 0.75294281
vt 0.63602605 0.76933625
vt 0.63602605 0.80212313
vt 0.63602605 0.83491002
vt 0.63602605 0.98245100
vt 0.63602605 0.99884444
vt 0.65241949 0.83491002
vt 0.65241949 0.98245100
vt 0.68520638 0.73654936
vt 0.68520638 0.75294281
vt 0.68520638 3.1631330e-2
vt 0.68520638 0.65458215
vt 0.70159982 0.35950018
vt 0.70159982 0.37589362
vt 0.70159982 0.40868051
vt 0.70159982 0.65458215
vt 0.71799326 0.72015592
vt 0.71799326 0.73654936
vt 0.71799326 -1.1555556e-3
vt 0.71799326 3.1631330e-2
vt 0.71799326 0.37589362
vt 0.71799326 0.40868051
vt 0.73438670 0.70376248
vt 0.73438670 0.72015592
vt 0.73438670 0.35950018
vt 0.73438670 0.37589362
vt 0.75078015 0.70376248
vt 0.75078015 0.37589362
vn -0.57735027 0.57735027 0.57735027
vn -0.40824829 0.40824829 0.81649658
vn -0.57735027 0.57735027 0.57735027
vn -0.30151134 0.30151134 0.90453403
vn -0.57735027 0.57735027 0.57735027
vn -0.40824829 -0.40824829 0.81649658
vn -0.23570226 -0.23570226 0.94280904
vn -0.57735027 -0.57735027 0.57735027
vn -0.30151134 -0.30151134 0.90453403
vn -0.57735027 -0.57735027 0.57735027
vn -0.40824829 -0.40824829 0.81649658
vn -0.30151134 0.30151134 0.90453403
vn -0.57735027 0.57735027 0.57735027
vn -0.23570226 0.23570226 0.94280904
vn -0.57735027 0.57735027 0.57735027
vn -0.30151134 0.30151134 0.90453403
vn -0.57735027 0.57735027 0.57735027
vn -0.30151134 0.30151134 0.90453403
vn -0.57735027 0.57735027 0.57735027
vn -0.40824829 0.40824829 0.81649658
vn -0.30151134 0.30151134 0.90453403
vn -0.57735027 -0.57735027 0.57735027
vn -0.30151134 -0.30151134 0.90453403
vn -0.57735027 -0.57735027 0.57735027
vn 0.40824829 -0.40824829 0.81649658
vn 0.57735027 0.57735027 0.57735027
vn 0.30151134 0.30151134 0.90453403
vn 0.30151134 -0.30151134 0.90453403
vn 0.57735027 -0.57735027 0.57735027
vn 0.23570226 -0.23570226 0.94280904
vn -0.19245009 -0.19245009 0.96225045
vn -0.30151134 0.30151134 0.90453403
vn -0.57735027 0.57735027 0.57735027
vn -0.57735027 -0.57735027 0.57735027
vn 0.40824829 -0.40824829 0.81649658
vn 0.30151134 -0.30151134 0.90453403
vn 0.57735027 -0.57735027 0.57735027
vn 0.30151134 -0.30151134 0.90453403
vn -0.40824829 -0.40824829 0.81649658
vn -0.57735027 -0.57735027 0.57735027
vn -0.40824829 -0.40824829 0.81649658
vn -0.40824829 -0.40824829 0.81649658
vn 0.57735027 -0.57735027 0.57735027
vn 0.57735027 0.57735027 0.57735027
vn 0.40824829 0.40824829 0.81649658
vn 0.16222142 -0.16222142 0.97332853
vn -0.23570226 -0.23570226 0.94280904
vn -0.57735027 -0.57735027 0.57735027
vn -0.30151134 -0.30151134 0.90453403
vn -0.40824829 0.40824829 0.81649658
vn -0.57735027 0.57735027 0.57735027
vn -0.57735027 -0.57735027 0.57735027
vn 0.40824829 -0.40824829 0.81649658
vn 0.40824829 -0.40824829 0.81649658
vn 0.57735027 -0.57735027 0.57735027
vn 0.30151134 0.30151134 0.90453403
vn 0.40824829 0.40824829 0.81649658
vn 0.57735027 0.57735027 0.57735027
vn 0.30151134 0.30151134 0.90453403
vn 0.57735027 0.57735027 0.57735027
vn 0.30151134 0.30151134 0.90453403
vn 0.57735027 0.57735027 0.57735027
vn 0.23570226 0.23570226 0.94280904
vn 0.57735027 0.57735027 0.57735027
vn 0.30151134 0.30151134 0.90453403
vn 0.23570226 -0.23570226 0.94280904
vn 0.57735027 -0.57735027 0.57735027
vn 0.23570226 -0.23570226 0.94280904
vn 0.40824829 -0.40824829 0.81649658
vn 0.57735027 0.57735027 0.57735027
vn 0.30151134 0.30151134 0.90453403
vn 0.57735027 0.57735027 0.57735027
vn -0.57735027 0.57735027 0.57735027
vn -0.30151134 0.30151134 0.90453403
vn 0.23570226 0.23570226 0.94280904
vn 0.57735027 0.57735027 0.57735027
vn -0.57735027 0.57735027 -0.57735027
vn -0.40824829 0.40824829 -0.81649658
vn -0.57735027 0.57735027 -0.57735027
vn -0.30151134 0.30151134 -0.90453403
vn -0.57735027 0.57735027 -0.57735027
vn -0.40824829 -0.40824829 -0.81649658
vn -0.23570226 -0.23570226 -0.94280904
vn -0.57735027 -0.57735027 -0.57735027
vn -0.30151134 -0.30151134 -0.90453403
vn -0.57735027 -0.57735027 -0.57735027
vn -0.40824829 -0.40824829 -0.81649658
vn -0.30151134 0.30151134 -0.90453403
vn -0.57735027 0.57735027 -0.57735027
vn -0.23570226 0.23570226 -0.94280904
vn -0.57735027 0.57735027 -0.57735027
vn -0.30151134 0.30151134 -0.90453403
vn -0.57735027 0.57735027 -0.57735027
vn -0.30151134 0.30151134 -0.90453403
vn -0.57735027 0.57735027 -0.57735027
vn -0.40824829 0.40824829 -0.81649658
vn -0.30151134 0.30151134 -0.90453403
vn -0.57735027 -0.57735027 -0.57735027
vn -0.30151134 -0.30151134 -0.90453403
vn -0.57735027 -0.57735027 -0.57735027
vn 0.40824829 -0.40824829 -0.81649658
vn 0.57735027 0.57735027 -0.57735027
vn 0.30151134 0.30151134 -0.90453403
vn 0.30151134 -0.30151134 -0.90453403
vn 0.57735027 -0.57735027 -0.57735027
vn 0.23570226 -0.23570226 -0.94280904
vn -0.19245009 -0.19245009 -0.96225045
vn -0.30151134 0.30151134 -0.90453403
vn -0.57735027 0.57735027 -0.57735027
vn -0.57735027 -0.57735027 -0.57735027
vn 0.40824829 -0.40824829 -0.81649658
vn 0.30151134 -0.30151134 -0.90453403
vn 0.57735027 -0.57735027 -0.57735027
vn 0.30151134 -0.30151134 -0.90453403
vn -0.40824829 -0.40824829 -0.81649658
vn -0.57735027 -0.57735027 -0.57735027
vn -0.40824829 -0.40824829 -0.81649658
vn -0.40824829 -0.40824829 -0.81649658
vn 0.57735027 -0.57735027 -0.57735027
vn 0.57735027 0.57735027 -0.57735027
vn 0.40824829 0.40824829 -0.81649658
vn 0.16222142 -0.16222142 -0.97332853
vn -0.23570226 -0.23570226 -0.94280904
vn -0.57735027 -0.57735027 -0.57735027
vn -0.30151134 -0.30151134 -0.90453403
vn -0.40824829 0.40824829 -0.81649658
vn -0.57735027 0.57735027 -0.57735027
vn -0.57735027 -0.57735027 -0.57735027
vn 0.40824829 -0.40824829 -0.81649658
vn 0.40824829 -0.40824829 -0.81649658
vn 0.57735027 -0.57735027 -0.57735027
vn 0.30151134 0.30151134 -0.90453403
vn 0.40824829 0.40824829 -0.81649658
vn 0.57735027 0.57735027 -0.57735027
vn 0.30151134 0.30151134 -0.90453403
vn 0.57735027 0.57735027 -0.57735027
vn 0.30151134 0.30151134 -0.90453403
vn 0.57735027 0.57735027 -0.57735027
vn 0.23570226 0.23570226 -0.94280904
vn 0.57735027 0.57735027 -0.57735027
vn 0.30151134 0.30151134 -0.90453403
vn 0.23570226 -0.23570226 -0.94280904
vn 0.57735027 -0.57735027 -0.57735027
vn 0.23570226 -0.23570226 -0.94280904
vn 0.40824829 -0.40824829 -0.81649658
vn 0.57735027 0.57735027 -0.57735027
vn 0.30151134 0.30151134 -0.90453403
vn 0.57735027 0.57735027 -0.57735027
vn -0.57735027 0.57735027 -0.57735027
vn -0.30151134 0.30151134 -0.90453403
vn 0.23570226 0.23570226 -0.94280904
vn 0.57735027 0.57735027 -0.57735027
g c:/Documents and Settings/v21/My Documents/My Dropbox/joebabies/other/techie.ai_c:/Documents and Settings/v21/My Documents/My Dropbox/joebabies/other/techie.ai_auv
usemtl c:/Documents and Settings/v21/My Documents/My Dropbox/joebabies/other/techie.ai_auv
s 1
f 1/108/1 77/108/77 78/107/78 2/107/2
f 2/107/2 75/113/75 76/114/76 1/108/1
f 2/107/2 78/107/78 79/102/79 3/102/3
f 3/102/3 4/101/4 75/113/75 2/107/2
f 3/102/3 79/102/79 80/101/80 4/101/4
f 4/101/4 80/101/80 81/97/81 5/97/5
f 5/97/5 6/96/6 4/101/4
f 5/97/5 81/97/81 82/96/82 6/96/6
f 6/96/6 7/100/7 75/113/75 4/101/4
f 6/96/6 82/96/82 83/100/83 7/100/7
f 7/100/7 83/100/83 84/99/84 8/99/8
f 8/99/8 9/106/9 7/100/7
f 8/99/8 84/99/84 85/106/85 9/106/9
f 9/106/9 66/124/66 68/128/68 7/100/7
f 9/106/9 85/106/85 86/105/86 10/105/10
f 10/105/10 11/110/11 66/124/66 9/106/9
f 10/105/10 86/105/86 87/110/87 11/110/11
f 11/110/11 87/110/87 88/109/88 12/109/12
f 12/109/12 65/123/65 66/124/66 11/110/11
f 12/109/12 88/109/88 89/104/89 13/104/13
f 13/104/13 14/103/14 12/109/12
f 13/104/13 89/104/89 90/103/90 14/103/14
f 14/103/14 63/125/63 65/123/65 12/109/12
f 14/103/14 90/103/90 91/95/91 15/95/15
f 15/95/15 16/94/16 31/93/31 14/103/14
f 15/95/15 91/95/91 92/94/92 16/94/16
f 16/94/16 92/94/92 93/84/93 17/84/17
f 17/84/17 18/83/18 16/94/16
f 17/84/17 93/84/93 94/83/94 18/83/18
f 18/83/18 30/92/30 31/93/31 16/94/16
f 18/83/18 94/83/94 95/80/95 19/80/19
f 19/80/19 20/79/20 30/92/30 18/83/18
f 19/80/19 95/80/95 96/79/96 20/79/20
f 20/79/20 96/79/96 97/77/97 21/77/21
f 21/77/21 30/92/30 20/79/20
f 21/77/21 97/77/97 98/78/98 22/78/22
f 22/78/22 23/82/23 28/88/28 21/77/21
f 22/78/22 98/78/98 99/82/99 23/82/23
f 23/82/23 99/82/99 100/81/100 24/81/24
f 24/81/24 25/89/25 27/87/27 23/82/23
f 24/81/24 100/81/100 101/89/101 25/89/25
f 25/89/25 101/89/101 102/90/102 26/90/26
f 26/90/26 27/87/27 25/89/25
f 26/90/26 102/90/102 103/87/103 27/87/27
f 27/87/27 28/88/28 23/82/23
f 27/87/27 103/87/103 104/88/104 28/88/28
f 28/88/28 29/91/29 30/92/30 21/77/21
f 28/88/28 104/88/104 105/91/105 29/91/29
f 29/91/29 105/91/105 106/92/106 30/92/30
f 30/92/30 106/92/106 107/93/107 31/93/31
f 31/93/31 46/136/46 63/125/63 14/103/14
f 31/93/31 107/93/107 108/98/108 32/98/32
f 32/98/32 36/112/36 38/116/38 31/93/31
f 32/98/32 108/98/108 109/86/109 33/86/33
f 33/86/33 34/85/34 35/111/35 32/98/32
f 33/86/33 109/86/109 110/85/110 34/85/34
f 34/85/34 110/85/110 111/111/111 35/111/35
f 35/111/35 36/112/36 32/98/32
f 35/111/35 111/111/111 112/112/112 36/112/36
f 36/112/36 112/112/112 113/115/113 37/115/37
f 37/115/37 38/116/38 36/112/36
f 37/115/37 113/115/113 114/116/114 38/116/38
f 38/116/38 39/120/39 46/136/46 31/93/31
f 38/116/38 114/116/114 115/120/115 39/120/39
f 39/120/39 115/120/115 116/119/116 40/119/40
f 40/119/40 41/122/41 46/136/46 39/120/39
f 40/119/40 116/119/116 117/122/117 41/122/41
f 41/122/41 117/122/117 118/121/118 42/121/42
f 42/121/42 45/135/45 46/136/46 41/122/41
f 42/121/42 118/121/118 119/143/119 43/143/43
f 43/143/43 44/144/44 45/135/45 42/121/42
f 43/143/43 119/143/119 120/144/120 44/144/44
f 44/144/44 120/144/120 121/135/121 45/135/45
f 45/135/45 121/135/121 122/136/122 46/136/46
f 46/136/46 122/136/122 123/140/123 47/140/47
f 47/140/47 59/141/59 61/133/61 46/136/46
f 47/140/47 123/140/123 124/139/124 48/139/48
f 48/139/48 49/146/49 56/151/56 47/140/47
f 48/139/48 124/139/124 125/146/125 49/146/49
f 49/146/49 125/146/125 126/145/126 50/145/50
f 50/145/50 53/149/53 54/150/54 49/146/49
f 50/145/50 126/145/126 127/138/127 51/138/51
f 51/138/51 52/137/52 53/149/53 50/145/50
f 51/138/51 127/138/127 128/137/128 52/137/52
f 52/137/52 128/137/128 129/149/129 53/149/53
f 53/149/53 129/149/129 130/150/130 54/150/54
f 54/150/54 55/152/55 56/151/56 49/146/49
f 54/150/54 130/150/130 131/152/131 55/152/55
f 55/152/55 131/152/131 132/151/132 56/151/56
f 56/151/56 57/147/57 47/140/47
f 56/151/56 132/151/132 133/147/133 57/147/57
f 57/147/57 58/148/58 59/141/59 47/140/47
f 57/147/57 133/147/133 134/148/134 58/148/58
f 58/148/58 134/148/134 135/141/135 59/141/59
f 59/141/59 135/141/135 136/142/136 60/142/60
f 60/142/60 61/133/61 59/141/59
f 60/142/60 136/142/136 137/133/137 61/133/61
f 61/133/61 62/134/62 63/125/63 46/136/46
f 61/133/61 137/133/137 138/134/138 62/134/62
f 62/134/62 138/134/138 139/125/139 63/125/63
f 63/125/63 139/125/139 140/126/140 64/126/64
f 64/126/64 65/123/65 63/125/63
f 64/126/64 140/126/140 141/123/141 65/123/65
f 65/123/65 141/123/141 142/124/142 66/124/66
f 66/124/66 142/124/142 143/127/143 67/127/67
f 67/127/67 68/128/68 66/124/66
f 67/127/67 143/127/143 144/128/144 68/128/68
f 68/128/68 74/117/74 75/113/75 7/100/7
f 68/128/68 144/128/144 145/131/145 69/131/69
f 69/131/69 71/129/71 74/117/74 68/128/68
f 69/131/69 145/131/145 146/132/146 70/132/70
f 70/132/70 71/129/71 69/131/69
f 70/132/70 146/132/146 147/129/147 71/129/71
f 71/129/71 147/129/147 148/130/148 72/130/72
f 72/130/72 73/118/73 74/117/74 71/129/71
f 72/130/72 148/130/148 149/118/149 73/118/73
f 73/118/73 149/118/149 150/117/150 74/117/74
f 74/117/74 150/117/150 151/113/151 75/113/75
f 75/113/75 151/113/151 152/114/152 76/114/76
f 76/114/76 152/114/152 77/108/77 1/108/1
f 77/50/77 152/42/152 151/41/151 78/49/78
f 78/49/78 151/41/151 80/53/80 79/54/79
f 80/53/80 82/59/82 81/60/81
f 80/53/80 151/41/151 83/52/83 82/59/82
f 83/52/83 85/48/85 84/51/84
f 83/52/83 144/26/144 142/32/142 85/48/85
f 83/52/83 151/41/151 150/37/150 144/26/144
f 85/48/85 142/32/142 87/44/87 86/47/86
f 87/44/87 142/32/142 141/31/141 88/43/88
f 88/43/88 90/45/90 89/46/89
f 88/43/88 141/31/141 139/23/139 90/45/90
f 90/45/90 107/56/107 92/57/92 91/58/91
f 90/45/90 139/23/139 122/18/122 107/56/107
f 92/57/92 94/69/94 93/70/93
f 92/57/92 107/56/107 106/64/106 94/69/94
f 94/69/94 106/64/106 96/73/96 95/74/95
f 96/73/96 106/64/106 97/76/97
f 97/76/97 104/68/104 99/72/99 98/75/98
f 97/76/97 106/64/106 105/63/105 104/68/104
f 99/72/99 103/67/103 101/61/101 100/71/100
f 99/72/99 104/68/104 103/67/103
f 101/61/101 103/67/103 102/62/102
f 107/56/107 114/36/114 112/40/112 108/55/108
f 107/56/107 122/18/122 115/34/115 114/36/114
f 108/55/108 111/39/111 110/65/110 109/66/109
f 108/55/108 112/40/112 111/39/111
f 112/40/112 114/36/114 113/35/113
f 115/34/115 122/18/122 117/30/117 116/33/116
f 117/30/117 122/18/122 121/17/121 118/29/118
f 118/29/118 121/17/121 120/8/120 119/7/119
f 122/18/122 137/19/137 135/11/135 123/16/123
f 122/18/122 139/23/139 138/20/138 137/19/137
f 123/16/123 132/2/132 125/10/125 124/15/124
f 123/16/123 133/5/133 132/2/132
f 123/16/123 135/11/135 134/6/134 133/5/133
f 125/10/125 130/4/130 129/3/129 126/9/126
f 125/10/125 132/2/132 131/1/131 130/4/130
f 126/9/126 129/3/129 128/13/128 127/14/127
f 135/11/135 137/19/137 136/12/136
f 139/23/139 141/31/141 140/24/140
f 142/32/142 144/26/144 143/25/143
f 144/26/144 150/37/150 147/27/147 145/21/145
f 145/21/145 147/27/147 146/22/146
f 147/27/147 150/37/150 149/38/149 148/28/148
