# Exported from Wings 3D 0.99.03
mtllib tree.mtl
o tetrahedron2
#12 vertices, 10 faces
v 0.0000000e+0 8.66607701 0.0000000e+0
v 0.0000000e+0 -3.2738733e-2 0.56377099
v -0.48824000 -3.2738733e-2 -0.28188550
v 0.48824000 -3.2738733e-2 -0.28188550
v -1.43600000 6.63271291 1.43600000
v -1.43600000 12.41117691 1.43600000
v 1.43600000 12.41117691 1.43600000
v 1.43600000 6.63271291 1.43600000
v -1.43600000 6.63271291 -1.43600000
v -1.43600000 12.41117691 -1.43600000
v 1.43600000 12.41117691 -1.43600000
v 1.43600000 6.63271291 -1.43600000
vt 0.0000000e+0 0.0000000e+0
vt 0.0000000e+0 0.25000000
vt 1.1102230e-16 0.50000000
vt 1.1102230e-16 0.75000000
vt 0.25000000 1.1102230e-16
vt 0.25000000 0.25000000
vt 0.25000000 5.5511151e-17
vt 0.25000000 0.25000000
vt 0.25000000 0.32034639
vt 0.25000000 0.50000000
vt 0.25000000 0.75000000
vt 0.26511820 0.69957767
vt 0.29771148 0.25000000
vt 0.33477750 0.25650964
vt 0.33477750 0.32649255
vt 0.40603600 0.62929262
vt 0.41952787 0.25000000
vt 0.50000000 0.0000000e+0
vt 0.50000000 0.25000000
vt 0.50360151 0.26251490
vt 0.75000000 5.5511151e-17
vt 0.75000000 0.25000000
vt 1.00000000 5.5511151e-17
vt 1.00000000 0.25000000
vn 0.0000000e+0 1.00000000 0.0000000e+0
vn 0.0000000e+0 -0.68324706 0.73018728
vn -0.63236073 -0.68324706 -0.36509364
vn 0.63236073 -0.68324706 -0.36509364
vn -0.57735027 -0.57735027 0.57735027
vn -0.57735027 0.57735027 0.57735027
vn 0.57735027 0.57735027 0.57735027
vn 0.57735027 -0.57735027 0.57735027
vn -0.57735027 -0.57735027 -0.57735027
vn -0.57735027 0.57735027 -0.57735027
vn 0.57735027 0.57735027 -0.57735027
vn 0.57735027 -0.57735027 -0.57735027
g tetrahedron2_tetrahedron2_auv
usemtl tetrahedron2_auv
f 1/16/1 3/17/3 2/20/2
f 1/16/1 4/14/4 3/17/3
f 2/9/2 4/15/4 1/12/1
f 3/13/3 4/15/4 2/9/2
f 5/2/5 8/6/8 7/10/7 6/3/6
f 5/2/5 9/1/9 12/5/12 8/6/8
f 6/24/6 10/22/10 9/21/9 5/23/5
f 7/10/7 11/11/11 10/4/10 6/3/6
f 8/7/8 12/18/12 11/19/11 7/8/7
f 10/22/10 11/19/11 12/18/12 9/21/9
