# Exported from Wings 3D 0.99.03
mtllib turtle.mtl
o cube2
#54 vertices, 57 faces
v -0.16800000 0.17157291 0.92261247
v -0.16800000 -0.43164574 0.78813579
v -0.16800000 0.28828852 -1.03552214
v -0.16800000 -0.48619760 -1.05455186
v -0.16800000 0.24119583 1.19537179
v -0.16800000 6.5969695e-2 1.30193822
v -0.16800000 -0.21962881 1.44022085
v -0.16800000 6.6275129e-2 0.65604370
v -0.16800000 0.35552686 0.23089393
v -0.16800000 0.46716788 -0.15746504
v -0.16800000 -0.52806298 -4.9324581e-2
v -0.16800000 -0.30604959 -0.57596619
v -0.16800000 -0.51664515 -0.45559732
v -0.16800000 1.4107855e-2 -1.22962529
v -0.16800000 -0.26387877 -1.27783391
v -0.16800000 -0.27164338 -1.07485023
v -0.16800000 -0.17931635 1.21186421
v -0.16800000 -0.32930108 1.37678845
v -0.16800000 -0.33085400 1.05455186
v -0.16800000 -0.21188537 0.77544931
v -0.16800000 -0.31467640 0.41080933
v -0.16800000 -0.52501822 0.63609068
v -0.16800000 -0.61103255 0.58100082
v -0.16800000 -0.57779398 0.17830141
v -0.16800000 -0.28194528 -5.6378490e-2
v -0.16800000 -0.40183251 -0.42063315
v -0.16800000 0.47160815 -0.61806061
v 0.17511111 0.17157291 0.92261247
v 0.17511111 0.24119583 1.19537179
v 0.17511111 6.5969695e-2 1.30193822
v 0.17511111 -0.21962881 1.44022085
v 0.17511111 -0.17931635 1.21186421
v 0.17511111 -0.32930108 1.37678845
v 0.17511111 -0.33085400 1.05455186
v 0.17511111 -0.21188537 0.77544931
v 0.17511111 -0.43164574 0.78813579
v 0.17511111 -0.31467640 0.41080933
v 0.17511111 -0.52501822 0.63609068
v 0.17511111 -0.61103255 0.58100082
v 0.17511111 -0.57779398 0.17830141
v 0.17511111 -0.52806298 -4.9324581e-2
v 0.17511111 -0.28194528 -5.6378490e-2
v 0.17511111 -0.30604959 -0.57596619
v 0.17511111 -0.40183251 -0.42063315
v 0.17511111 -0.51664515 -0.45559732
v 0.17511111 -0.48619760 -1.05455186
v 0.17511111 -0.27164338 -1.07485023
v 0.17511111 -0.26387877 -1.27783391
v 0.17511111 1.4107855e-2 -1.22962529
v 0.17511111 0.28828852 -1.03552214
v 0.17511111 0.47160815 -0.61806061
v 0.17511111 0.46716788 -0.15746504
v 0.17511111 0.35552686 0.23089393
v 0.17511111 6.6275129e-2 0.65604370
vt 0.0000000e+0 0.16857896
vt 3.9079850e-13 0.85673420
vt 3.7739476e-4 0.21190031
vt 5.4702443e-4 0.80774201
vt 6.9691214e-4 0.12429949
vt 1.2390361e-3 0.24422738
vt 2.0087849e-3 9.4607557e-2
vt 2.1109269e-3 0.92291364
vt 2.9274255e-3 0.75673361
vt 3.9015012e-3 6.4835044e-2
vt 4.1409689e-3 0.96150607
vt 4.3638239e-3 0.30294403
vt 6.7513214e-3 0.71069871
vt 6.8221276e-3 2.5254204e-2
vt 7.2200027e-3 1.00000000
vt 7.5314426e-3 0.34855502
vt 8.8412578e-3 0.36340921
vt 8.8797856e-3 0.0000000e+0
vt 1.0540163e-2 0.67963898
vt 1.3251165e-2 0.42046058
vt 1.3927788e-2 0.65523028
vt 1.6099700e-2 0.63833464
vt 1.6158993e-2 0.45124359
vt 1.8002447e-2 0.62049543
vt 1.8719104e-2 0.48136946
vt 2.0566708e-2 0.53969489
vt 2.1610596e-2 0.55793732
vt 2.2009584e-2 0.56876727
vt 3.8841959e-2 0.75780103
vt 3.9736145e-2 0.71290052
vt 3.9776804e-2 0.80764482
vt 4.1193817e-2 0.68249070
vt 4.2332414e-2 0.85519379
vt 4.3265734e-2 0.65846257
vt 4.5091492e-2 0.64156173
vt 4.6336252e-2 9.5997581e-2
vt 4.6448604e-2 0.12465278
vt 4.6613125e-2 0.92034963
vt 4.7006275e-2 6.7058651e-2
vt 4.7471639e-2 0.16792201
vt 4.7481518e-2 0.62350817
vt 4.9188582e-2 2.8255428e-2
vt 4.9355685e-2 0.21017286
vt 4.9898038e-2 0.95798675
vt 5.1130175e-2 3.4424706e-3
vt 5.1329267e-2 0.24181821
vt 5.3329684e-2 0.99581735
vt 5.3468359e-2 0.57113879
vt 5.4868038e-2 0.29998270
vt 5.5333650e-2 0.55949324
vt 5.7429206e-2 0.34554764
vt 5.7592999e-2 0.54032179
vt 5.8022942e-2 0.36051661
vt 5.9345317e-2 0.48078188
vt 6.0274094e-2 0.41805304
vt 6.0280577e-2 0.44972740
vt 8.5266486e-2 0.13549560
vt 8.6392254e-2 0.13580334
vt 0.10097470 0.22607427
vt 0.10210047 0.22638201
vt 0.15140633 0.13296560
vt 0.15253209 0.13327333
vt 0.15802031 6.3055629e-2
vt 0.15914608 6.3363367e-2
vt 0.16422092 0.31541281
vt 0.16534669 0.31572054
vt 0.30024584 0.37514535
vt 0.30137161 0.37545308
vt 0.31396181 0.12175473
vt 0.31508758 0.12206247
vt 0.35318259 5.3134655e-2
vt 0.35430836 5.3442393e-2
vt 0.36457525 9.0544999e-2
vt 0.36570102 9.0852737e-2
vt 0.45032548 0.37369854
vt 0.45145125 0.37400628
vt 0.48326334 0.12960884
vt 0.48438911 0.12991658
vt 0.48556178 4.9414289e-2
vt 0.48668754 4.9722027e-2
vt 0.55973102 3.3210029e-2
vt 0.56085679 3.3517767e-2
vt 0.57686768 0.33732163
vt 0.57799345 0.33762936
vt 0.63549099 0.11894379
vt 0.63661676 0.11925153
vt 0.69094588 2.2379630e-2
vt 0.69207165 2.2687368e-2
vt 0.70889626 5.0406387e-2
vt 0.71002203 5.0714124e-2
vt 0.71539772 0.24307236
vt 0.71652349 0.24338010
vt 0.75430463 0.15243704
vt 0.75543040 0.15274477
vt 0.75843837 8.0830711e-2
vt 0.75956414 8.1138448e-2
vt 0.80225601 0.27738240
vt 0.80338178 0.27769014
vt 0.84524691 0.11367251
vt 0.84637268 0.11398025
vt 0.89113142 0.30006821
vt 0.89225719 0.30037595
vt 0.89650529 0.16304927
vt 0.89763105 0.16335701
vt 0.92585484 0.24297284
vt 0.92698061 0.24328057
vt 0.95024391 0.11417851
vt 0.95136967 0.11448625
vt 0.97091261 0.14991393
vt 0.97203837 0.15022167
vn -0.83256042 0.52701095 -0.17059488
vn -0.65956711 -0.59197857 0.46317663
vn -0.72007679 0.53768550 -0.43861569
vn -0.55138348 -0.60260537 -0.57692549
vn -0.52819789 0.78624845 0.32065613
vn -0.83234200 0.26507497 0.48676694
vn -0.73947315 -0.40595805 0.53700793
vn -0.86156310 0.50454825 5.6036537e-2
vn -0.71156628 0.63609338 0.29842695
vn -0.71033765 0.69649702 0.10154966
vn -0.53584947 -0.53885272 -0.65000239
vn -0.98929607 -3.6539806e-2 0.14127324
vn -0.78538571 -0.50658699 0.35572308
vn -0.45615971 0.34151453 -0.82175796
vn -0.60480302 -0.50101817 -0.61902674
vn -0.89385751 -0.32579789 -0.30801703
vn -0.98326508 -8.0284472e-2 0.16353651
vn -0.80928266 -0.21054946 0.54838901
vn -0.45473201 -0.87304157 -0.17611703
vn -0.96698974 -0.20845454 0.14655218
vn -0.99382165 -5.5711564e-2 9.5993520e-2
vn -0.54546779 0.10450658 0.83159080
vn -0.50401813 -0.77414524 0.38296850
vn -0.70788567 -0.69852977 -0.10466155
vn -0.94373773 -0.24244023 -0.22490406
vn -0.53389293 0.29890627 0.79095726
vn -0.71504401 0.68485563 -0.14030266
vn 0.83256042 0.52701095 -0.17059488
vn 0.52819789 0.78624845 0.32065613
vn 0.83234200 0.26507497 0.48676694
vn 0.73947315 -0.40595805 0.53700793
vn 0.98326508 -8.0284472e-2 0.16353651
vn 0.80928266 -0.21054946 0.54838901
vn 0.45473201 -0.87304157 -0.17611703
vn 0.96698974 -0.20845454 0.14655218
vn 0.65956711 -0.59197857 0.46317663
vn 0.99382165 -5.5711564e-2 9.5993520e-2
vn 0.54546779 0.10450658 0.83159080
vn 0.50401813 -0.77414524 0.38296850
vn 0.70788567 -0.69852977 -0.10466155
vn 0.53584947 -0.53885272 -0.65000239
vn 0.94373773 -0.24244023 -0.22490406
vn 0.98929607 -3.6539806e-2 0.14127324
vn 0.53389293 0.29890627 0.79095726
vn 0.78538571 -0.50658699 0.35572308
vn 0.55138348 -0.60260537 -0.57692549
vn 0.89385751 -0.32579789 -0.30801703
vn 0.60480302 -0.50101817 -0.61902674
vn 0.45615971 0.34151453 -0.82175796
vn 0.72007679 0.53768550 -0.43861569
vn 0.71504401 0.68485563 -0.14030266
vn 0.71033765 0.69649702 0.10154966
vn 0.71156628 0.63609338 0.29842695
vn 0.86156310 0.50454825 5.6036537e-2
g cube2_cube2_auv
usemtl cube2_auv
f 1/98/1 6/106/6 5/102/5
f 1/44/1 28/11/28 54/8/54 8/38/8
f 2/96/2 20/94/20 8/92/8 21/86/21
f 2/46/2 36/6/36 35/3/35 20/43/20
f 3/66/3 16/62/16 12/70/12 27/68/27
f 3/30/3 50/13/50 49/19/49 14/32/14
f 4/41/4 46/24/46 45/28/45 13/48/13
f 5/47/5 29/15/29 28/11/28 1/44/1
f 6/106/6 17/104/17 7/110/7
f 6/42/6 30/14/30 29/18/29 5/45/5
f 7/39/7 31/10/31 30/14/30 6/42/6
f 8/92/8 20/94/20 1/98/1
f 8/38/8 54/8/54 53/2/53 9/33/9
f 9/84/9 25/78/25 21/86/21 8/92/8
f 9/33/9 53/2/53 52/4/52 10/31/10
f 10/76/10 25/78/25 9/84/9
f 10/31/10 52/4/52 51/9/51 27/29/27
f 11/80/11 24/82/24 21/86/21 25/78/25
f 11/56/11 41/23/41 40/20/40 24/55/24
f 12/70/12 13/72/13 26/74/26
f 12/52/12 43/26/43 42/25/42 25/54/25
f 13/72/13 12/70/12 16/62/16 4/64/4
f 13/48/13 45/28/45 44/27/44 26/50/26
f 14/60/14 15/58/15 16/62/16 3/66/3
f 14/32/14 49/19/49 48/21/48 15/34/15
f 15/34/15 48/21/48 47/22/47 16/35/16
f 16/35/16 47/22/47 46/24/46 4/41/4
f 17/104/17 20/94/20 19/100/19 18/108/18
f 17/36/17 32/7/32 31/10/31 7/39/7
f 18/37/18 33/5/33 32/7/32 17/36/17
f 19/40/19 34/1/34 33/5/33 18/37/18
f 20/94/20 17/104/17 6/106/6 1/98/1
f 20/43/20 35/3/35 34/1/34 19/40/19
f 21/86/21 24/82/24 23/88/23 22/90/22
f 21/49/21 37/12/37 36/6/36 2/46/2
f 22/51/22 38/16/38 37/12/37 21/49/21
f 23/53/23 39/17/39 38/16/38 22/51/22
f 24/55/24 40/20/40 39/17/39 23/53/23
f 25/54/25 42/25/42 41/23/41 11/56/11
f 26/50/26 44/27/44 43/26/43 12/52/12
f 27/68/27 12/70/12 25/78/25 10/76/10
f 27/29/27 51/9/51 50/13/50 3/30/3
f 28/97/28 35/93/35 54/91/54
f 29/101/29 30/105/30 28/97/28
f 31/109/31 32/103/32 30/105/30
f 32/103/32 35/93/35 28/97/28 30/105/30
f 33/107/33 34/99/34 35/93/35 32/103/32
f 36/95/36 37/85/37 54/91/54 35/93/35
f 38/89/38 39/87/39 40/81/40 37/85/37
f 41/79/41 42/77/42 37/85/37 40/81/40
f 43/69/43 51/67/51 52/75/52 42/77/42
f 44/73/44 45/71/45 43/69/43
f 46/63/46 47/61/47 43/69/43 45/71/45
f 48/57/48 49/59/49 50/65/50 47/61/47
f 51/67/51 43/69/43 47/61/47 50/65/50
f 53/83/53 42/77/42 52/75/52
f 54/91/54 37/85/37 42/77/42 53/83/53
