# Exported from Wings 3D 1.1.9.1
mtllib tortoise.mtl
o c:/Documents and Settings/v21/My Documents/My Dropbox/joebabies/other/tortoise.ai
#108 vertices, 122 faces
v -0.49144593 2.42861217 0.49989255
v -0.49144593 2.24757217 0.49989255
v -1.05208593 2.24757217 0.49989255
v -1.05208593 2.06069217 0.49989255
v -1.23896593 2.06069217 0.49989255
v -1.23896593 1.50005217 0.49989255
v -1.42584593 1.50005217 0.49989255
v -1.42584593 1.31317217 0.49989255
v -1.61272593 1.31317217 0.49989255
v -1.61272593 1.12629217 0.49989255
v -1.79960593 1.12629217 0.49989255
v -1.79960593 1.50005217 0.49989255
v -1.98648593 1.50005217 0.49989255
v -1.98648593 1.68693217 0.49989255
v -2.73400593 1.68693217 0.49989255
v -2.73400593 1.50005217 0.49989255
v -2.91504593 1.50005217 0.49989255
v -2.91504593 0.75253217 0.49989255
v -2.54712593 0.75253217 0.49989255
v -2.54712593 0.56565217 0.49989255
v -1.42584593 0.56565217 0.49989255
v -1.42584593 0.37877217 0.49989255
v -1.98648593 0.37877217 0.49989255
v -1.98648593 -8.2783194e-4 0.49989255
v -1.05208593 -8.2783194e-4 0.49989255
v -1.05208593 0.19189217 0.49989255
v -0.86520593 0.19189217 0.49989255
v -0.86520593 0.37877217 0.49989255
v -0.30456593 0.37877217 0.49989255
v -0.30456593 0.56565217 0.49989255
v 2.49863407 0.56565217 0.49989255
v 2.49863407 0.37877217 0.49989255
v 2.68551407 0.37877217 0.49989255
v 2.68551407 0.19189217 0.49989255
v 2.49863407 0.19189217 0.49989255
v 2.49863407 -8.2783194e-4 0.49989255
v 3.06511407 -8.2783194e-4 0.49989255
v 3.06511407 0.56565217 0.49989255
v 2.87239407 0.56565217 0.49989255
v 2.87239407 1.12629217 0.49989255
v 2.68551407 1.12629217 0.49989255
v 2.68551407 1.31317217 0.49989255
v 2.49863407 1.31317217 0.49989255
v 2.49863407 1.50005217 0.49989255
v 2.31175407 1.50005217 0.49989255
v 2.31175407 1.68693217 0.49989255
v 2.12487407 1.68693217 0.49989255
v 2.12487407 1.87381217 0.49989255
v 1.93799407 1.87381217 0.49989255
v 1.93799407 2.06069217 0.49989255
v 1.75111407 2.06069217 0.49989255
v 1.75111407 2.24757217 0.49989255
v 1.37735407 2.24757217 0.49989255
v 1.37735407 2.42861217 0.49989255
v -0.49144593 2.42861217 -0.49989255
v -0.49144593 2.24757217 -0.49989255
v -1.05208593 2.24757217 -0.49989255
v -1.05208593 2.06069217 -0.49989255
v -1.23896593 2.06069217 -0.49989255
v -1.23896593 1.50005217 -0.49989255
v -1.42584593 1.50005217 -0.49989255
v -1.42584593 1.31317217 -0.49989255
v -1.61272593 1.31317217 -0.49989255
v -1.61272593 1.12629217 -0.49989255
v -1.79960593 1.12629217 -0.49989255
v -1.79960593 1.50005217 -0.49989255
v -1.98648593 1.50005217 -0.49989255
v -1.98648593 1.68693217 -0.49989255
v -2.73400593 1.68693217 -0.49989255
v -2.73400593 1.50005217 -0.49989255
v -2.91504593 1.50005217 -0.49989255
v -2.91504593 0.75253217 -0.49989255
v -2.54712593 0.75253217 -0.49989255
v -2.54712593 0.56565217 -0.49989255
v -1.42584593 0.56565217 -0.49989255
v -1.42584593 0.37877217 -0.49989255
v -1.98648593 0.37877217 -0.49989255
v -1.98648593 -8.2783194e-4 -0.49989255
v -1.05208593 -8.2783194e-4 -0.49989255
v -1.05208593 0.19189217 -0.49989255
v -0.86520593 0.19189217 -0.49989255
v -0.86520593 0.37877217 -0.49989255
v -0.30456593 0.37877217 -0.49989255
v -0.30456593 0.56565217 -0.49989255
v 2.49863407 0.56565217 -0.49989255
v 2.49863407 0.37877217 -0.49989255
v 2.68551407 0.37877217 -0.49989255
v 2.68551407 0.19189217 -0.49989255
v 2.49863407 0.19189217 -0.49989255
v 2.49863407 -8.2783194e-4 -0.49989255
v 3.06511407 -8.2783194e-4 -0.49989255
v 3.06511407 0.56565217 -0.49989255
v 2.87239407 0.56565217 -0.49989255
v 2.87239407 1.12629217 -0.49989255
v 2.68551407 1.12629217 -0.49989255
v 2.68551407 1.31317217 -0.49989255
v 2.49863407 1.31317217 -0.49989255
v 2.49863407 1.50005217 -0.49989255
v 2.31175407 1.50005217 -0.49989255
v 2.31175407 1.68693217 -0.49989255
v 2.12487407 1.68693217 -0.49989255
v 2.12487407 1.87381217 -0.49989255
v 1.93799407 1.87381217 -0.49989255
v 1.93799407 2.06069217 -0.49989255
v 1.75111407 2.06069217 -0.49989255
v 1.75111407 2.24757217 -0.49989255
v 1.37735407 2.24757217 -0.49989255
v 1.37735407 2.42861217 -0.49989255
vt 1.3582062e-4 0.12499694
vt 1.3582062e-4 0.24999694
vt 1.3582062e-4 0.12499694
vt 1.3582062e-4 0.24999694
vt 3.0409258e-2 0.24999694
vt 3.0409258e-2 0.28124694
vt 3.0409258e-2 0.24999694
vt 3.0409258e-2 0.28124694
vt 6.1659258e-2 9.3746942e-2
vt 6.1659258e-2 0.12499694
vt 6.1659258e-2 9.3746942e-2
vt 6.1659258e-2 0.12499694
vt 0.15540926 -9.7962049e-4
vt 0.15540926 6.2496942e-2
vt 0.15540926 0.24999694
vt 0.15540926 0.28124694
vt 0.15540926 -9.7962049e-4
vt 0.15540926 6.2496942e-2
vt 0.15540926 0.24999694
vt 0.15540926 0.28124694
vt 0.18665926 0.18749694
vt 0.18665926 0.24999694
vt 0.18665926 0.18749694
vt 0.18665926 0.24999694
vt 0.21790926 0.18749694
vt 0.21790926 0.21874694
vt 0.21790926 0.18749694
vt 0.21790926 0.21874694
vt 0.24915926 6.2496942e-2
vt 0.24915926 9.3746942e-2
vt 0.24915926 0.21874694
vt 0.24915926 0.24999694
vt 0.24915926 6.2496942e-2
vt 0.24915926 9.3746942e-2
vt 0.24915926 0.21874694
vt 0.24915926 0.24999694
vt 0.28040926 0.24999694
vt 0.28040926 0.34374694
vt 0.28040926 0.24999694
vt 0.28040926 0.34374694
vt 0.31165926 -9.7962049e-4
vt 0.31165926 3.1246942e-2
vt 0.31165926 0.34374694
vt 0.31165926 0.37499694
vt 0.31165926 -9.7962049e-4
vt 0.31165926 3.1246942e-2
vt 0.31165926 0.34374694
vt 0.31165926 0.37499694
vt 0.34290926 3.1246942e-2
vt 0.34290926 6.2496942e-2
vt 0.34290926 3.1246942e-2
vt 0.34290926 6.2496942e-2
vt 0.40540926 0.37499694
vt 0.40540926 0.40527038
vt 0.40540926 0.37499694
vt 0.40540926 0.40527038
vt 0.43665926 6.2496942e-2
vt 0.43665926 9.3746942e-2
vt 0.43665926 6.2496942e-2
vt 0.43665926 9.3746942e-2
vt 0.71790926 0.37499694
vt 0.71790926 0.40527038
vt 0.71790926 0.37499694
vt 0.71790926 0.40527038
vt 0.78040926 0.34374694
vt 0.78040926 0.37499694
vt 0.78040926 0.34374694
vt 0.78040926 0.37499694
vt 0.81165926 0.31249694
vt 0.81165926 0.34374694
vt 0.81165926 0.31249694
vt 0.81165926 0.34374694
vt 0.84290926 0.28124694
vt 0.84290926 0.31249694
vt 0.84290926 0.28124694
vt 0.84290926 0.31249694
vt 0.87415926 0.24999694
vt 0.87415926 0.28124694
vt 0.87415926 0.24999694
vt 0.87415926 0.28124694
vt 0.90540926 -9.7962049e-4
vt 0.90540926 3.1246942e-2
vt 0.90540926 6.2496942e-2
vt 0.90540926 9.3746942e-2
vt 0.90540926 0.21874694
vt 0.90540926 0.24999694
vt 0.90540926 -9.7962049e-4
vt 0.90540926 3.1246942e-2
vt 0.90540926 6.2496942e-2
vt 0.90540926 9.3746942e-2
vt 0.90540926 0.21874694
vt 0.90540926 0.24999694
vt 0.93665926 3.1246942e-2
vt 0.93665926 6.2496942e-2
vt 0.93665926 0.18749694
vt 0.93665926 0.21874694
vt 0.93665926 3.1246942e-2
vt 0.93665926 6.2496942e-2
vt 0.93665926 0.18749694
vt 0.93665926 0.21874694
vt 0.96790926 9.3746942e-2
vt 0.96790926 0.18749694
vt 0.96790926 9.3746942e-2
vt 0.96790926 0.18749694
vt 1.00013582 -9.7962049e-4
vt 1.00013582 -9.7962049e-4
vt 1.00013582 9.3746942e-2
vn -0.57735027 0.57735027 0.57735027
vn -0.23570226 0.23570226 0.94280904
vn -0.57735027 0.57735027 0.57735027
vn -0.30151134 0.30151134 0.90453403
vn -0.57735027 0.57735027 0.57735027
vn -0.23570226 0.23570226 0.94280904
vn -0.57735027 0.57735027 0.57735027
vn -0.23570226 0.23570226 0.94280904
vn -0.57735027 0.57735027 0.57735027
vn -0.30151134 0.30151134 0.90453403
vn 0.23570226 0.23570226 0.94280904
vn 0.57735027 0.57735027 0.57735027
vn 0.30151134 0.30151134 0.90453403
vn 0.57735027 0.57735027 0.57735027
vn -0.57735027 0.57735027 0.57735027
vn -0.30151134 0.30151134 0.90453403
vn -0.57735027 0.57735027 0.57735027
vn -0.57735027 -0.57735027 0.57735027
vn -0.30151134 -0.30151134 0.90453403
vn -0.57735027 -0.57735027 0.57735027
vn -0.23570226 -0.23570226 0.94280904
vn -0.30151134 0.30151134 0.90453403
vn -0.57735027 0.57735027 0.57735027
vn -0.40824829 -0.40824829 0.81649658
vn 0.57735027 -0.57735027 0.57735027
vn 0.30151134 -0.30151134 0.90453403
vn 0.57735027 -0.57735027 0.57735027
vn 0.19245009 -0.19245009 0.96225045
vn 0.57735027 -0.57735027 0.57735027
vn 0.14002801 -0.14002801 0.98019606
vn -0.19245009 -0.19245009 0.96225045
vn -0.57735027 -0.57735027 0.57735027
vn -0.30151134 -0.30151134 0.90453403
vn -0.30151134 0.30151134 0.90453403
vn -0.57735027 0.57735027 0.57735027
vn -0.57735027 -0.57735027 0.57735027
vn 0.40824829 -0.40824829 0.81649658
vn 0.57735027 0.57735027 0.57735027
vn 0.23570226 0.23570226 0.94280904
vn 0.57735027 0.57735027 0.57735027
vn 0.30151134 0.30151134 0.90453403
vn 0.57735027 0.57735027 0.57735027
vn 0.40824829 0.40824829 0.81649658
vn 0.57735027 0.57735027 0.57735027
vn 0.30151134 0.30151134 0.90453403
vn 0.57735027 0.57735027 0.57735027
vn 0.30151134 0.30151134 0.90453403
vn 0.57735027 0.57735027 0.57735027
vn 0.30151134 0.30151134 0.90453403
vn 0.57735027 0.57735027 0.57735027
vn 0.30151134 0.30151134 0.90453403
vn 0.57735027 0.57735027 0.57735027
vn 0.23570226 0.23570226 0.94280904
vn 0.57735027 0.57735027 0.57735027
vn -0.57735027 0.57735027 -0.57735027
vn -0.23570226 0.23570226 -0.94280904
vn -0.57735027 0.57735027 -0.57735027
vn -0.30151134 0.30151134 -0.90453403
vn -0.57735027 0.57735027 -0.57735027
vn -0.23570226 0.23570226 -0.94280904
vn -0.57735027 0.57735027 -0.57735027
vn -0.23570226 0.23570226 -0.94280904
vn -0.57735027 0.57735027 -0.57735027
vn -0.30151134 0.30151134 -0.90453403
vn 0.23570226 0.23570226 -0.94280904
vn 0.57735027 0.57735027 -0.57735027
vn 0.30151134 0.30151134 -0.90453403
vn 0.57735027 0.57735027 -0.57735027
vn -0.57735027 0.57735027 -0.57735027
vn -0.30151134 0.30151134 -0.90453403
vn -0.57735027 0.57735027 -0.57735027
vn -0.57735027 -0.57735027 -0.57735027
vn -0.30151134 -0.30151134 -0.90453403
vn -0.57735027 -0.57735027 -0.57735027
vn -0.23570226 -0.23570226 -0.94280904
vn -0.30151134 0.30151134 -0.90453403
vn -0.57735027 0.57735027 -0.57735027
vn -0.40824829 -0.40824829 -0.81649658
vn 0.57735027 -0.57735027 -0.57735027
vn 0.30151134 -0.30151134 -0.90453403
vn 0.57735027 -0.57735027 -0.57735027
vn 0.19245009 -0.19245009 -0.96225045
vn 0.57735027 -0.57735027 -0.57735027
vn 0.14002801 -0.14002801 -0.98019606
vn -0.19245009 -0.19245009 -0.96225045
vn -0.57735027 -0.57735027 -0.57735027
vn -0.30151134 -0.30151134 -0.90453403
vn -0.30151134 0.30151134 -0.90453403
vn -0.57735027 0.57735027 -0.57735027
vn -0.57735027 -0.57735027 -0.57735027
vn 0.40824829 -0.40824829 -0.81649658
vn 0.57735027 0.57735027 -0.57735027
vn 0.23570226 0.23570226 -0.94280904
vn 0.57735027 0.57735027 -0.57735027
vn 0.30151134 0.30151134 -0.90453403
vn 0.57735027 0.57735027 -0.57735027
vn 0.40824829 0.40824829 -0.81649658
vn 0.57735027 0.57735027 -0.57735027
vn 0.30151134 0.30151134 -0.90453403
vn 0.57735027 0.57735027 -0.57735027
vn 0.30151134 0.30151134 -0.90453403
vn 0.57735027 0.57735027 -0.57735027
vn 0.30151134 0.30151134 -0.90453403
vn 0.57735027 0.57735027 -0.57735027
vn 0.30151134 0.30151134 -0.90453403
vn 0.57735027 0.57735027 -0.57735027
vn 0.23570226 0.23570226 -0.94280904
vn 0.57735027 0.57735027 -0.57735027
g c:/Documents and Settings/v21/My Documents/My Dropbox/joebabies/other/tortoise.ai_default
usemtl default
s 1
f 1/54/1 55/54/55 56/53/56 2/53/2
f 2/53/2 53/61/53 54/62/54 1/54/1
f 2/53/2 56/53/56 57/44/57 3/44/3
f 3/44/3 4/43/4 2/53/2
f 3/44/3 57/44/57 58/43/58 4/43/4
f 4/43/4 6/37/6 30/58/30 2/53/2
f 4/43/4 58/43/58 59/38/59 5/38/5
f 5/38/5 6/37/6 4/43/4
f 5/38/5 59/38/59 60/37/60 6/37/6
f 6/37/6 60/37/60 61/32/61 7/32/7
f 7/32/7 8/31/8 6/37/6
f 7/32/7 61/32/61 62/31/62 8/31/8
f 8/31/8 28/50/28 30/58/30 6/37/6
f 8/31/8 62/31/62 63/28/63 9/28/9
f 9/28/9 10/27/10 8/31/8
f 9/28/9 63/28/63 64/27/64 10/27/10
f 10/27/10 21/30/21 28/50/28 8/31/8
f 10/27/10 64/27/64 65/23/65 11/23/11
f 11/23/11 21/30/21 10/27/10
f 11/23/11 65/23/65 66/24/66 12/24/12
f 12/24/12 13/19/13 11/23/11
f 12/24/12 66/24/66 67/19/67 13/19/13
f 13/19/13 16/7/16 19/12/19 11/23/11
f 13/19/13 67/19/67 68/20/68 14/20/14
f 14/20/14 15/8/15 16/7/16 13/19/13
f 14/20/14 68/20/68 69/8/69 15/8/15
f 15/8/15 69/8/69 70/7/70 16/7/16
f 16/7/16 70/7/70 71/4/71 17/4/17
f 17/4/17 18/3/18 19/12/19 16/7/16
f 17/4/17 71/4/71 72/3/72 18/3/18
f 18/3/18 72/3/72 73/12/73 19/12/19
f 19/12/19 20/11/20 21/30/21 11/23/11
f 19/12/19 73/12/73 74/11/74 20/11/20
f 20/11/20 74/11/74 75/30/75 21/30/21
f 21/30/21 75/30/75 76/29/76 22/29/22
f 22/29/22 26/42/26 28/50/28 21/30/21
f 22/29/22 76/29/76 77/18/77 23/18/23
f 23/18/23 24/17/24 22/29/22
f 23/18/23 77/18/77 78/17/78 24/17/24
f 24/17/24 25/41/25 26/42/26 22/29/22
f 24/17/24 78/17/78 79/41/79 25/41/25
f 25/41/25 79/41/79 80/42/80 26/42/26
f 26/42/26 80/42/80 81/49/81 27/49/27
f 27/49/27 28/50/28 26/42/26
f 27/49/27 81/49/81 82/50/82 28/50/28
f 28/50/28 82/50/82 83/57/83 29/57/29
f 29/57/29 30/58/30 28/50/28
f 29/57/29 83/57/83 84/58/84 30/58/30
f 30/58/30 53/61/53 2/53/2
f 30/58/30 84/58/84 85/84/85 31/84/31
f 31/84/31 45/77/45 47/73/47 30/58/30
f 31/84/31 85/84/85 86/83/86 32/83/32
f 32/83/32 33/94/33 31/84/31
f 32/83/32 86/83/86 87/94/87 33/94/33
f 33/94/33 39/101/39 41/95/41 31/84/31
f 33/94/33 87/94/87 88/93/88 34/93/34
f 34/93/34 39/101/39 33/94/33
f 34/93/34 88/93/88 89/82/89 35/82/35
f 35/82/35 36/81/36 37/106/37 34/93/34
f 35/82/35 89/82/89 90/81/90 36/81/36
f 36/81/36 90/81/90 91/106/91 37/106/37
f 37/106/37 38/107/38 39/101/39 34/93/34
f 37/106/37 91/106/91 92/107/92 38/107/38
f 38/107/38 92/107/92 93/101/93 39/101/39
f 39/101/39 93/101/93 94/102/94 40/102/40
f 40/102/40 41/95/41 39/101/39
f 40/102/40 94/102/94 95/95/95 41/95/41
f 41/95/41 42/96/42 43/85/43 31/84/31
f 41/95/41 95/95/95 96/96/96 42/96/42
f 42/96/42 96/96/96 97/85/97 43/85/43
f 43/85/43 44/86/44 45/77/45 31/84/31
f 43/85/43 97/85/97 98/86/98 44/86/44
f 44/86/44 98/86/98 99/77/99 45/77/45
f 45/77/45 99/77/99 100/78/100 46/78/46
f 46/78/46 47/73/47 45/77/45
f 46/78/46 100/78/100 101/73/101 47/73/47
f 47/73/47 48/74/48 49/69/49 30/58/30
f 47/73/47 101/73/101 102/74/102 48/74/48
f 48/74/48 102/74/102 103/69/103 49/69/49
f 49/69/49 51/65/51 53/61/53 30/58/30
f 49/69/49 103/69/103 104/70/104 50/70/50
f 50/70/50 51/65/51 49/69/49
f 50/70/50 104/70/104 105/65/105 51/65/51
f 51/65/51 105/65/105 106/66/106 52/66/52
f 52/66/52 53/61/53 51/65/51
f 52/66/52 106/66/106 107/61/107 53/61/53
f 53/61/53 107/61/107 108/62/108 54/62/54
f 54/62/54 108/62/108 55/54/55 1/54/1
f 55/56/55 108/64/108 107/63/107 56/55/56
f 56/55/56 58/47/58 57/48/57
f 56/55/56 84/60/84 60/39/60 58/47/58
f 56/55/56 107/63/107 84/60/84
f 58/47/58 60/39/60 59/40/59
f 60/39/60 62/35/62 61/36/61
f 60/39/60 84/60/84 82/52/82 62/35/62
f 62/35/62 64/25/64 63/26/63
f 62/35/62 82/52/82 75/34/75 64/25/64
f 64/25/64 75/34/75 65/21/65
f 65/21/65 67/15/67 66/22/66
f 65/21/65 73/10/73 70/5/70 67/15/67
f 65/21/65 75/34/75 74/9/74 73/10/73
f 67/15/67 70/5/70 69/6/69 68/16/68
f 70/5/70 73/10/73 72/1/72 71/2/71
f 75/34/75 82/52/82 80/46/80 76/33/76
f 76/33/76 78/13/78 77/14/77
f 76/33/76 80/46/80 79/45/79 78/13/78
f 80/46/80 82/52/82 81/51/81
f 82/52/82 84/60/84 83/59/83
f 84/60/84 101/75/101 99/79/99 85/90/85
f 84/60/84 103/71/103 102/76/102 101/75/101
f 84/60/84 107/63/107 105/67/105 103/71/103
f 85/90/85 87/98/87 86/89/86
f 85/90/85 95/99/95 93/103/93 87/98/87
f 85/90/85 97/91/97 96/100/96 95/99/95
f 85/90/85 99/79/99 98/92/98 97/91/97
f 87/98/87 93/103/93 88/97/88
f 88/97/88 91/105/91 90/87/90 89/88/89
f 88/97/88 93/103/93 92/107/92 91/105/91
f 93/103/93 95/99/95 94/104/94
f 99/79/99 101/75/101 100/80/100
f 103/71/103 105/67/105 104/72/104
f 105/67/105 107/63/107 106/68/106
