# Exported from Wings 3D 0.99.03
mtllib block_tex.mtl
o cube1
#24 vertices, 14 faces
v -1.00000000 -0.69450667 1.00000000
v -1.00000000 -1.00000000 0.69450667
v -0.69450667 -1.00000000 1.00000000
v -1.00000000 0.69450667 1.00000000
v -1.00000000 1.00000000 0.69450667
v -0.69450667 1.00000000 1.00000000
v 0.69450667 1.00000000 1.00000000
v 1.00000000 1.00000000 0.69450667
v 1.00000000 0.69450667 1.00000000
v 0.69450667 -1.00000000 1.00000000
v 1.00000000 -0.69450667 1.00000000
v 1.00000000 -1.00000000 0.69450667
v -1.00000000 -1.00000000 -0.69450667
v -0.69450667 -1.00000000 -1.00000000
v -1.00000000 -0.69450667 -1.00000000
v -1.00000000 1.00000000 -0.69450667
v -1.00000000 0.69450667 -1.00000000
v -0.69450667 1.00000000 -1.00000000
v 1.00000000 1.00000000 -0.69450667
v 0.69450667 1.00000000 -1.00000000
v 1.00000000 0.69450667 -1.00000000
v 1.00000000 -1.00000000 -0.69450667
v 1.00000000 -0.69450667 -1.00000000
v 0.69450667 -1.00000000 -1.00000000
vt 0.0000000e+0 0.22654267
vt 0.0000000e+0 0.49283490
vt 1.6653345e-16 0.31921534
vt 5.5511151e-16 5.4487562e-2
vt 3.7841025e-2 0.26438369
vt 3.7841025e-2 1.6646538e-2
vt 3.8185104e-2 0.53102000
vt 3.8185104e-2 0.28103023
vt 0.20989613 0.26438369
vt 0.20989613 1.6646538e-2
vt 0.21180466 0.53102000
vt 0.21180466 0.28103023
vt 0.24404825 0.22505564
vt 0.24404825 5.5974589e-2
vt 0.24998977 0.49283490
vt 0.24998977 0.31921534
vt 0.24998977 0.31921534
vt 0.24998977 0.49283490
vt 0.27820036 0.26523426
vt 0.27820036 1.5795971e-2
vt 0.28817487 0.28103023
vt 0.28817487 0.53102000
vt 0.45306702 0.26758140
vt 0.45306702 1.3448827e-2
vt 0.46179443 0.53102000
vt 0.46179443 0.28103023
vt 0.48833530 0.22781860
vt 0.48833530 5.3211631e-2
vt 0.49997953 0.31921534
vt 0.49997953 0.49283490
vt 0.52360357 0.27016090
vt 0.52360357 1.0869327e-2
vt 0.70202010 0.26776611
vt 0.70202010 1.3264119e-2
vt 0.73686552 0.22677185
vt 0.73686552 5.4258380e-2
vt 0.77171094 0.26689828
vt 0.77171094 1.4131953e-2
vt 0.94725883 0.26689828
vt 0.94725883 1.4131953e-2
vt 0.98586805 5.2741167e-2
vt 0.98586805 0.22828906
vt 1.00000000 0.0000000e+0
vt 1.00000000 0.28103023
vn -0.68455032 -0.25056281 0.68455032
vn -0.68455032 -0.68455032 0.25056281
vn -0.25056281 -0.68455032 0.68455032
vn -0.68455032 0.25056281 0.68455032
vn -0.68455032 0.68455032 0.25056281
vn -0.25056281 0.68455032 0.68455032
vn 0.25056281 0.68455032 0.68455032
vn 0.68455032 0.68455032 0.25056281
vn 0.68455032 0.25056281 0.68455032
vn 0.25056281 -0.68455032 0.68455032
vn 0.68455032 -0.25056281 0.68455032
vn 0.68455032 -0.68455032 0.25056281
vn -0.68455032 -0.68455032 -0.25056281
vn -0.25056281 -0.68455032 -0.68455032
vn -0.68455032 -0.25056281 -0.68455032
vn -0.68455032 0.68455032 -0.25056281
vn -0.68455032 0.25056281 -0.68455032
vn -0.25056281 0.68455032 -0.68455032
vn 0.68455032 0.68455032 -0.25056281
vn 0.25056281 0.68455032 -0.68455032
vn 0.68455032 0.25056281 -0.68455032
vn 0.68455032 -0.68455032 -0.25056281
vn 0.68455032 -0.25056281 -0.68455032
vn 0.25056281 -0.68455032 -0.68455032
g cube1_cube1_auv
usemtl cube1_auv
f 1/36/1 2/34/2 3/38/3
f 1/36/1 3/38/3 10/40/10 11/41/11 9/42/9 7/39/7 6/37/6 4/35/4
f 3/26/3 2/29/2 13/30/13 14/25/14 24/22/24 22/18/22 12/17/12 10/21/10
f 4/35/4 5/33/5 16/31/16 17/27/17 15/28/15 13/32/13 2/34/2 1/36/1
f 4/35/4 6/37/6 5/33/5
f 7/12/7 8/16/8 19/15/19 20/11/20 18/7/18 16/2/16 5/3/5 6/8/6
f 7/39/7 9/42/9 8/44/8
f 10/40/10 12/43/12 11/41/11
f 11/4/11 12/6/12 22/10/22 23/14/23 21/13/21 19/9/19 8/5/8 9/1/9
f 13/32/13 15/28/15 14/24/14
f 16/31/16 18/23/18 17/27/17
f 17/27/17 18/23/18 20/19/20 21/13/21 23/14/23 24/20/24 14/24/14 15/28/15
f 19/9/19 21/13/21 20/19/20
f 22/10/22 24/20/24 23/14/23
