<?xml version="1.0" encoding="UTF-8" standalone="no"?>
<!-- Created with Inkscape (http://www.inkscape.org/) -->
<svg
   xmlns:dc="http://purl.org/dc/elements/1.1/"
   xmlns:cc="http://creativecommons.org/ns#"
   xmlns:rdf="http://www.w3.org/1999/02/22-rdf-syntax-ns#"
   xmlns:svg="http://www.w3.org/2000/svg"
   xmlns="http://www.w3.org/2000/svg"
   xmlns:xlink="http://www.w3.org/1999/xlink"
   xmlns:sodipodi="http://sodipodi.sourceforge.net/DTD/sodipodi-0.dtd"
   xmlns:inkscape="http://www.inkscape.org/namespaces/inkscape"
   width="744.09448819"
   height="1052.3622047"
   id="svg2"
   sodipodi:version="0.32"
   inkscape:version="0.46"
   sodipodi:docname="hedgehog.svg"
   inkscape:output_extension="org.inkscape.output.svg.inkscape">
  <defs
     id="defs4">
    <inkscape:perspective
       sodipodi:type="inkscape:persp3d"
       inkscape:vp_x="0 : 526.18109 : 1"
       inkscape:vp_y="0 : 1000 : 0"
       inkscape:vp_z="744.09448 : 526.18109 : 1"
       inkscape:persp3d-origin="372.04724 : 350.78739 : 1"
       id="perspective10" />
    <inkscape:perspective
       id="perspective2390"
       inkscape:persp3d-origin="372.04724 : 350.78739 : 1"
       inkscape:vp_z="744.09448 : 526.18109 : 1"
       inkscape:vp_y="0 : 1000 : 0"
       inkscape:vp_x="0 : 526.18109 : 1"
       sodipodi:type="inkscape:persp3d" />
    <clipPath
       clipPathUnits="userSpaceOnUse"
       id="clipPath3229">
      <path
         style="fill:none;fill-rule:evenodd;stroke:#000000;stroke-width:4;stroke-linecap:butt;stroke-linejoin:miter;stroke-miterlimit:4;stroke-dasharray:none;stroke-opacity:1;display:inline"
         d="M -280.60564,200.0102 C -294.74777,161.62441 -341.21479,143.44166 -341.21479,143.44166 C -341.21479,143.44166 -248.28076,151.52288 -234.13862,173.74624 C -219.99649,195.96959 -232.11832,161.62441 -232.11832,161.62441 C -232.11832,161.62441 -191.71221,183.84776 -191.71221,208.09142 C -191.71221,232.33509 -213.93557,210.11173 -213.93557,210.11173 C -213.93557,210.11173 -169.48886,264.65997 -177.57008,282.84271 C -185.6513,301.02546 -203.83404,270.72088 -203.83404,270.72088 C -203.83404,270.72088 -167.46855,313.14729 -177.57008,323.24881 C -187.6716,333.35034 -195.75282,319.2082 -195.75282,319.2082 C -195.75282,319.2082 -161.40764,375.77674 -207.87465,391.93919 C -195.75282,428.30468 -205.58629,448.18009 -224.0371,470.73109 C -242.21984,492.95444 -274.54472,537.40115 -321.01174,537.40115 C -343.2351,541.44176 -310.91021,519.21841 -310.91021,519.21841 L -407.88486,571.74634 L -403.84425,549.52298 L -583.6514,598.01031 L -573.54988,575.78695 C -573.54988,575.78695 -630.11842,610.13213 -658.40269,583.86817 C -652.34177,533.36054 -658.40269,547.50268 -658.40269,547.50268 C -658.40269,547.50268 -698.80879,600.03061 -710.93062,571.74634 C -723.05245,543.46207 -698.80879,519.21841 -698.80879,519.21841 C -698.80879,519.21841 -779.621,565.68543 -771.53978,543.46207 C -763.45855,521.23871 -751.33672,511.13719 -751.33672,511.13719 C -751.33672,511.13719 -795.78344,523.25902 -793.76313,507.09658 C -791.74283,490.93414 -761.43825,444.46712 -761.43825,444.46712 C -761.43825,444.46712 -795.78344,436.3859 -807.90527,444.46712 C -820.0271,452.54834 -777.60069,410.12193 -777.60069,410.12193 C -777.60069,410.12193 -811.94588,359.61431 -830.12862,363.65492 C -848.31137,367.69553 -793.76313,349.51278 -793.76313,349.51278 C -793.76313,349.51278 -838.20984,323.24881 -820.0271,311.12698 C -801.84435,299.00515 -759.41794,284.86302 -759.41794,284.86302 C -759.41794,284.86302 -787.70222,224.25386 -805.88496,222.23356 C -824.06771,220.21325 -755.37733,218.19295 -755.37733,218.19295 C -755.37733,218.19295 -775.58039,189.90868 -759.41794,193.94929 C -743.2555,197.9899 -684.66666,220.21325 -684.66666,220.21325 C -684.66666,220.21325 -696.78849,177.78685 -684.66666,185.86807 C -672.54483,193.94929 -613.95598,208.09142 -613.95598,208.09142 L -620.01689,187.88837 L -535.16408,197.9899 L -575.57018,220.21325 L -521.02194,232.33509 L -553.34683,248.49753 L -502.8392,280.82241 L -541.22499,303.04576 C -541.22499,303.04576 -512.94072,327.28942 -500.81889,331.33003 C -488.69706,335.37064 -533.14377,359.61431 -533.14377,359.61431 L -482.63615,369.71583 L -494.75798,408.10163 L -464.4534,404.06102 L -456.37218,436.3859 L -436.16913,416.18285 L -409.90516,434.36559 L -393.74272,402.04071 L -357.37723,448.50773 L -351.31632,400.02041 L -312.93052,420.22346 L -312.93052,381.83766 L -262.42289,395.9798 L -288.68686,359.61431 L -266.4635,355.5737 L -298.78838,303.04576 L -272.52442,294.96454 L -304.8493,252.53814 L -274.54472,242.43661 L -312.93052,214.15234 L -280.60564,200.0102 z"
         id="path3231"
         sodipodi:nodetypes="ccscscscsccsccccccccscscscscscscscscsccccccccsccccccccccccccccccccc"
         mask="none" />
    </clipPath>
    <clipPath
       clipPathUnits="userSpaceOnUse"
       id="clipPath3291">
      <path
         style="fill:none;fill-rule:evenodd;stroke:#000000;stroke-width:4;stroke-linecap:butt;stroke-linejoin:miter;stroke-miterlimit:4;stroke-dasharray:none;stroke-opacity:1;display:inline"
         mask="none"
         d="M -175.8125,318.09375 C -175.92661,309.30689 -185.65695,294.43682 -193.625,283.6875 C -188.09005,288.93297 -181.57946,291.88191 -177.5625,282.84375 C -169.48128,264.66101 -213.93749,210.12501 -213.9375,210.125 C -213.9375,210.125 -191.71876,232.33742 -191.71875,208.09375 C -191.71875,183.85009 -232.125,161.62501 -232.125,161.625 C -232.125,161.625 -219.98286,195.97334 -234.125,173.75 C -248.26714,151.52664 -341.21876,143.43749 -341.21875,143.4375 C -341.21875,143.4375 -294.73587,161.61422 -280.59375,200 L -312.9375,214.15625 L -274.53125,242.4375 L -304.84375,252.53125 L -272.53125,294.96875 L -298.78125,303.03125 L -266.46875,355.5625 L -288.6875,359.625 L -262.4375,395.96875 L -312.9375,381.84375 L -312.9375,420.21875 L -351.3125,400.03125 L -357.375,448.5 L -393.75,402.03125 L -409.90625,434.375 L -436.15625,416.1875 L -456.375,436.375 L -464.46875,404.0625 L -494.75,408.09375 L -482.625,369.71875 L -533.15625,359.625 C -533.15625,359.625 -488.69068,335.38437 -500.8125,331.34375 C -512.93433,327.30314 -541.21876,303.03126 -541.21875,303.03125 L -502.84375,280.8125 L -553.34375,248.5 L -521.03125,232.34375 L -575.5625,220.21875 L -535.15625,198 L -620.03125,187.875 L -613.96875,208.09375 C -613.96875,208.09375 -672.53439,193.95622 -684.65625,185.875 C -696.77808,177.79378 -684.65622,220.21874 -684.65625,220.21875 C -684.65625,220.21875 -743.24378,197.9781 -759.40625,193.9375 C -775.5687,189.89689 -755.37501,218.1875 -755.375,218.1875 C -755.375,218.1875 -824.05776,220.19843 -805.875,222.21875 C -787.69226,224.23905 -759.40622,284.87501 -759.40625,284.875 C -759.40625,284.875 -801.8485,299.00317 -820.03125,311.125 C -838.21399,323.24683 -793.75001,349.49999 -793.75,349.5 C -793.75,349.5 -848.30777,367.69687 -830.125,363.65625 C -811.94226,359.61564 -777.59373,410.12501 -777.59375,410.125 C -777.59375,410.125 -820.02808,452.54996 -807.90625,444.46875 C -795.78442,436.38753 -761.43752,444.46874 -761.4375,444.46875 C -761.4375,444.46875 -791.72971,490.9313 -793.75,507.09375 C -795.77031,523.25619 -751.34374,511.12501 -751.34375,511.125 C -751.34375,511.125 -763.45001,521.24536 -771.53125,543.46875 C -779.61247,565.69211 -698.81251,519.21878 -698.8125,519.21875 C -698.8125,519.21875 -723.05935,543.46573 -710.9375,571.75 C -698.81567,600.03427 -658.40623,547.49999 -658.40625,547.5 C -658.40625,547.5 -652.34531,533.36738 -658.40625,583.875 C -630.12198,610.13896 -573.56251,575.78127 -573.5625,575.78125 L -583.65625,598 L -496.15625,574.40625 C -491.93153,562.88016 -481.77885,549.60737 -472.375,548.5625 C -473.80357,535.70538 -488.0625,488.5625 -488.0625,488.5625 L -462.375,478.5625 C -462.375,478.56249 -433.7991,540.01339 -436.65625,547.15625 C -437.55798,549.41057 -432.4741,552.22051 -425.375,555.34375 L -403.84375,549.53125 L -406.34375,563.34375 C -403.68145,564.51603 -401.13924,565.69425 -398.90625,566.875 L -310.90625,519.21875 C -310.90625,519.21875 -343.22335,541.44689 -321,537.40625 C -274.53298,537.40625 -242.214,492.94211 -224.03125,470.71875 C -205.58044,448.16775 -195.75317,428.303 -207.875,391.9375 C -161.40799,375.77505 -195.75,319.21876 -195.75,319.21875 C -195.75,319.21875 -187.66402,333.35153 -177.5625,323.25 C -176.29981,321.98731 -175.78488,320.22059 -175.8125,318.09375 z M -193.71875,283.59375 C -199.27459,278.29045 -203.84375,270.71875 -203.84375,270.71875 C -203.84375,270.71875 -199.21639,276.18526 -193.71875,283.59375 z"
         id="path3293" />
    </clipPath>
  </defs>
  <sodipodi:namedview
     id="base"
     pagecolor="#ffffff"
     bordercolor="#666666"
     borderopacity="1.0"
     gridtolerance="10000"
     guidetolerance="10"
     objecttolerance="10"
     inkscape:pageopacity="0.0"
     inkscape:pageshadow="2"
     inkscape:zoom="0.35"
     inkscape:cx="395.23305"
     inkscape:cy="487.13172"
     inkscape:document-units="px"
     inkscape:current-layer="layer1"
     showgrid="false"
     inkscape:window-width="898"
     inkscape:window-height="716"
     inkscape:window-x="154"
     inkscape:window-y="27" />
  <metadata
     id="metadata7">
    <rdf:RDF>
      <cc:Work
         rdf:about="">
        <dc:format>image/svg+xml</dc:format>
        <dc:type
           rdf:resource="http://purl.org/dc/dcmitype/StillImage" />
      </cc:Work>
    </rdf:RDF>
  </metadata>
  <g
     inkscape:groupmode="layer"
     id="layer5"
     inkscape:label="face"
     style="display:inline">
    <path
       style="opacity:1;fill:#ff9955;fill-opacity:1;stroke:none;stroke-width:4;stroke-linejoin:miter;stroke-miterlimit:4;stroke-dasharray:none;stroke-dashoffset:0;stroke-opacity:1"
       id="path3238"
       d="M 173.24072,302.94123 C 181.53309,303.86917 189.89961,303.73183 198.23057,303.77718 C 207.18459,303.71661 216.13804,303.65558 225.09179,303.57411 C 232.99025,303.40979 240.89037,303.52586 248.78923,303.61058 C 257.49911,303.74941 266.20973,303.67183 274.91896,303.52234 C 281.60824,303.32338 288.297,303.37979 294.98705,303.41034 C 303.20661,303.55626 311.427,303.59737 319.64747,303.66374 C 328.03215,303.53754 336.41725,303.62028 344.80219,303.57505 C 351.67694,303.49063 358.55131,303.38431 365.42638,303.32869 C 371.21086,303.28836 376.99551,303.28553 382.78011,303.28307 C 406.79346,303.46141 395.63281,296.23176 386.91891,344.75044 C 376.25145,343.37203 365.44035,343.41531 354.70144,343.12246 C 340.33228,342.13608 326.41507,345.20349 312.68266,349.01139 C 301.34389,351.78679 290.25306,355.30503 279.17274,358.93188 C 269.06339,362.54048 258.71993,365.64391 248.35061,368.45091 C 239.39016,370.22706 230.96123,373.69291 222.09487,375.82531 C 214.78966,377.09498 207.77698,379.45762 200.43675,380.60501 C 194.63501,381.38231 188.77305,381.43451 182.92997,381.47786 C 159.18413,381.34043 170.48795,388.78239 180.38269,340.20557 C 195.63357,342.15401 211.09161,341.96687 226.44094,341.87276 C 238.98883,341.80963 251.52249,341.17223 264.06008,340.72955 C 270.78985,340.41463 277.52355,340.55313 284.25691,340.53496 C 292.28326,340.72238 300.3109,340.78369 308.33896,340.69694 C 315.01645,340.59184 321.69408,340.50434 328.37225,340.45935 C 335.69233,340.42681 342.99687,340.77372 350.31941,340.73324 C 356.88899,340.13346 363.29909,341.15205 369.75484,342.15948 C 374.36025,343.33592 378.96808,344.44331 382.37467,347.92253 C 379.76028,362.08613 378.09379,376.45794 374.53149,390.41331 C 374.25468,391.49773 372.374,391.0097 371.29773,391.31664 C 364.8668,393.1507 358.76307,395.56858 352.22914,397.10534 C 341.1123,400.63262 329.59453,402.18251 318.01066,403.0579 C 306.43128,403.86439 294.83396,403.65736 283.23914,403.58164 C 270.49144,403.55318 257.74526,403.46806 244.99739,403.51316 C 233.10838,403.57065 221.2193,403.60531 209.33018,403.62404 C 198.67981,403.37911 188.11266,404.11627 177.51289,405.01689 C 168.14196,406.5725 158.5339,407.92854 149.9096,412.0841 C 133.20289,420.10792 138.1941,438.45959 151.18535,376.09792 C 151.23505,375.85935 151.45888,376.55296 151.69156,376.62536 C 152.75276,376.95557 153.87198,377.05721 154.96219,377.27314 C 168.47089,378.8289 182.11382,378.74948 195.69402,378.86786 C 213.07543,378.89691 230.45649,378.97652 247.83773,379.02138 C 263.09974,378.87741 278.36251,378.70587 293.62185,378.39419 C 305.66005,378.15298 317.70034,378.24565 329.73883,378.39698 C 344.32981,378.7278 358.9211,378.68613 373.51356,378.53261 C 382.95315,378.62844 392.8802,376.73017 401.46911,381.51547 C 443.80406,418.10498 389.9739,427.47307 375.37409,430.89916 C 359.40067,434.9517 343.4777,439.2713 327.78966,444.32517 C 314.19501,448.54564 300.05167,451.04414 285.93482,452.77945 C 270.58161,455.12228 255.07899,456.11419 239.58727,456.9873 C 227.21116,457.61919 214.81955,457.82468 202.43242,458.1113 C 195.01317,458.31779 187.59283,458.46992 180.17109,458.54327 C 174.12642,458.68452 167.9914,459.61692 162.32223,461.75384 C 160.87083,462.35669 151.70347,465.26556 151.63165,466.86396 C 151.601,467.54605 153.00951,468.92098 153.13922,468.25064 C 155.76411,454.68493 157.24316,440.92242 159.29514,427.2583 C 171.28443,430.5785 184.15791,429.99356 196.51625,430.71894 C 210.20533,431.51751 223.9145,432.00793 237.62652,432.12591 C 250.04416,432.39625 262.46168,432.71275 274.879,433.01788 C 290.82968,433.37931 306.78004,433.20995 322.72543,432.73285 C 332.10858,432.26283 341.50102,432.23816 350.89225,432.14397 C 359.00891,432.19282 367.12451,432.16851 375.24058,432.05267 C 381.55268,431.94853 387.86539,431.89738 394.17823,431.87098 C 399.87267,431.57553 405.16908,431.68034 410.45105,433.94711 C 424.40545,444.19256 411.45723,454.14405 405.68529,479.15225 C 405.44075,480.21175 399.21989,481.80817 398.34758,482.09207 C 389.097,483.70641 380.01485,486.16933 370.91745,488.49747 C 353.95839,493.12187 336.81606,496.85853 319.4092,499.30752 C 301.72845,501.48817 283.93431,502.58873 266.13917,503.26296 C 255.6898,503.72825 245.23157,503.89916 234.77406,504.02818 C 227.9977,504.13985 221.22107,504.22537 214.44393,504.26858 C 208.93114,504.62695 203.25958,503.64341 197.82817,504.75667 C 181.82623,508.25187 185.29495,536.21699 200.93921,465.05183 C 201.07039,464.45511 202.09461,465.46464 202.69499,465.57793 C 203.98104,465.82063 205.28771,465.93736 206.58407,466.11708 C 219.01262,467.32157 231.5197,467.09995 243.98654,466.8483 C 252.20078,466.67285 260.41099,466.24076 268.62835,466.30219 C 279.04589,466.53564 289.4639,466.75563 299.87907,467.08569 C 312.26991,467.38728 324.65674,466.94731 337.03892,466.54177 C 344.69842,466.21782 352.36501,466.2991 360.0275,466.44106 C 365.64244,466.44456 362.80429,466.42961 368.54196,466.48767 L 362.15583,506.80812 C 356.40393,506.86614 359.24701,506.85123 353.6266,506.85472 C 345.97477,506.99563 338.31871,507.07967 330.66993,506.75385 C 318.34527,506.34583 306.01595,505.90721 293.6825,506.2103 C 283.18481,506.54051 272.68438,506.76046 262.18459,507.00605 C 254.02113,507.07905 245.86376,506.67281 237.70371,506.48544 C 225.13177,506.1996 212.55164,506.01454 199.9825,506.53564 C 198.56493,506.58441 197.14797,506.6564 195.7298,506.68197 C 194.65846,506.70128 192.45177,507.7399 192.51529,506.67027 C 195.12013,462.80087 185.2261,466.68338 203.78863,463.5072 C 209.48898,463.04293 215.21929,463.38519 220.93392,463.32004 C 227.68439,463.37724 234.43398,463.49108 241.1827,463.65673 C 251.53434,463.85754 261.88366,464.12491 272.23645,464.28208 C 289.79299,464.27718 307.39931,464.03962 324.8097,461.50822 C 342.20915,458.63445 359.37382,454.6071 376.07747,448.89007 C 385.12845,446.09677 394.26059,443.5809 403.30371,440.76884 C 404.71302,440.08793 406.13228,439.57212 407.2487,438.41333 C 407.63851,438.00873 408.21417,436.42333 408.13479,436.97953 C 406.21445,450.4344 403.84941,463.82203 401.70672,477.24328 C 402.41997,475.77388 402.39159,476.52401 401.7654,474.99204 C 397.75078,471.82886 392.46502,473.02919 387.68725,472.85337 C 381.39359,472.827 375.10007,472.77594 368.80716,472.67152 C 360.70081,472.55518 352.59493,472.53126 344.48799,472.5805 C 335.15883,472.48777 325.82841,472.46768 316.50717,472.00332 C 300.58853,471.53496 284.66551,471.39131 268.74201,471.74738 C 256.22224,472.03467 243.68209,472.44199 231.16346,472.00873 C 217.52044,471.14943 203.91312,469.86596 190.27113,469.00122 C 177.01837,468.55302 163.73698,469.36231 150.51606,468.45645 C 154.27083,421.9995 142.7516,429.88485 167.39383,420.85072 C 173.59153,418.82044 180.10603,417.46622 186.65769,417.63151 C 194.02627,417.72854 201.39251,417.9235 208.75881,418.1279 C 221.02378,418.37608 233.29435,418.46896 245.5587,418.11695 C 260.99443,417.553 276.38629,416.30272 291.61384,413.60771 C 305.4651,411.65674 319.34504,409.42127 332.77042,405.40966 C 348.6673,400.76931 364.73121,396.71704 380.50769,391.65605 C 384.26243,390.45832 389.04795,389.0662 392.71924,387.42962 C 393.92904,386.89032 395.16574,386.3416 396.20246,385.51717 C 396.84422,385.00682 397.73467,382.70483 397.63696,383.51893 C 393.31612,419.52066 386.6408,436.15702 392.1168,422.2943 C 386.881,415.2571 374.69418,418.4494 367.32267,417.62031 C 352.71589,417.46608 338.11032,417.42626 323.505,417.75554 C 311.46632,417.90601 299.42584,417.99926 287.38745,417.75822 C 272.19395,417.44779 256.99682,417.28118 241.8005,417.15597 C 224.39636,417.22489 206.99242,417.3515 189.58812,417.41719 C 175.74837,417.53537 161.90986,417.7811 148.07009,417.85218 C 147.9532,417.8474 140.02145,417.6793 140.06504,417.03866 C 142.77785,377.16801 135.66257,379.30058 154.71168,371.45419 C 163.98594,368.14057 173.6939,366.277 183.46742,365.15189 C 194.16917,364.17103 204.85415,363.35359 215.61314,363.95716 C 227.49045,363.97791 239.36772,364.01558 251.24479,364.09548 C 263.99179,364.16746 276.73773,364.13251 289.48475,364.12929 C 300.98753,364.03699 312.5011,363.90688 323.98896,363.31141 C 335.33419,362.39734 346.58403,360.75088 357.4683,357.28587 C 362.51173,355.75197 367.39691,354.11227 372.14971,351.8016 C 373.35471,351.21576 374.61187,350.69408 375.69099,349.89988 C 376.24833,349.48969 377.05358,347.57308 376.96299,348.25914 C 375.18608,361.71508 372.71885,375.07081 370.59678,388.47665 C 372.5315,384.68724 364.8455,384.36141 362.58444,383.14979 C 356.38107,382.10412 350.27762,380.61723 343.92056,381.13398 C 336.5692,381.09327 329.23557,381.44067 321.88664,381.40788 C 315.23355,381.36296 308.58101,381.27554 301.92861,381.17029 C 293.88344,381.08305 285.83872,381.14593 277.79524,381.33222 C 271.08244,381.31403 264.36924,381.45328 257.66008,381.13726 C 245.24332,380.69363 232.83053,380.05387 220.40322,379.9954 C 204.8792,379.90253 189.25157,379.74044 173.82523,381.69163 C 175.44497,367.74325 177.02597,353.79032 178.68445,339.84649 C 178.70234,339.69609 178.60287,340.25571 178.74879,340.29631 C 179.43724,340.4879 180.17221,340.43538 180.88643,340.45927 C 183.71878,340.554 186.55963,340.39587 189.39257,340.45119 C 195.03429,340.39802 200.69252,340.33079 206.29539,339.59349 C 213.4364,338.52545 220.41818,336.69312 227.50522,335.33001 C 236.21782,333.11011 244.69933,330.0104 253.58808,328.43924 C 263.8836,325.54382 274.1401,322.49283 284.23272,318.94486 C 295.35641,315.40898 306.56731,312.19184 317.90998,309.42443 C 331.99187,305.89465 346.24715,303.77456 360.82513,304.45905 C 371.73674,304.16404 382.71496,304.19276 393.55828,302.83107 C 386.96695,350.88341 400.47916,344.19264 376.28391,344.29844 C 370.50413,344.29598 364.7243,344.29317 358.94464,344.25282 C 352.09557,344.19726 345.24722,344.09092 338.39849,344.00646 C 330.02291,343.9612 321.64717,344.04408 313.27186,343.91777 C 305.02463,343.98418 296.77749,344.02549 288.53117,344.17116 C 281.85294,344.20162 275.176,344.25873 268.49855,344.05917 C 259.79865,343.90903 251.09736,343.83249 242.39678,343.97092 C 234.49408,344.05541 226.59008,344.17191 218.68778,344.0074 C 209.75548,343.92589 200.82347,343.86492 191.89089,343.80433 C 183.4713,343.85008 175.01854,343.72227 166.63624,344.64028 L 173.24072,302.94123 z" />
    <path
       style="opacity:1;fill:#ff9955;fill-opacity:1;stroke:none;stroke-width:4;stroke-linejoin:miter;stroke-miterlimit:4;stroke-dasharray:none;stroke-dashoffset:0;stroke-opacity:1"
       id="path3240"
       d="M 95.768584,485.71957 C 100.77031,486.26759 105.8051,485.90546 110.80064,486.4711 C 115.77597,487.45357 120.79358,488.04891 125.66726,489.47165 C 131.10699,491.28693 133.2234,495.61108 134.36074,500.85983 C 136.7004,518.78784 135.96238,542.36012 119.85297,552.21309 C 115.68937,555.20598 112.02565,557.52781 110.00871,562.41733 C 109.98105,560.83558 108.68475,568.96682 108.9842,567.32328 C 123.61717,487.0114 112.48942,550.48435 106.74417,577.07492 C 106.62142,577.87848 106.23249,580.28574 106.3759,579.48561 C 108.64926,566.80207 110.84396,554.10449 113.13413,541.42398 C 113.2887,540.56809 112.93315,543.15277 112.78307,544.00945 C 109.07142,565.1958 107.63174,575.30182 103.9762,591.49791 C 103.30363,594.45985 100.51385,596.39856 99.4488,599.09624 C 99.243116,599.61722 99.089551,601.30753 99.191272,600.75673 C 101.6457,587.4665 104.06846,574.17045 106.50705,560.87731 C 104.42366,563.47716 116.23215,563.50534 117.11987,563.55251 C 123.53658,563.28003 130.52688,564.79899 136.79941,562.87903 C 132.21655,605.77024 139.07804,610.70698 118.53577,600.09832 C 114.59478,597.61972 110.0035,596.78232 105.66234,595.28329 C 100.8412,593.53666 96.096077,591.81897 91.03629,590.89697 C 86.011287,590.67746 81.193922,589.28591 76.273291,588.41756 C 59.584755,582.99881 67.170954,547.72967 84.011728,541.96703 C 89.224056,538.26599 96.084454,538.75534 102.18013,538.52626 C 114.31055,538.31163 126.44345,538.39671 138.57582,538.29385 C 147.09316,538.03696 155.61331,538.43849 163.98484,536.71805 C 169.27203,535.48998 174.67993,535.08228 180.08631,534.84705 C 185.7267,534.66791 191.37095,534.68774 197.01346,534.69072 C 200.60265,534.69507 198.91872,534.76043 202.06683,534.54071 L 195.51535,575.8674 C 192.42186,575.63734 194.08669,575.70781 190.51894,575.70779 C 184.94097,575.71591 179.36015,575.71156 173.78653,575.96111 C 168.53766,576.26302 163.32429,576.84683 158.14804,577.78567 C 149.56724,578.80127 140.94292,577.71965 132.32836,577.77794 C 120.254,577.71232 108.16545,577.70168 96.122448,578.71631 C 90.185215,579.38988 84.458137,580.13093 79.543221,583.78959 C 78.361753,585.00492 78.696452,584.30454 78.427198,585.83348 C 80.716495,572.42239 83.005792,559.01131 85.29509,545.60023 C 85.35088,545.22901 84.710732,546.08104 84.376093,546.25113 C 84.048643,546.41756 83.50856,546.2776 83.330422,546.59883 C 83.20701,546.82138 83.71261,546.93493 83.903704,547.10298 C 88.527746,548.74723 93.397535,549.5052 98.264576,549.96337 C 103.53221,550.88989 108.54069,552.50716 113.58164,554.25572 C 118.13731,555.86478 122.94193,556.77796 127.16468,559.21431 C 146.28612,570.90187 140.3084,547.44248 130.21907,604.78846 C 123.94833,602.92608 117.00101,604.53213 110.59462,604.00619 C 104.79717,603.97923 98.425578,604.89278 93.544815,601.10936 C 95.962623,586.97621 98.149244,572.80156 100.79824,558.70991 C 101.10468,557.07978 105.56713,552.28796 104.9699,549.75528 C 105.36194,548.24413 106.34554,543.66729 106.08692,545.2069 C 92.234815,627.6714 102.89596,558.90326 107.73877,535.35667 C 108.1567,533.80811 109.24728,529.12607 108.98003,530.70762 C 106.83034,543.42938 99.646092,581.45873 102.31821,568.83636 C 105.07216,555.82744 104.67033,535.10034 112.18902,520.79113 C 115.32408,516.58276 119.58209,513.78221 123.73883,510.65548 C 125.31798,509.19674 126.62809,507.89831 127.47582,505.88547 C 127.7304,505.28098 128.24493,503.386 128.14128,504.03367 C 122.58603,538.74799 118.45725,555.97122 122.07527,540.69289 C 121.76942,536.88316 121.80474,532.44995 117.93033,530.52259 C 113.27923,529.08098 108.52144,528.46658 103.7472,527.50822 C 98.93308,526.75913 93.982063,527.27609 89.13914,527.57623 L 95.768584,485.71957 z" />
    <path
       style="opacity:1;fill:#ff9955;fill-opacity:1;stroke:none;stroke-width:4;stroke-linejoin:miter;stroke-miterlimit:4;stroke-dasharray:none;stroke-dashoffset:0;stroke-opacity:1"
       id="path3242"
       d="M 570.0543,397.14814 C 575.06634,397.62704 580.1162,397.5666 585.14661,397.58698 C 607.89568,397.75934 596.41069,388.6752 587.76137,439.11399 C 582.95389,438.34174 578.19593,439.97706 573.53745,440.99219 C 567.26873,443.68164 559.84699,443.76956 554.21081,447.74442 C 553.88387,448.24273 553.29058,448.64646 553.23,449.23936 C 553.17085,449.81843 553.77639,451.42509 553.89304,450.85482 C 556.57226,437.7569 558.32835,424.48216 560.97476,411.37757 C 561.10962,410.70975 561.2543,412.71387 561.46456,413.36192 C 561.95948,414.88731 562.61649,416.19949 563.28643,417.64515 C 566.47757,423.14162 572.4707,426.25273 578.01561,428.97141 C 583.18057,431.33016 588.79902,432.55784 593.82211,435.19266 C 609.20231,447.26778 593.97984,477.26638 591.93487,488.3736 C 591.08201,491.53093 587.86071,492.29477 585.93381,494.50685 C 582.20085,498.79231 587.88521,493.26157 583.31239,497.53638 C 581.3312,500.41132 578.19163,502.40346 575.25981,504.23779 L 579.28252,462.53633 C 581.91724,460.46819 584.47783,458.4363 586.54095,455.7584 C 589.15994,452.76775 592.51772,450.6557 593.26724,446.45628 C 591.05638,459.44437 588.81215,472.42682 586.63466,485.42054 C 586.52189,486.09346 586.94557,484.09141 587.07266,483.42106 C 587.60165,480.63093 586.91599,478.13622 585.0483,475.96125 C 580.54178,472.64087 574.58084,472.1715 569.68866,469.48065 C 563.70292,466.53632 557.03104,462.78411 552.47621,457.9595 C 542.58131,443.3767 542.15882,415.06257 558.67702,406.38093 C 565.20657,403.65354 572.36213,402.78619 578.97551,400.22985 C 584.051,398.80202 589.12878,397.30665 594.4254,397.03895 C 587.23462,446.53247 601.52326,438.48859 578.65618,438.56596 C 573.57926,438.58649 568.48396,438.53028 563.42485,439.0048 L 570.0543,397.14814 z" />
    <path
       style="opacity:1;fill:#ff9955;fill-opacity:1;stroke:none;stroke-width:4;stroke-linejoin:miter;stroke-miterlimit:4;stroke-dasharray:none;stroke-dashoffset:0;stroke-opacity:1"
       id="path3244"
       d="M 295.092,793.86628 C 300.263,792.95546 305.48707,792.48672 310.72342,792.17439 C 318.55831,791.87631 326.12873,794.64945 333.80144,796.00469 C 340.6017,796.99908 347.39021,798.33165 353.91974,800.49776 C 358.21266,802.40945 362.34811,804.4608 365.80081,807.68209 C 369.62621,811.05325 370.91339,815.64688 371.62655,820.50622 C 365.70705,855.88126 374.13944,862.48714 350.1686,871.24133 C 342.93953,873.95906 335.24228,874.72052 327.60296,875.31782 C 322.07845,875.94881 316.44342,875.2308 310.95235,876.13606 C 318.25018,888.87252 311.27727,877.01109 319.87861,835.65811 C 319.93046,835.40879 319.61932,836.15194 319.68658,836.39756 C 319.85731,837.0211 320.21681,837.58086 320.55581,838.13135 C 321.34551,839.41369 322.8636,841.32626 323.78489,842.52468 C 328.87381,849.08517 336.63546,852.30943 343.59672,856.41031 C 359.5688,865.70149 363.82378,901.13073 339.60919,906.54974 C 333.36729,907.4745 327.02045,907.07601 320.73288,907.04094 C 313.94972,907.04166 307.16672,907.0959 300.38364,907.12486 C 294.57011,907.1477 288.75654,907.15135 282.94298,907.15374 C 276.4645,906.96827 269.98193,907.054 263.50192,907.09228 C 240.60295,907.07212 252.12593,915.76898 260.74584,865.61414 C 261.4921,865.74742 262.23835,865.88071 262.98461,866.01399 L 256.44841,907.28179 C 255.65989,907.41506 254.87138,907.54834 254.08286,907.68162 C 261.2133,858.47097 246.98949,866.12706 269.97803,866.20282 C 276.46496,866.24075 282.95438,866.325 289.43982,866.14168 C 295.25241,866.14732 301.06509,866.15566 306.87745,866.21385 C 313.63555,866.28836 320.39294,866.42856 327.15149,866.45217 C 332.9081,866.39203 338.9639,866.62044 344.48311,864.79813 C 354.7245,854.0861 343.97513,865.01528 337.86273,903.96325 C 337.77197,904.54161 338.98119,903.3695 339.20235,902.82745 C 339.75944,901.4621 338.24302,899.54217 337.56919,898.78125 C 336.78072,897.89087 335.81465,897.1752 334.93737,896.37217 C 328.00284,891.67556 319.75064,888.82247 313.75895,882.85213 C 313.09914,882.14467 312.43932,881.4372 311.7795,880.72974 C 311.29741,880.07938 310.88273,879.37315 310.33321,878.77867 C 309.65743,878.04759 307.5455,876.54338 307.55703,876.4754 C 314.76426,833.98945 301.7261,835.04405 317.57855,834.40734 C 322.89003,835.3936 328.39646,834.55097 333.75487,834.58955 C 341.01239,834.11706 348.26552,833.24179 355.01651,830.34262 C 357.74886,829.0802 360.79383,827.93893 362.93083,825.70728 C 363.51596,825.09623 364.0202,824.39671 364.4154,823.64867 C 364.73485,823.04402 365.15703,821.0222 365.04925,821.6975 C 362.99658,834.55863 360.73442,847.38545 358.577,860.22942 C 359.47006,856.2411 358.65968,851.7709 356.16901,848.46747 C 355.24897,847.61739 354.51076,846.58318 353.58779,845.73627 C 351.42773,843.75421 348.22006,843.28523 346.0142,841.32479 C 339.76448,838.94276 333.28342,837.30748 326.66538,836.26478 C 319.36412,834.84592 312.00147,832.65191 304.50795,833.19287 C 299.54755,833.56354 294.45017,833.93632 289.81572,835.88885 L 295.092,793.86628 z" />
    <path
       style="opacity:1;fill:#ff9955;fill-opacity:1;stroke:none;stroke-width:4;stroke-linejoin:miter;stroke-miterlimit:4;stroke-dasharray:none;stroke-dashoffset:0;stroke-opacity:1"
       id="path3246"
       d="M 432.91144,782.86242 C 437.92349,783.34132 442.97334,783.28089 448.00376,783.30126 C 454.0151,783.15989 459.93,783.19663 465.86717,784.17 C 470.56214,785.33734 475.09281,787.35737 478.78235,790.5113 C 465.02476,881.30676 486.15016,825.47241 470.14226,833.95559 C 467.32077,835.4508 465.72923,836.50416 462.47049,837.35314 C 458.43512,839.93326 453.52549,839.8864 449.17809,841.48267 C 445.00517,843.43401 439.92601,842.51009 436.30026,845.4788 C 436.13041,845.90391 435.70248,846.30494 435.79073,846.75414 C 435.90495,847.33552 436.71834,848.77474 436.83359,848.19356 C 439.47049,834.89677 440.97509,821.39584 443.46218,808.07022 C 443.55832,807.5551 443.80758,809.06368 444.05008,809.52821 C 444.7702,810.90768 444.98079,810.9016 446.14398,811.93554 C 449.94203,815.37503 454.52167,816.39204 459.44912,817.07247 C 464.50096,817.80973 469.23967,819.53631 474.01101,821.24733 C 491.60688,826.97505 486.69052,862.12392 469.77049,868.34891 C 461.80577,869.70197 453.63697,869.37384 445.58109,869.4406 C 436.04395,869.56465 426.50815,869.56442 416.97129,869.74521 C 410.91606,869.22338 405.16944,870.87099 399.2739,871.8569 C 395.14738,873.51739 390.92335,874.6126 386.79892,876.2427 L 391.80348,834.71102 C 396.13021,833.04854 400.64487,831.84515 405.10208,830.60076 C 411.17157,829.56414 417.19263,828.69435 423.38006,829.32511 C 432.86395,829.53765 442.34591,829.59742 451.83187,829.45898 C 458.97758,829.23257 467.29741,829.7978 473.75146,826.35852 C 479.21251,812.60321 472.56115,829.16791 466.89887,865.63484 C 466.65021,867.23631 469.43628,864.53487 467.75375,863.2188 C 467.25171,862.8261 466.6442,862.59114 466.08943,862.27731 C 461.5458,860.72542 457.1941,858.76353 452.41555,857.93691 C 447.03614,857.2311 441.33893,856.53427 437.08908,852.84904 C 421.37575,843.71545 424.88018,812.28451 440.75098,803.84111 C 445.19725,802.07853 450.02388,801.75309 454.5101,800.05136 C 459.0198,798.95173 463.48235,797.88547 467.70204,795.87315 C 469.53186,795.1192 470.94676,794.39282 472.40038,793.0341 C 472.7996,792.66094 473.34325,792.37702 473.56022,791.87547 C 473.70273,791.54604 473.41427,790.4629 473.35923,790.81759 C 471.27201,804.26684 469.42268,817.75193 467.45441,831.21911 C 467.61893,830.88175 468.04829,830.56873 467.94799,830.20704 C 467.37062,828.12517 460.5246,825.77475 458.71459,825.03856 C 453.00392,824.11083 447.29089,824.18654 441.51332,824.28025 C 436.4364,824.30078 431.34111,824.24456 426.282,824.71908 L 432.91144,782.86242 z" />
    <path
       style="opacity:1;fill:#ff9955;fill-opacity:1;stroke:none;stroke-width:4;stroke-linejoin:miter;stroke-miterlimit:4;stroke-dasharray:none;stroke-dashoffset:0;stroke-opacity:1"
       id="path3248"
       d="M 190.0543,277.14814 C 195.87069,277.59823 201.71656,277.71519 207.54851,277.88533 C 220.52566,278.46053 233.5113,278.61931 246.49924,278.56708 C 259.77029,278.60782 273.04258,278.48163 286.31125,278.26042 C 294.6729,278.10885 303.03014,277.67635 311.39421,277.73592 C 319.06926,277.75384 326.74257,277.87036 334.41789,277.80186 C 341.39972,277.63239 348.3812,277.74135 355.36368,277.70966 C 363.13764,277.50108 370.90356,277.95397 378.67466,278.0164 C 384.8431,278.13351 391.01204,277.99148 397.17912,277.87035 L 390.77845,318.28259 C 384.6268,318.161 378.47328,318.01928 372.32026,318.13654 C 364.51677,318.19906 356.7184,318.65062 348.91211,318.44328 C 341.93936,318.41158 334.96761,318.52074 327.99553,318.35107 C 320.31325,318.28232 312.63297,318.39941 304.95096,318.41701 C 296.64221,318.47606 288.34042,318.04589 280.03414,317.89252 C 266.79787,317.67068 253.55794,317.54515 240.31927,317.58586 C 227.25936,317.53327 214.20187,317.69639 201.15259,318.26761 C 195.24272,318.43844 189.3197,318.55774 183.42485,319.0048 L 190.0543,277.14814 z" />
    <path
       style="opacity:1;fill:#ff9955;fill-opacity:1;stroke:none;stroke-width:4;stroke-linejoin:miter;stroke-miterlimit:4;stroke-dasharray:none;stroke-dashoffset:0;stroke-opacity:1"
       id="path3250"
       d="M 392.91144,305.71957 C 399.03005,306.34242 405.19343,306.35643 411.33782,306.34975 C 417.13028,307.34647 424.04724,305.24896 429.66515,306.19264 C 457.54081,322.98863 432.01751,349.57337 414.93914,354.25449 C 409.76857,355.46931 404.68963,357.01386 399.66809,358.76809 C 394.27537,360.48177 388.94561,362.38574 383.59459,364.23634 C 380.95337,365.00873 376.76632,365.86154 376.04266,369.12988 C 375.92885,369.64393 375.96642,371.22604 376.06678,370.70919 C 378.63226,357.49791 380.98505,344.24622 383.44418,331.01473 C 382.59079,333.88228 388.08053,335.52457 390.18491,336.21437 C 394.49178,338.28038 399.15299,339.08583 403.71819,340.30553 C 408.95551,341.53169 414.10528,342.798 418.49639,346.0083 C 430.99272,359.86169 417.13844,390.24839 415.28473,400.2129 C 414.91373,400.82304 414.6799,401.54165 414.17172,402.04331 C 413.98565,402.22699 409.78064,404.90882 409.59195,405.03402 C 406.91393,406.811 404.36947,408.72501 401.65184,410.44563 C 396.29403,413.00011 390.67851,415.2218 384.98411,416.94511 C 380.17531,419.07765 378.59255,420.23007 377.60461,425.45832 C 380.01628,412.52275 382.42795,399.58719 384.83963,386.65162 C 384.73433,388.13679 384.20512,390.15926 385.26233,391.48735 C 386.15053,392.60314 388.50297,394.06928 389.52208,394.77288 C 398.55321,399.2799 408.19223,402.29596 418.04151,404.37671 C 424.48202,405.66903 430.67658,407.67589 436.85757,409.83617 C 441.61834,410.98971 445.86173,412.79294 449.04208,416.58231 C 450.45413,419.2294 452.04311,422.52149 451.47591,425.64795 C 443.69546,468.53445 452.88641,457.48445 441.73406,470.1359 C 437.26363,474.20356 431.87078,477.23565 427.2782,481.22966 C 422.55378,485.18433 416.76965,487.28231 411.2148,489.78532 L 415.97295,448.53848 C 421.29467,446.15436 426.59499,443.89101 430.99135,439.92723 C 435.64395,436.50424 440.91957,433.33064 444.06548,428.38372 C 449.54192,414.11655 444.66941,426.43302 438.07854,465.28985 C 437.91419,466.25878 439.99759,457.02972 438.34312,457.0927 C 436.79668,453.00091 432.91882,451.82411 428.92636,450.77176 C 422.88436,448.57138 417.04527,445.88365 410.79842,444.21873 C 400.68616,441.67746 390.75819,438.53403 380.88057,435.20274 C 378.42127,433.95075 375.01536,432.56372 373.06119,430.51636 C 362.15303,419.08806 412.6297,367.43703 379.11315,383.66109 C 381.59926,379.24759 385.4521,377.05977 390.24061,375.60388 C 395.51448,373.85976 400.96447,372.30362 405.70397,369.34217 C 409.93709,366.36406 415.14331,363.55194 416.71439,358.33053 C 414.5207,371.28474 412.27806,384.23075 410.13334,397.19316 C 410.0092,397.94347 410.59977,395.73008 410.65191,394.97136 C 410.84041,392.22853 410.003,389.23278 408.94192,386.75003 C 405.82745,382.98992 400.66109,382.40655 396.17378,381.23851 C 391.54752,380.09912 386.74529,379.5583 382.46404,377.28444 C 378.09105,376.10504 373.94591,374.14169 370.50448,371.17835 C 375.64037,341.2905 366.96232,329.54525 388.69229,323.07315 C 394.04449,321.1531 399.4141,319.27844 404.81038,317.49014 C 409.85798,315.77949 414.98809,314.3109 420.13524,312.93239 C 422.09916,312.14328 424.27222,311.38445 425.5452,309.54499 C 425.85853,309.09223 426.26951,307.47875 426.1877,308.02324 C 420.07299,348.71595 406.39163,350.50742 421.71176,347.78668 C 419.73593,345.53645 408.01728,347.48287 404.90799,346.94604 C 398.69687,346.93929 392.46816,346.96075 386.282,347.57623 L 392.91144,305.71957 z" />
    <path
       style="opacity:1;fill:#ffffff;fill-opacity:1;stroke:none;stroke-width:4;stroke-linejoin:miter;stroke-miterlimit:4;stroke-dasharray:none;stroke-dashoffset:0;stroke-opacity:1"
       id="path3252"
       d="M 230.0543,494.291 C 238.44387,495.26406 246.9118,495.27639 255.34662,495.36776 C 265.42948,495.39864 275.51403,495.23218 285.59511,495.02896 C 292.26823,494.87096 298.94249,494.78116 305.61724,494.73698 C 311.87426,494.66652 318.13009,494.76098 324.38539,494.89953 C 329.17612,494.94734 333.96698,494.88599 338.75743,494.83796 L 332.30125,535.6007 C 327.5173,535.55257 322.73294,535.49127 317.94871,535.53912 C 311.67624,535.67709 305.40324,535.7722 299.12907,535.70167 C 292.48514,535.6576 285.84171,535.56811 279.19943,535.40969 C 269.15414,535.20589 259.10535,535.03975 249.05826,535.07089 C 240.50939,535.16318 231.93013,535.18657 223.42485,536.14766 L 230.0543,494.291 z" />
    <path
       style="opacity:1;fill:#ffffff;fill-opacity:1;stroke:none;stroke-width:4;stroke-linejoin:miter;stroke-miterlimit:4;stroke-dasharray:none;stroke-dashoffset:0;stroke-opacity:1"
       id="path3254"
       d="M 187.19716,305.71957 C 191.66717,306.14946 196.02111,307.40634 200.19452,309.0244 C 204.63758,310.42432 209.13484,311.60786 213.60617,312.93971 C 218.04777,314.19763 222.49048,315.55574 226.86339,317.04719 C 230.75438,318.51737 234.82197,319.7755 238.25064,322.1833 C 270.84452,353.56019 235.9699,365.48249 219.71271,368.52164 C 212.64206,369.60608 205.65507,371.10355 198.55381,372.00133 C 192.74874,372.57339 187.01399,372.51438 181.32964,373.84995 C 164.29926,377.23732 171.92531,396.2263 184.99504,334.61974 C 185.03784,334.41802 185.02932,335.06282 185.17077,335.21286 C 185.42816,335.4859 185.80482,335.61432 186.12185,335.81504 C 190.97855,337.02619 195.73664,338.51112 200.45654,340.1992 C 206.20682,342.12581 211.93233,344.12297 217.6557,346.13306 C 222.63756,347.64691 227.52718,349.51827 232.22602,351.76279 C 236.27232,353.92194 239.19261,357.4673 241.33402,361.44852 C 244.8253,377.22373 242.68882,400.69205 229.38396,412.20093 C 224.91589,415.02147 219.59399,415.34364 214.46103,415.64264 C 208.74827,415.85681 203.02965,415.79572 197.31417,415.77344 C 191.90864,415.92887 186.47924,415.34103 181.09896,415.9937 C 166.79936,420.4631 180.31257,416.47851 188.15941,374.32233 L 181.54696,416.11842 C 187.05863,373.9887 173.76905,369.46797 187.68719,374.45613 C 193.03447,375.15546 198.44657,374.54663 203.82295,374.76958 C 209.43614,374.78614 215.05686,374.85027 220.66226,374.50283 C 224.89938,374.1101 229.5094,373.78603 232.4958,370.37174 C 233.53926,368.85657 234.58411,367.52806 235.11044,365.74035 C 235.2781,365.17088 235.62921,363.42463 235.53467,364.0107 C 230.71238,393.90568 226.65201,416.94849 229.3313,401.72021 C 229.57496,397.95047 226.50668,395.00825 223.83197,392.71102 C 219.27814,390.47447 214.66598,388.28588 209.79566,386.81504 C 204.07526,384.80591 198.35691,382.79218 192.59091,380.92369 C 187.76315,379.26584 182.92288,377.84229 177.85618,377.12356 C 177.85404,377.12286 174.15684,376.001 174.19765,375.69479 C 180.65536,327.24888 168.32173,336.30573 187.0178,332.53735 C 192.80807,331.50567 198.68145,331.80017 204.51928,331.15633 C 211.52448,330.34645 218.40273,328.92559 225.31537,327.56431 C 228.00859,326.90561 230.92217,326.37257 233.18921,324.63856 C 233.62656,324.30404 234.37398,322.86597 234.29425,323.41078 C 228.45725,363.29605 217.52044,373.51163 228.23509,363.2033 C 227.12782,359.89278 221.5299,359.52133 218.84367,358.09163 C 214.70453,356.36122 210.16079,355.3994 205.91058,353.99252 C 201.29814,352.68868 196.76617,351.23665 192.12592,350.03946 C 188.46016,348.603 184.57079,347.12468 180.56771,347.57623 L 187.19716,305.71957 z" />
    <path
       style="opacity:1;fill:#ffffff;fill-opacity:1;stroke:none;stroke-width:4;stroke-linejoin:miter;stroke-miterlimit:4;stroke-dasharray:none;stroke-dashoffset:0;stroke-opacity:1"
       id="path3256"
       d="M 307.19716,300.00528 C 312.2092,300.48418 317.25906,300.42375 322.28947,300.44412 C 345.03854,300.61648 333.55355,291.53234 324.90422,341.97113 C 319.45533,341.32109 313.95302,341.29878 308.47332,341.16917 C 301.10779,341.11888 293.74287,341.26984 286.37808,341.35319 C 280.29288,341.13764 278.27562,342.15527 277.36789,348.07137 C 276.00918,363.58306 277.31492,347.88023 284.0835,311.80676 C 284.18266,311.27829 284.00756,312.89015 284.10045,313.41976 C 284.41399,315.2072 285.79738,315.72557 287.26561,316.39212 C 292.24371,317.75572 297.48021,317.63591 302.60089,317.67106 C 307.66877,318.28272 312.64173,319.38581 317.7255,319.91121 C 323.22063,321.20617 328.73645,322.25652 334.35585,322.81195 C 338.02781,322.39728 343.15129,324.59506 346.60086,322.72668 C 340.89017,368.35496 351.36489,365.21804 328.51162,364.27032 C 321.4133,363.83549 314.43904,363.98743 307.55132,365.84584 C 301.77091,367.04806 296.64753,369.93082 290.9749,371.46421 C 287.76946,374.06987 282.85319,373.35485 279.67285,375.74895 C 291.5511,385.10342 280.81168,377.10148 287.87801,335.4072 C 287.90557,335.24456 287.43526,335.63229 287.53488,335.76378 C 287.86091,336.19412 288.39619,336.41808 288.85701,336.69942 C 290.38993,337.63529 290.85212,337.71972 292.57387,338.38588 C 297.68451,339.98271 303.06991,340.18579 308.37971,340.37217 C 314.10822,340.50563 319.83897,340.47012 325.56854,340.457 C 328.43716,340.35048 331.25436,340.43959 334.1033,340.75296 L 327.03754,381.82024 C 324.38384,381.38535 321.77208,381.38372 319.08135,381.465 C 313.30056,381.47334 307.51849,381.49958 301.73907,381.35081 C 296.01961,381.14257 290.2571,380.85608 284.69481,379.3914 C 284.09142,379.21011 276.39695,376.50152 276.41047,376.3735 C 280.88667,333.98092 269.26964,337.14571 284.82642,333.65314 C 288.8794,333.22252 292.50948,331.44213 296.33326,330.15598 C 301.90467,328.43611 307.2699,326.07166 313.04139,325.00744 C 320.2865,323.47541 327.61279,323.30929 335.00097,323.32958 C 357.81712,322.44962 348.82535,318.63844 339.69996,364.89554 C 338.41511,363.27243 329.67991,364.48612 327.4505,363.75778 C 321.83801,363.18731 316.31451,362.1801 310.80629,360.96896 C 305.84579,360.49755 300.97063,359.61563 296.08133,358.67565 C 290.45399,358.64708 284.75129,358.71557 279.23688,357.43788 C 258.81939,350.73732 272.73052,323.3947 278.89549,306.27722 C 282.06877,301.06902 286.98189,300.08671 292.84637,300.51403 C 300.19173,300.59746 307.53722,300.74862 314.88331,300.69805 C 320.44789,300.56742 326.03322,300.5384 331.56826,299.89609 C 324.37747,349.38961 338.66612,341.34573 315.79904,341.4231 C 310.72211,341.44364 305.62682,341.38742 300.56771,341.86194 L 307.19716,300.00528 z" />
    <path
       style="opacity:1;fill:#ff9955;fill-opacity:1;stroke:none;stroke-width:4;stroke-linejoin:miter;stroke-miterlimit:4;stroke-dasharray:none;stroke-dashoffset:0;stroke-opacity:1"
       id="path3262"
       d="M 230.0543,494.291 C 234.41883,492.85033 239.07256,492.78034 243.58608,492.1336 C 255.38537,490.71645 267.06449,488.51466 278.84585,486.91718 C 292.49344,485.33672 306.21927,484.68302 319.9319,483.96848 C 327.54428,483.55559 335.16532,483.36992 342.78763,483.29534 C 345.68588,483.27276 348.58423,483.27169 351.48255,483.26951 L 344.97731,524.28309 C 342.08339,524.26806 339.18943,524.25318 336.29572,524.21213 C 328.77087,524.09739 321.24841,523.8768 313.72367,523.75641 C 300.19911,523.66586 286.64252,524.06303 273.23448,525.98328 C 261.3467,527.8247 249.63228,530.54056 237.84862,532.94284 C 233.01646,533.93824 228.18002,534.84703 223.42485,536.14766 L 230.0543,494.291 z" />
    <path
       style="opacity:1;fill:#ff9955;fill-opacity:1;stroke:none;stroke-width:4;stroke-linejoin:miter;stroke-miterlimit:4;stroke-dasharray:none;stroke-dashoffset:0;stroke-opacity:1"
       id="path3264"
       d="M 167.19716,385.71957 C 171.66879,386.3575 176.162,387.31597 180.51516,388.54248 C 183.49743,389.52956 182.01353,389.05708 184.96632,389.96162 L 177.24142,430.99329 C 174.17468,430.10038 175.67149,430.57449 172.74882,429.57785 C 168.94057,428.26938 164.57717,427.46305 160.56771,427.57623 L 167.19716,385.71957 z" />
    <path
       style="opacity:1;fill:#ff9955;fill-opacity:1;stroke:none;stroke-width:4;stroke-linejoin:miter;stroke-miterlimit:4;stroke-dasharray:none;stroke-dashoffset:0;stroke-opacity:1"
       id="path3266"
       d="M 156.43769,323.33437 C 160.05934,324.49509 163.65246,325.77108 167.27595,326.94644 L 159.51087,367.90148 C 155.84343,366.79531 152.32915,365.24928 148.47004,364.93067 L 156.43769,323.33437 z" />
    <path
       style="opacity:1;fill:#ff9955;fill-opacity:1;stroke:none;stroke-width:4;stroke-linejoin:miter;stroke-miterlimit:4;stroke-dasharray:none;stroke-dashoffset:0;stroke-opacity:1"
       id="path3268"
       d="M 173.24072,382.94123 C 179.66687,383.60439 186.13979,383.46936 192.59002,383.42713 C 198.81463,383.36755 205.03933,383.32438 211.26418,383.30166 C 216.99937,383.28455 222.73459,383.28432 228.4698,383.28367 C 232.27269,383.28364 230.37115,383.2836 234.1744,383.28378 L 227.67842,424.29773 C 223.87514,424.2979 225.77669,424.29787 221.9738,424.29784 C 216.24049,424.29719 210.50716,424.29696 204.77387,424.27985 C 198.56227,424.25715 192.35082,424.21401 186.13946,424.15438 C 179.63768,424.11172 173.11462,423.98373 166.63624,424.64028 L 173.24072,382.94123 z" />
    <path
       style="opacity:1;fill:#ff9955;fill-opacity:1;stroke:none;stroke-width:4;stroke-linejoin:miter;stroke-miterlimit:4;stroke-dasharray:none;stroke-dashoffset:0;stroke-opacity:1"
       id="path3270"
       d="M 138.62573,337.14814 C 143.63777,337.62704 148.68763,337.5666 153.71804,337.58698 C 159.56262,337.59662 165.4072,337.58414 171.25178,337.57818 C 174.12482,337.57532 176.99786,337.57398 179.8709,337.57265 L 173.37593,378.58028 C 170.50347,378.57896 167.63101,378.57762 164.75856,378.57475 C 158.91491,378.5688 153.07125,378.55631 147.22761,378.56596 C 142.15068,378.58649 137.05539,378.53028 131.99628,379.0048 L 138.62573,337.14814 z" />
    <path
       style="opacity:1;fill:#ff9955;fill-opacity:1;stroke:none;stroke-width:4;stroke-linejoin:miter;stroke-miterlimit:4;stroke-dasharray:none;stroke-dashoffset:0;stroke-opacity:1"
       id="path3272"
       d="M 492.91144,445.71957 C 498.8583,446.20301 504.87873,446.73211 510.80463,445.90195 C 517.46628,444.78671 524.02395,442.90189 530.43606,440.74117 C 536.28862,438.73147 542.041,436.69679 548.1554,435.62226 C 553.92274,434.77579 559.76284,434.72469 565.57946,434.67554 C 571.29876,434.65708 577.0181,434.6842 582.73739,434.69704 C 587.49824,434.70718 592.25909,434.71005 597.01995,434.71217 L 590.52237,475.72367 C 585.75908,475.72127 580.99578,475.71796 576.2325,475.70747 C 570.5296,475.69455 564.82661,475.66643 559.12374,475.69646 C 553.54313,475.75922 547.93486,475.82254 542.41378,476.73158 C 536.52953,477.88157 530.97161,479.98943 525.24425,481.71517 C 518.52905,483.76174 511.73269,485.817 504.75765,486.71031 C 498.60394,487.10548 492.42113,486.91929 486.282,487.57623 L 492.91144,445.71957 z" />
  </g>
  <g
     inkscape:groupmode="layer"
     id="layer4"
     inkscape:label="full pic"
     style="display:none">
    <image
       style="display:inline"
       y="4.7143512"
       x="-1002.7431"
       id="image3227"
       height="730.57141"
       sodipodi:absref="/home/joe/Desktop/100_3067.JPG"
       xlink:href="/home/joe/Desktop/100_3067.JPG"
       width="974.09521"
       transform="matrix(0,-1,1,0,0,0)" />
  </g>
  <g
     inkscape:groupmode="layer"
     id="layer2"
     inkscape:label="pic"
     style="display:inline">
    <image
       style="display:inline"
       y="4.7143512"
       x="-1002.7431"
       id="image3289"
       height="730.57141"
       sodipodi:absref="/home/joe/Desktop/100_3067.JPG"
       xlink:href="/home/joe/Desktop/100_3067.JPG"
       width="974.09521"
       transform="matrix(0,-1,1,0,0,0)"
       clip-path="url(#clipPath3291)" />
  </g>
  <g
     inkscape:label="art"
     inkscape:groupmode="layer"
     id="layer1"
     style="display:inline">
    <path
       style="fill:none;fill-opacity:0.47499999999999998;fill-rule:evenodd;stroke:#000000;stroke-width:4;stroke-linecap:butt;stroke-linejoin:miter;stroke-miterlimit:4;stroke-dasharray:none;stroke-opacity:1"
       d="M 278.67955,327.19521 C 278.67955,327.19521 268.57802,365.58101 286.76077,377.70284 C 304.94351,389.82467 343.32931,377.70284 347.36992,363.5607 C 351.41053,349.41857 357.47145,317.09368 339.2887,306.99216 C 321.10595,296.89063 282.72016,304.97185 278.67955,327.19521 z"
       id="path3170" />
    <path
       style="fill:none;fill-opacity:0.47499999999999998;fill-rule:evenodd;stroke:#000000;stroke-width:4;stroke-linecap:butt;stroke-linejoin:miter;stroke-miterlimit:4;stroke-dasharray:none;stroke-opacity:1"
       d="M 177.07257,327.66439 C 164.95074,380.19232 154.84921,376.15171 185.15379,398.37507 C 215.45836,420.59842 243.74264,398.37507 249.80355,380.19232 C 255.86447,362.00958 245.76294,335.74562 237.68172,323.62379 C 219.49898,301.40042 197.27562,319.58317 177.07257,327.66439 z"
       id="path3168"
       sodipodi:nodetypes="csscc" />
    <path
       style="fill:none;fill-rule:evenodd;stroke:#000000;stroke-width:4;stroke-linecap:butt;stroke-linejoin:miter;stroke-opacity:1;stroke-miterlimit:4;stroke-dasharray:none"
       d="M 303.04576,385.6615 L 284.86302,413.94577"
       id="path3174" />
    <path
       style="fill:none;fill-rule:evenodd;stroke:#000000;stroke-width:4;stroke-linecap:butt;stroke-linejoin:miter;stroke-opacity:1;stroke-miterlimit:4;stroke-dasharray:none"
       d="M 244.45692,395.76303 L 252.53814,417.98638"
       id="path3176" />
    <path
       style="fill:#000000;fill-opacity:1;fill-rule:evenodd;stroke:#000000;stroke-width:1px;stroke-linecap:butt;stroke-linejoin:miter;stroke-opacity:1"
       d="M 266.68027,403.84425 C 266.68027,403.84425 282.3525,401.57884 282.3525,418.70067 C 282.3525,430.82251 277.47506,428.55709 268.21037,432.84281 C 257.20863,437.93206 252.53814,432.12852 252.53814,422.02699 C 252.53814,411.92547 258.59905,403.84425 266.68027,403.84425 z"
       id="path3178"
       sodipodi:nodetypes="csssc" />
    <path
       style="fill:none;fill-rule:evenodd;stroke:#000000;stroke-width:4;stroke-linecap:butt;stroke-linejoin:miter;stroke-miterlimit:4;stroke-dasharray:none;stroke-opacity:1"
       d="M 222.85714,466.6479 C 222.85714,466.6479 240,482.36218 255.71429,476.6479 C 271.42857,470.93361 337.14286,432.36218 325,437.36218 C 312.85714,442.36218 280,468.07647 266.42857,468.07647 C 252.85714,468.07647 239.28571,470.93361 229.28571,461.6479 C 220,464.50504 222.14286,468.07647 222.85714,466.6479 z"
       id="path3187"
       sodipodi:nodetypes="cssscc" />
    <path
       style="fill:#000000;fill-opacity:1;fill-rule:evenodd;stroke:#000000;stroke-width:1px;stroke-linecap:butt;stroke-linejoin:miter;stroke-opacity:1;display:inline"
       d="M 203.57143,350.93361 C 195.71429,363.07647 202.85715,366.64789 211.42857,365.21932 C 220,363.79075 222.85714,358.07646 219.28571,352.36218 C 215.71429,346.64789 202.85715,348.79076 203.57143,350.93361 z"
       id="path3191"
       sodipodi:nodetypes="cssc" />
    <path
       style="fill:#000000;fill-opacity:1;fill-rule:evenodd;stroke:#000000;stroke-width:1;stroke-linecap:butt;stroke-linejoin:miter;stroke-opacity:1;display:inline;stroke-miterlimit:4;stroke-dasharray:none"
       d="M 315,335.93361 C 325.71429,337.36218 329.28571,344.50504 327.85714,348.79075 C 326.42857,353.07647 316.42857,360.93361 312.85714,358.79075 C 309.28571,356.6479 297.14286,344.50504 315,335.93361 z"
       id="path3193" />
    <path
       style="fill:none;fill-rule:evenodd;stroke:#000000;stroke-width:6;stroke-linecap:butt;stroke-linejoin:miter;stroke-miterlimit:4;stroke-dasharray:none;stroke-opacity:1;display:inline"
       d="M 163.57143,333.79075 C 163.57143,333.79075 148.57143,360.21932 150.71429,390.21932 C 152.85714,420.21932 162.85714,471.6479 187.14286,492.36218 C 211.42857,513.07647 217.85714,519.50504 217.85714,519.50504"
       id="path3189" />
    <path
       style="fill:none;fill-rule:evenodd;stroke:#000000;stroke-width:6;stroke-linecap:butt;stroke-linejoin:miter;stroke-miterlimit:4;stroke-dasharray:none;stroke-opacity:1;display:inline"
       d="M 180,527.36218 L 130.71429,523.07647 C 130.71429,523.07647 117.85714,489.50504 101.42857,493.79075 C 85,498.07647 85.714286,519.50504 89.285714,523.79075 C 92.857143,528.07647 103.57143,532.36218 103.57143,532.36218 C 103.57143,532.36218 85,538.07647 76.428572,556.6479 C 67.857143,575.21932 90,570.93361 92.857143,571.6479 C 95.714286,572.36218 101.42857,573.79075 110.71429,564.50504 C 120,555.21932 82.857143,571.6479 89.285714,583.79075 C 95.714286,595.93361 112.14286,603.07647 120,598.07647 C 127.85714,593.07647 126.42857,590.21932 126.42857,590.21932 L 125,563.79075 L 180,555.21932"
       id="path3195" />
    <path
       style="fill:none;fill-rule:evenodd;stroke:#000000;stroke-width:6;stroke-linecap:butt;stroke-linejoin:miter;stroke-miterlimit:4;stroke-dasharray:none;stroke-opacity:1"
       d="M 478.57143,462.36218 C 478.57143,462.36218 540,433.79075 547.14286,436.6479 C 554.28571,439.50504 567.14286,382.36218 577.14286,390.93361 C 587.14286,399.50504 585.71429,420.93361 585.71429,420.93361 C 585.71429,420.93361 607.14286,413.79075 611.42857,422.36218 C 615.71429,430.93361 588.57143,445.21933 588.57143,445.21933 C 588.57143,445.21933 614.28571,460.93361 605.71429,470.93361 C 597.14286,480.93361 585.71429,466.6479 585.71429,466.6479 C 585.71429,466.6479 597.14286,496.6479 585.71429,498.07647 C 574.28571,499.50504 550,485.21933 548.57143,472.36218 C 535.71429,473.79075 488.57143,488.07647 488.57143,488.07647"
       id="path3204"
       sodipodi:nodetypes="csscscscscc" />
    <path
       style="fill:none;fill-rule:evenodd;stroke:#000000;stroke-width:6;stroke-linecap:butt;stroke-linejoin:miter;stroke-miterlimit:4;stroke-dasharray:none;stroke-opacity:1"
       d="M 300,809.50504 C 300,809.50504 305.71429,855.21933 298.57143,860.93361 C 291.42857,866.6479 272.85714,860.93361 262.85714,866.6479 C 252.85714,872.36218 237.14286,885.21933 252.85714,893.79075 C 268.57143,902.36218 357.14286,888.07647 357.14286,888.07647 L 345.71429,812.36218"
       id="path3206" />
    <path
       style="fill:none;fill-rule:evenodd;stroke:#000000;stroke-width:6;stroke-linecap:butt;stroke-linejoin:miter;stroke-miterlimit:4;stroke-dasharray:none;stroke-opacity:1"
       d="M 470,793.79075 C 470,793.79075 497.14286,849.50504 481.42857,858.07647 C 465.71429,866.6479 402.85714,878.07647 395.71429,869.50504 C 388.57143,860.93361 371.42857,850.93361 395.71429,840.93361 C 420,830.93361 430,826.6479 430,826.6479 L 425.71429,802.36218"
       id="path3208" />
  </g>
  <g
     inkscape:groupmode="layer"
     id="layer3"
     inkscape:label="fur"
     style="display:inline">
    <path
       style="fill:none;fill-rule:evenodd;stroke:#000000;stroke-width:4;stroke-linecap:butt;stroke-linejoin:miter;stroke-miterlimit:4;stroke-dasharray:none;stroke-opacity:1;display:inline"
       d="M 200.0102,280.60564 C 161.62441,294.74777 143.44166,341.21479 143.44166,341.21479 C 143.44166,341.21479 151.52288,248.28076 173.74624,234.13862 C 195.96959,219.99649 161.62441,232.11832 161.62441,232.11832 C 161.62441,232.11832 183.84776,191.71221 208.09142,191.71221 C 232.33509,191.71221 210.11173,213.93557 210.11173,213.93557 C 210.11173,213.93557 264.65997,169.48886 282.84271,177.57008 C 301.02546,185.6513 270.72088,203.83404 270.72088,203.83404 C 270.72088,203.83404 313.14729,167.46855 323.24881,177.57008 C 333.35034,187.6716 319.2082,195.75282 319.2082,195.75282 C 319.2082,195.75282 375.77674,161.40764 391.93919,207.87465 C 428.30468,195.75282 448.18009,205.58629 470.73109,224.0371 C 492.95444,242.21984 537.40115,274.54472 537.40115,321.01174 C 541.44176,343.2351 519.21841,310.91021 519.21841,310.91021 L 571.74634,407.88486 L 549.52298,403.84425 L 598.01031,583.6514 L 575.78695,573.54988 C 575.78695,573.54988 610.13213,630.11842 583.86817,658.40269 C 533.36054,652.34177 547.50268,658.40269 547.50268,658.40269 C 547.50268,658.40269 600.03061,698.80879 571.74634,710.93062 C 543.46207,723.05245 519.21841,698.80879 519.21841,698.80879 C 519.21841,698.80879 565.68543,779.621 543.46207,771.53978 C 521.23871,763.45855 511.13719,751.33672 511.13719,751.33672 C 511.13719,751.33672 523.25902,795.78344 507.09658,793.76313 C 490.93414,791.74283 444.46712,761.43825 444.46712,761.43825 C 444.46712,761.43825 436.3859,795.78344 444.46712,807.90527 C 452.54834,820.0271 410.12193,777.60069 410.12193,777.60069 C 410.12193,777.60069 359.61431,811.94588 363.65492,830.12862 C 367.69553,848.31137 349.51278,793.76313 349.51278,793.76313 C 349.51278,793.76313 323.24881,838.20984 311.12698,820.0271 C 299.00515,801.84435 284.86302,759.41794 284.86302,759.41794 C 284.86302,759.41794 224.25386,787.70222 222.23356,805.88496 C 220.21325,824.06771 218.19295,755.37733 218.19295,755.37733 C 218.19295,755.37733 189.90868,775.58039 193.94929,759.41794 C 197.9899,743.2555 220.21325,684.66666 220.21325,684.66666 C 220.21325,684.66666 177.78685,696.78849 185.86807,684.66666 C 193.94929,672.54483 208.09142,613.95598 208.09142,613.95598 L 187.88837,620.01689 L 197.9899,535.16408 L 220.21325,575.57018 L 232.33509,521.02194 L 248.49753,553.34683 L 280.82241,502.8392 L 303.04576,541.22499 C 303.04576,541.22499 327.28942,512.94072 331.33003,500.81889 C 335.37064,488.69706 359.61431,533.14377 359.61431,533.14377 L 369.71583,482.63615 L 408.10163,494.75798 L 404.06102,464.4534 L 436.3859,456.37218 L 416.18285,436.16913 L 434.36559,409.90516 L 402.04071,393.74272 L 448.50773,357.37723 L 400.02041,351.31632 L 420.22346,312.93052 L 381.83766,312.93052 L 395.9798,262.42289 L 359.61431,288.68686 L 355.5737,266.4635 L 303.04576,298.78838 L 294.96454,272.52442 L 252.53814,304.8493 L 242.43661,274.54472 L 214.15234,312.93052 L 200.0102,280.60564 z"
       id="path3224"
       sodipodi:nodetypes="ccscscscsccsccccccccscscscscscscscscsccccccccsccccccccccccccccccccc"
       mask="none" />
  </g>
</svg>
