# Exported from Wings 3D 0.99.03
mtllib box.mtl
o cube1
#8 vertices, 6 faces
v -1.00000000 4.4444444e-3 1.00000000
v -1.00000000 2.00444444 1.00000000
v 1.00000000 2.00444444 1.00000000
v 1.00000000 4.4444444e-3 1.00000000
v -1.00000000 4.4444444e-3 -1.00000000
v -1.00000000 2.00444444 -1.00000000
v 1.00000000 2.00444444 -1.00000000
v 1.00000000 4.4444444e-3 -1.00000000
vt 0.0000000e+0 0.33333333
vt 0.0000000e+0 0.66666667
vt 2.7755576e-17 0.33333333
vt 5.5511151e-17 0.0000000e+0
vt 0.33333333 0.33333333
vt 0.33333333 0.66666667
vt 0.33333333 2.7755576e-17
vt 0.33333333 5.5511151e-17
vt 0.33333333 0.33333333
vt 0.33333333 0.33333333
vt 0.33333333 0.33333333
vt 0.33333333 0.66666667
vt 0.66666667 0.0000000e+0
vt 0.66666667 0.33333333
vt 0.66666667 0.33333333
vt 0.66666667 0.66666667
vt 0.66666667 0.66666667
vt 0.66666667 0.33333333
vt 1.00000000 0.0000000e+0
vt 1.00000000 0.33333333
vt 1.00000000 0.33333333
vt 1.00000000 0.66666667
vn -0.57735027 -0.57735027 0.57735027
vn -0.57735027 0.57735027 0.57735027
vn 0.57735027 0.57735027 0.57735027
vn 0.57735027 -0.57735027 0.57735027
vn -0.57735027 -0.57735027 -0.57735027
vn -0.57735027 0.57735027 -0.57735027
vn 0.57735027 0.57735027 -0.57735027
vn 0.57735027 -0.57735027 -0.57735027
g cube1_cube1_auv
usemtl cube1_auv
f 1/7/1 4/13/4 3/18/3 2/9/2
f 1/15/1 5/17/5 8/12/8 4/10/4
f 2/22/2 6/16/6 5/15/5 1/21/1
f 3/11/3 7/6/7 6/2/6 2/3/2
f 4/4/4 8/8/8 7/5/7 3/1/3
f 6/20/6 7/14/7 8/13/8 5/19/5
