# Exported from Wings 3D 0.99.03
mtllib head.mtl
o cube1
#70 vertices, 61 faces
v -0.57937553 -0.13940378 1.00000000
v -0.57937553 -0.34147550 0.79792828
v -0.37730381 -0.34147550 1.00000000
v -0.57937553 0.13940378 1.00000000
v -0.57937553 0.34147550 0.79792828
v -0.37730381 0.34147550 1.00000000
v 0.37730381 0.34147550 1.00000000
v 0.57937553 0.34147550 0.79792828
v 0.57937553 0.13940378 1.00000000
v 0.37730381 -0.34147550 1.00000000
v 0.57937553 -0.13940378 1.00000000
v 0.57937553 -0.34147550 0.79792828
v -0.57937553 -0.34147550 -0.79792828
v -0.37730381 -0.34147550 -1.00000000
v -0.57937553 -0.13940378 -1.00000000
v -0.57937553 0.34147550 -6.8389951e-3
v -0.57937553 0.13940378 -1.00000000
v -0.37730381 0.34147550 -0.43821196
v 0.57937553 0.34147550 -6.8389951e-3
v 0.37730381 0.34147550 -0.43821196
v 0.57937553 0.13940378 -1.00000000
v 0.57937553 -0.34147550 -0.79792828
v 0.57937553 -0.13940378 -1.00000000
v 0.37730381 -0.34147550 -1.00000000
v -0.57937553 -0.13940378 -1.51019526
v -0.57937553 0.30134778 -1.51019526
v -0.37730381 0.50341950 -1.51019526
v 0.37730381 0.50341950 -1.51019526
v 0.57937553 0.30134778 -1.51019526
v 0.57937553 -0.13940378 -1.51019526
v 0.37730381 -0.34147550 -1.51019526
v -0.37730381 -0.34147550 -1.51019526
v 0.57937553 0.0000000e+0 -1.00000000
v -0.57937553 0.0000000e+0 -1.00000000
v 0.57456622 0.45501721 -0.29167615
v 0.57456622 0.45501721 -0.48327041
v 0.57456622 0.26342295 -0.29167615
v 0.57456622 0.26342295 -0.48327041
v -2.1655384e-4 0.45501721 -0.29167615
v -2.1655384e-4 0.45501721 -0.48327041
v -2.1655384e-4 0.26342295 -0.29167615
v -2.1655384e-4 0.34282098 -0.48327041
v 0.38297196 0.64661147 -0.29167615
v 0.38297196 0.64661147 -0.48327041
v 0.38297196 0.45501721 -0.10008189
v 0.38297196 0.45501721 -0.67486466
v 0.38297196 0.26342295 -0.10008189
v 0.38297196 0.37291540 -0.67486466
v 0.19137770 0.64661147 -0.29167615
v 0.19137770 0.64661147 -0.48327041
v 0.19137770 0.45501721 -0.10008189
v 0.19137770 0.45501721 -0.67486466
v 0.19137770 0.26342295 -0.10008189
v 0.19137770 0.37291540 -0.67486466
v -0.57499932 0.45501721 -0.29167615
v -0.57499932 0.45501721 -0.48327041
v -0.57499932 0.26342295 -0.29167615
v -0.57499932 0.26342295 -0.48327041
v -0.38340507 0.64661147 -0.29167615
v -0.38340507 0.64661147 -0.48327041
v -0.38340507 0.45501721 -0.10008189
v -0.38340507 0.45501721 -0.67486466
v -0.38340507 0.26342295 -0.10008189
v -0.38340507 0.37291540 -0.67486466
v -0.19181081 0.64661147 -0.29167615
v -0.19181081 0.64661147 -0.48327041
v -0.19181081 0.45501721 -0.10008189
v -0.19181081 0.45501721 -0.67486466
v -0.19181081 0.26342295 -0.10008189
v -0.19181081 0.37291540 -0.67486466
vt 0.0000000e+0 0.42376183
vt 0.0000000e+0 0.92780466
vt 1.6653345e-15 3.8886237e-2
vt 2.7200464e-15 0.34598936
vt 2.8449465e-15 0.55518742
vt 4.9404925e-15 0.47741494
vt 7.7993167e-15 0.71005506
vt 3.1374751e-3 0.84304545
vt 3.8886237e-2 0.51630118
vt 3.8886237e-2 4.4408921e-16
vt 3.8886237e-2 0.79306752
vt 3.8886237e-2 0.38487560
vt 8.8992470e-2 0.79306752
vt 9.9266451e-2 0.90029365
vt 0.10025879 0.87348546
vt 0.10125113 0.84667726
vt 0.14154920 0.80925608
vt 0.18410127 0.0000000e+0
vt 0.18410127 0.38487560
vt 0.18410127 0.51630118
vt 0.18410127 0.79306752
vt 0.19980858 0.96814032
vt 0.22298750 0.47741494
vt 0.22298750 0.55518742
vt 0.22298750 0.34598936
vt 0.22298750 3.8886237e-2
vt 0.22298750 0.71005506
vt 0.22298750 0.49902487
vt 0.22298750 0.76422746
vt 0.22298750 0.42376183
vt 0.23845401 0.39724206
vt 0.24535846 9.8098063e-2
vt 0.24772348 0.0000000e+0
vt 0.25531690 0.35296548
vt 0.25806366 0.23903356
vt 0.26051537 0.13733951
vt 0.26545350 0.69048751
vt 0.26545350 0.72735749
vt 0.28820805 0.60121052
vt 0.28881892 0.94622306
vt 0.29323364 0.39275564
vt 0.30030553 9.9422769e-2
vt 0.30267055 1.3247054e-3
vt 0.43330063 0.60470852
vt 0.43832622 0.39625364
vt 0.44358057 0.95195177
vt 0.44539811 0.10292077
vt 0.44776313 4.8227068e-3
vt 0.44844214 0.82061613
vt 0.47811637 0.35833690
vt 0.48086313 0.24440498
vt 0.48331485 0.14271092
vt 0.48387864 0.91453058
vt 0.48586332 0.86091419
vt 0.49289337 0.40283859
vt 0.49613730 0.96814032
vt 0.50034518 0.10424548
vt 0.50205187 0.80835747
vt 0.50271020 6.1474123e-3
vt 0.50271020 0.57533873
vt 0.50271020 9.5617958e-15
vt 0.50271020 0.50532071
vt 0.50271020 0.15989229
vt 0.50271020 0.21840957
vt 0.50617961 0.30018361
vt 0.51452046 0.52455184
vt 0.51694355 5.3119587e-2
vt 0.51694355 0.10677270
vt 0.52287158 0.48864009
vt 0.53726339 0.17735293
vt 0.53862195 0.58368985
vt 0.54815156 0.33361643
vt 0.55043222 0.53290296
vt 0.55520472 0.44262570
vt 0.55582979 0.14565894
vt 0.55582979 1.4233350e-2
vt 0.55878333 0.49699120
vt 0.57059359 0.44620431
vt 0.58105773 0.63141186
vt 0.58850982 0.56852439
vt 0.58940884 0.59550011
vt 0.60121911 0.54471322
vt 0.60867120 0.48182575
vt 0.60957022 0.50880147
vt 0.61287345 0.17085378
vt 0.61696948 0.63976298
vt 0.62138048 0.45801458
vt 0.62416483 0.32638757
vt 0.62495910 0.44262570
vt 0.62532060 0.60385122
vt 0.63713086 0.55306434
vt 0.63891810 0.39576942
vt 0.64548198 0.51715258
vt 0.65229632 0.60295220
vt 0.65392611 0.20540914
vt 0.65729224 0.46636569
vt 0.66042686 0.28101507
vt 0.66087085 0.45097682
vt 0.66251833 0.39746783
vt 0.67922125 0.62814036
vt 0.68110341 0.47907498
vt 0.68791775 0.56487460
vt 0.69621987 0.47447971
vt 0.69626886 0.52896284
vt 0.70677609 0.36595905
vt 0.70859385 0.30888705
vt 0.70896103 0.33226672
vt 0.71069743 0.14565894
vt 0.71484268 0.59006275
vt 0.71692627 0.52268318
vt 0.76574454 0.63066931
vt 0.76941543 0.58610529
vt 0.78018635 0.63717821
vt 0.78339260 0.54463998
vt 0.79321545 0.49527894
vt 0.79691707 0.59216950
vt 0.79883612 0.17085378
vt 0.80827314 0.54975242
vt 0.81843595 0.50156251
vt 0.82716913 0.66812778
vt 0.83323947 0.62418193
vt 0.83386720 0.65376871
vt 0.85210238 0.60537840
vt 0.85819764 0.53482428
vt 0.86124717 0.67838691
vt 0.86293291 1.4233350e-2
vt 0.86413088 0.56409725
vt 0.86420093 0.66262116
vt 0.88267256 0.61404849
vt 0.88305330 0.50813359
vt 0.88947654 0.49022305
vt 0.89765658 0.57251968
vt 0.90059788 0.68452628
vt 0.90181915 0.10677270
vt 0.90181915 5.3119587e-2
vt 0.90181915 7.9946143e-2
vt 0.91605250 0.0000000e+0
vt 0.91651101 0.51506646
vt 0.92184886 0.49856523
vt 0.92523906 0.70400243
vt 0.93633939 0.53125255
vt 0.94937599 0.63059105
vt 0.96022489 0.59113793
vt 0.97366864 0.51884576
vt 0.97400821 0.65249446
vt 0.99476674 0.57918585
vt 1.00000000 5.3119587e-2
vt 1.00000000 0.13793685
vn -0.68455032 -0.25056281 0.68455032
vn -0.68455032 -0.68455032 0.25056281
vn -0.25056281 -0.68455032 0.68455032
vn -0.68455032 0.25056281 0.68455032
vn -0.68455032 0.68455032 0.25056281
vn -0.25056281 0.68455032 0.68455032
vn 0.25056281 0.68455032 0.68455032
vn 0.68455032 0.68455032 0.25056281
vn 0.68455032 0.25056281 0.68455032
vn 0.25056281 -0.68455032 0.68455032
vn 0.68455032 -0.25056281 0.68455032
vn 0.68455032 -0.68455032 0.25056281
vn -0.68455032 -0.68455032 -0.25056281
vn -0.35942656 -0.91908181 -0.16155855
vn -0.91908181 -0.35942656 -0.16155855
vn -0.58877664 0.80456062 -7.7616176e-2
vn -0.90279590 0.42974530 -1.6689259e-2
vn -0.31805880 0.94775287 2.4558054e-2
vn 0.58877664 0.80456062 -7.7616176e-2
vn 0.31805880 0.94775287 2.4558054e-2
vn 0.90279590 0.42974530 -1.6689259e-2
vn 0.68455032 -0.68455032 -0.25056281
vn 0.91908181 -0.35942656 -0.16155855
vn 0.35942656 -0.91908181 -0.16155855
vn -0.79792636 0.12037433 -0.59061285
vn -0.78511706 -0.11076677 -0.60936191
vn -0.40733530 0.83154093 -0.37764750
vn 0.40733530 0.83154093 -0.37764750
vn 0.78511706 -0.11076677 -0.60936191
vn 0.79792636 0.12037433 -0.59061285
vn 0.33655677 -0.81251992 -0.47596315
vn -0.33655677 -0.81251992 -0.47596315
vn 0.96789628 3.3429715e-2 -0.24911695
vn -0.96789628 3.3429715e-2 -0.24911695
vn 0.85476344 0.36700100 0.36700100
vn 0.85476344 0.36700100 -0.36700100
vn 0.83630234 -0.48618517 0.25342133
vn 0.78450540 -0.45607297 -0.42017703
vn -3.0559458e-17 0.70710678 0.70710678
vn -9.1678374e-17 0.70710678 -0.70710678
vn -1.3269507e-2 -0.62692689 0.77896508
vn -1.1005949e-2 -0.51998353 -0.85410538
vn 0.36700100 0.85476344 0.36700100
vn 0.36700100 0.85476344 -0.36700100
vn 0.36700100 0.36700100 0.85476344
vn 0.36700100 0.36700100 -0.85476344
vn 0.35608179 -0.50861344 0.78391206
vn 0.30529208 -0.43606738 -0.84654709
vn -0.36700100 0.85476344 0.36700100
vn -0.36700100 0.85476344 -0.36700100
vn -0.36700100 0.36700100 0.85476344
vn -0.36700100 0.36700100 -0.85476344
vn -0.37466470 -0.50464317 0.77779279
vn -0.32188818 -0.43355744 -0.84167449
vn -0.85476344 0.36700100 0.36700100
vn -0.85476344 0.36700100 -0.36700100
vn -0.54036531 -0.81101412 0.22419060
vn -0.73421309 -0.52642119 -0.42873287
vn -0.36700100 0.85476344 0.36700100
vn -0.36700100 0.85476344 -0.36700100
vn -0.36700100 0.36700100 0.85476344
vn -0.36700100 0.36700100 -0.85476344
vn -0.37466470 -0.50464317 0.77779279
vn -8.6991485e-2 -0.69409823 -0.71460487
vn 0.36700100 0.85476344 0.36700100
vn 0.36700100 0.85476344 -0.36700100
vn 0.36700100 0.36700100 0.85476344
vn 0.36700100 0.36700100 -0.85476344
vn 0.35608179 -0.50861344 0.78391206
vn 0.30529208 -0.43606738 -0.84654709
g cube1_cube1_auv
usemtl cube1_auv
f 1/54/1 2/49/2 3/58/3
f 1/1/1 3/12/3 10/19/10 11/30/11 9/23/9 7/20/7 6/9/6 4/6/4
f 3/12/3 2/4/2 13/3/13 14/10/14 24/18/24 22/26/22 12/25/12 10/19/10
f 4/53/4 5/46/5 16/40/16 17/14/17 34/15/34 15/16/15 13/17/13 2/49/2 1/54/1
f 4/53/4 6/56/6 5/46/5
f 7/20/7 8/24/8 19/27/19 20/21/20 18/11/18 16/7/16 5/5/5 6/9/6
f 7/63/7 9/68/9 8/75/8
f 10/61/10 12/76/12 11/67/11
f 11/67/11 12/76/12 22/126/22 23/135/23 33/136/33 21/134/21 19/108/19 8/75/8 9/68/9
f 13/17/13 15/16/15 14/13/14
f 14/48/14 32/47/32 31/42/31 24/43/24
f 15/59/15 25/57/25 32/47/32 14/48/14
f 16/40/16 18/22/18 17/14/17
f 18/44/18 27/45/27 26/55/26 17/62/17
f 19/108/19 21/134/21 20/117/20
f 20/39/20 28/41/28 27/45/27 18/44/18
f 21/28/21 29/31/29 28/41/28 20/39/20
f 22/126/22 24/137/24 23/135/23
f 24/43/24 31/42/31 30/32/30 23/33/23
f 26/2/26 34/15/34 17/14/17
f 27/45/27 28/41/28 29/34/29 26/50/26
f 30/36/30 25/52/25 34/51/34 33/35/33
f 30/147/30 33/136/33 23/135/23
f 31/42/31 32/47/32 25/52/25 30/36/30
f 33/136/33 29/148/29 21/134/21
f 33/35/33 34/51/34 26/50/26 29/34/29
f 34/15/34 25/8/25 15/16/15
f 35/73/35 37/66/37 38/69/38 36/77/36
f 35/73/35 45/71/45 47/60/47 37/66/37
f 36/77/36 44/84/44 43/82/43 35/73/35
f 36/77/36 46/78/46 44/83/44
f 37/70/37 47/85/47 53/95/53 41/97/41 69/106/69 63/107/63 57/105/57 64/99/64 70/92/70 42/88/42 54/72/54 48/65/48 38/64/38
f 38/69/38 48/74/48 46/78/46 36/77/36
f 39/102/39 49/91/49 50/93/50 40/104/40
f 39/102/39 51/94/51 49/91/49
f 39/143/39 67/141/67 69/144/69 41/146/41
f 40/104/40 52/101/52 54/103/54 42/110/42
f 40/142/40 66/129/66 65/132/65 39/143/39
f 40/142/40 68/133/68 66/129/66
f 41/109/41 53/100/53 51/94/51 39/102/39
f 42/145/42 70/140/70 68/133/68 40/142/40
f 43/80/43 45/71/45 35/73/35
f 43/82/43 49/91/49 51/90/51 45/81/45
f 44/84/44 50/93/50 49/91/49 43/82/43
f 45/81/45 51/90/51 53/86/53 47/79/47
f 46/87/46 52/96/52 50/93/50 44/84/44
f 48/89/48 54/98/54 52/96/52 46/87/46
f 50/93/50 52/101/52 40/104/40
f 55/118/55 59/127/59 60/123/60 56/116/56
f 55/118/55 61/119/61 59/124/59
f 56/116/56 58/112/58 57/114/57 55/118/55
f 56/116/56 62/113/62 64/111/64 58/112/58
f 57/114/57 63/115/63 61/119/61 55/118/55
f 58/38/58 64/29/64 57/37/57
f 59/127/59 65/132/65 66/129/66 60/123/60
f 60/121/60 62/113/62 56/116/56
f 60/123/60 66/129/66 68/128/68 62/122/62
f 61/130/61 67/138/67 65/132/65 59/127/59
f 62/122/62 68/128/68 70/125/70 64/120/64
f 63/131/63 69/139/69 67/138/67 61/130/61
f 65/132/65 67/141/67 39/143/39
