# Exported from Wings 3D 0.99.03
mtllib hedgehog.mtl
o cube4
#50 vertices, 51 faces
v 2.17561671 -2.78649573 -0.95427214
v 2.84411778 1.70416073 -0.95427214
v -1.58487703 -4.12349779 -0.95427214
v -2.09421118 2.14982808 -0.95427214
v 2.27111686 -1.00976309 -0.95427214
v 3.67178577 -0.82469956 -0.95427214
v 3.32161854 0.41086559 -0.95427214
v 2.20745009 8.6594997e-2 -0.95427214
v 1.82261749 -3.52390221 -0.95427214
v 1.08144212 -3.48080090 -0.95427214
v 3.0178150e-2 -3.66883959 -0.95427214
v -0.30434410 -4.34633147 -0.95427214
v 2.58225315 3.39133000 -0.95427214
v 1.97022129 4.15533118 -0.95427214
v 0.27585437 4.21899794 -0.95427214
v -0.87734502 3.93249750 -0.95427214
v -1.58487703 -3.30176662 -0.95427214
v -2.18971133 -2.98936956 -0.95427214
v -2.69904548 -1.56280412 -0.95427214
v -2.69904548 5.4761614e-2 -0.95427214
v 1.74498842 -4.65405417 -0.95427214
v 0.15347561 -4.57374703 -0.95427214
v -3.02799045 0.49845005 -0.95427214
v -3.03860158 1.61063951 -0.95427214
v -1.83594532 3.23216309 -0.95427214
v 2.27111686 -1.00976309 1.30570615
v 2.17561671 -2.78649573 1.30570615
v 1.82261749 -3.52390221 1.30570615
v 1.08144212 -3.48080090 1.30570615
v 1.74498842 -4.65405417 1.30570615
v 0.15347561 -4.57374703 1.30570615
v 3.0178150e-2 -3.66883959 1.30570615
v -0.30434410 -4.34633147 1.30570615
v -1.58487703 -4.12349779 1.30570615
v -1.58487703 -3.30176662 1.30570615
v -2.18971133 -2.98936956 1.30570615
v -2.69904548 -1.56280412 1.30570615
v -2.69904548 5.4761614e-2 1.30570615
v -3.02799045 0.49845005 1.30570615
v -3.03860158 1.61063951 1.30570615
v -2.09421118 2.14982808 1.30570615
v -1.83594532 3.23216309 1.30570615
v -0.87734502 3.93249750 1.30570615
v 0.27585437 4.21899794 1.30570615
v 1.97022129 4.15533118 1.30570615
v 2.58225315 3.39133000 1.30570615
v 2.84411778 1.70416073 1.30570615
v 2.20745009 8.6594997e-2 1.30570615
v 3.32161854 0.41086559 1.30570615
v 3.67178577 -0.82469956 1.30570615
vt 0.0000000e+0 6.8452191e-2
vt 1.6763754e-3 1.1796120e-16
vt 7.7483140e-3 0.34025210
vt 2.9650326e-2 6.9178319e-2
vt 3.1033495e-2 0.42241387
vt 3.1212104e-2 7.1443302e-4
vt 6.2786014e-2 0.50841452
vt 8.0199309e-2 0.62060675
vt 8.1307595e-2 7.0339633e-2
vt 8.2795787e-2 1.7647332e-3
vt 0.10088904 0.32794587
vt 0.10512271 0.40085074
vt 0.10723954 0.20979792
vt 0.12089778 0.67141078
vt 0.13071304 0.16076237
vt 0.13405065 7.1640306e-2
vt 0.13553561 2.7263521e-3
vt 0.13587517 8.5610296e-2
vt 0.16960396 7.2585971e-2
vt 0.17095654 3.2494700e-3
vt 0.17999921 0.16362849
vt 0.20920317 7.3546714e-2
vt 0.21034949 3.7252420e-3
vt 0.23356864 0.67564445
vt 0.24170650 9.0950505e-2
vt 0.24990545 0.15112442
vt 0.25293602 7.4438687e-2
vt 0.25402039 4.0852337e-3
vt 0.27215028 0.10607303
vt 0.30846254 7.5650503e-2
vt 0.30960707 4.4958258e-3
vt 0.31025330 0.65659294
vt 0.33446000 7.6341689e-2
vt 0.33545006 4.5647424e-3
vt 0.35730228 0.12089087
vt 0.35730228 0.17553379
vt 0.35825124 7.6889209e-2
vt 0.35904890 4.4996710e-3
vt 0.37399765 0.61002258
vt 0.39117163 0.53805020
vt 0.39752214 0.19630735
vt 0.40172505 7.7661317e-2
vt 0.40243268 4.3978667e-3
vt 0.43139149 0.29117013
vt 0.43139149 0.39873391
vt 0.45326545 0.42823800
vt 0.45364223 7.8548504e-2
vt 0.45397106 0.50219561
vt 0.45429670 4.4620121e-3
vt 0.48386539 7.9295478e-2
vt 0.48432037 4.3814601e-3
vt 0.50918870 7.9837481e-2
vt 0.50955908 4.1341960e-3
vt 0.53175169 0.50681783
vt 0.53245730 0.43286022
vt 0.55305965 8.0428400e-2
vt 0.55346009 3.8760534e-3
vt 0.55433126 0.29579235
vt 0.55433126 0.40335613
vt 0.58101412 8.0815263e-2
vt 0.58143632 3.6350932e-3
vt 0.58820061 0.20092958
vt 0.59455111 0.54267243
vt 0.60447474 8.1242284e-2
vt 0.60482504 3.4517542e-3
vt 0.61172510 0.61464480
vt 0.62842047 0.18015601
vt 0.62842047 0.12551309
vt 0.65712902 8.1828255e-2
vt 0.65724626 2.9997325e-3
vt 0.67546945 0.66121516
vt 0.71357247 0.11069525
vt 0.71396937 8.2230903e-2
vt 0.71403448 2.4834789e-3
vt 0.73350597 8.2415217e-2
vt 0.73352739 2.3531759e-3
vt 0.73581730 0.15574664
vt 0.74401625 9.5572727e-2
vt 0.75215411 0.68026667
vt 0.77298621 2.0822956e-3
vt 0.77319563 8.2597589e-2
vt 0.80572353 0.16825071
vt 0.81180434 1.6795616e-3
vt 0.81219814 8.2620036e-2
vt 0.84984758 9.0232518e-2
vt 0.85174581 1.2479039e-3
vt 0.85224945 8.2647355e-2
vt 0.85500971 0.16538459
vt 0.86482496 0.67603300
vt 0.87848321 0.21442014
vt 0.88060004 0.40547296
vt 0.88483371 0.33256809
vt 0.89471264 8.6681432e-4
vt 0.89522670 8.2575983e-2
vt 0.90552344 0.62522897
vt 0.92293673 0.51303674
vt 0.93779076 5.7036853e-4
vt 0.93837501 8.2406479e-2
vt 0.95468925 0.42703609
vt 0.97797443 0.34487432
vt 0.99923977 0.0000000e+0
vt 1.00000000 8.1904038e-2
vn 0.86319359 -0.22048521 -0.45418399
vn 0.69025193 -7.6582297e-2 -0.71950498
vn -0.64070727 -0.53884222 -0.54693990
vn -0.33368587 0.25007067 -0.90891056
vn 0.21591459 -0.19976452 -0.95575888
vn 0.66383526 -0.43647558 -0.60729879
vn 0.39506423 0.71345352 -0.57871264
vn 0.15895531 0.14500081 -0.97657973
vn 0.43537255 -0.73777206 -0.51589062
vn 0.25798261 -0.16069671 -0.95269174
vn -2.3299990e-2 -0.14291347 -0.98946089
vn 0.38409639 -0.75627946 -0.52963322
vn 0.81285095 0.35783433 -0.45959539
vn 0.39410290 0.78266526 -0.48178625
vn -5.6628873e-2 0.54797872 -0.83457324
vn -0.37728181 0.80718485 -0.45399454
vn -0.42259889 -0.25736680 -0.86900662
vn -0.66310115 -0.57980639 -0.47341463
vn -0.54097967 -9.3678527e-2 -0.83580221
vn -0.65384422 -0.21593937 -0.72516062
vn 0.59043757 -0.36464648 -0.72001141
vn -0.56723850 -0.61762769 -0.54477200
vn -0.65334302 -0.21923586 -0.72462303
vn -0.75023241 0.43079032 -0.50156857
vn -0.73479056 0.48883887 -0.47023334
vn 0.21591459 -0.19976452 0.95575888
vn 0.86319359 -0.22048521 0.45418399
vn 0.43537255 -0.73777206 0.51589062
vn 0.25798261 -0.16069671 0.95269174
vn 0.59043757 -0.36464648 0.72001141
vn -0.56723850 -0.61762769 0.54477200
vn -2.3299990e-2 -0.14291347 0.98946089
vn 0.38409639 -0.75627946 0.52963322
vn -0.64070727 -0.53884222 0.54693990
vn -0.42259889 -0.25736680 0.86900662
vn -0.66310115 -0.57980639 0.47341463
vn -0.54097967 -9.3678527e-2 0.83580221
vn -0.65384422 -0.21593937 0.72516062
vn -0.65334302 -0.21923586 0.72462303
vn -0.75023241 0.43079032 0.50156857
vn -0.33368587 0.25007067 0.90891056
vn -0.73479056 0.48883887 0.47023334
vn -0.37728181 0.80718485 0.45399454
vn -5.6628873e-2 0.54797872 0.83457324
vn 0.39410290 0.78266526 0.48178625
vn 0.81285095 0.35783433 0.45959539
vn 0.69025193 -7.6582297e-2 0.71950498
vn 0.15895531 0.14500081 0.97657973
vn 0.39506423 0.71345352 0.57871264
vn 0.66383526 -0.43647558 0.60729879
g cube4_cube4_auv
usemtl cube4_auv
f 1/13/1 9/15/9 10/21/10 5/11/5
f 1/30/1 27/31/27 28/34/28 9/33/9
f 2/7/2 15/24/15 14/14/14 13/8/13
f 2/9/2 47/10/47 48/17/48 8/16/8
f 3/56/3 34/57/34 35/61/35 17/60/17
f 4/84/4 41/83/41 42/86/42 25/87/25
f 5/11/5 8/12/8 7/5/7 6/3/6
f 5/27/5 26/28/26 27/31/27 1/30/1
f 6/22/6 50/23/50 26/28/26 5/27/5
f 7/19/7 49/20/49 50/23/50 6/22/6
f 8/12/8 4/40/4 15/24/15 2/7/2
f 8/16/8 48/17/48 49/20/49 7/19/7
f 9/33/9 28/34/28 29/38/29 10/37/10
f 10/37/10 29/38/29 30/43/30 21/42/21
f 11/26/11 5/11/5 10/21/10
f 11/50/11 32/51/32 33/53/33 12/52/12
f 12/52/12 33/53/33 34/57/34 3/56/3
f 13/4/13 46/6/46 47/10/47 2/9/2
f 14/1/14 45/2/45 46/6/46 13/4/13
f 15/24/15 4/40/4 25/39/25 16/32/16
f 15/98/15 44/97/44 45/101/45 14/102/14
f 16/94/16 43/93/43 44/97/44 15/98/15
f 17/36/17 11/26/11 12/29/12 3/35/3
f 17/60/17 35/61/35 36/65/36 18/64/18
f 18/41/18 19/44/19 17/36/17
f 18/64/18 36/65/36 37/70/37 19/69/19
f 19/44/19 5/11/5 11/26/11 17/36/17
f 19/69/19 37/70/37 38/74/38 20/73/20
f 20/45/20 8/12/8 5/11/5 19/44/19
f 20/73/20 38/74/38 39/76/39 23/75/23
f 21/18/21 22/25/22 11/26/11 10/21/10
f 21/42/21 30/43/30 31/49/31 22/47/22
f 22/47/22 31/49/31 32/51/32 11/50/11
f 23/46/23 4/40/4 8/12/8 20/45/20
f 23/75/23 39/76/39 40/80/40 24/81/24
f 24/48/24 4/40/4 23/46/23
f 24/81/24 40/80/40 41/83/41 4/84/4
f 25/87/25 42/86/42 43/93/43 16/94/16
f 26/92/26 29/82/29 28/88/28 27/90/27
f 29/82/29 32/77/32 31/78/31 30/85/30
f 32/77/32 26/92/26 37/58/37 35/67/35
f 32/77/32 29/82/29 26/92/26
f 32/77/32 35/67/35 34/68/34 33/72/33
f 35/67/35 37/58/37 36/62/36
f 37/58/37 26/92/26 48/91/48 38/59/38
f 38/59/38 48/91/48 41/63/41 39/55/39
f 39/55/39 41/63/41 40/54/40
f 41/63/41 44/79/44 43/71/43 42/66/42
f 44/79/44 47/96/47 46/95/46 45/89/45
f 47/96/47 44/79/44 41/63/41 48/91/48
f 48/91/48 26/92/26 50/100/50 49/99/49
