# Exported from Wings 3D 0.99.03
mtllib tortoise.mtl
o c:/Documents
#108 vertices, 122 faces
v -0.14855893 1.60313206 -0.44205512
v -0.14855893 1.48400774 -0.44205512
v -0.14855893 1.48400774 -0.81095624
v -0.14855893 1.36104070 -0.81095624
v -0.14855893 1.36104070 -0.93392328
v -0.14855893 0.99213958 -0.93392328
v -0.14855893 0.99213958 -1.05689032
v -0.14855893 0.86917254 -1.05689032
v -0.14855893 0.86917254 -1.17985736
v -0.14855893 0.74620550 -1.17985736
v -0.14855893 0.74620550 -1.30282440
v -0.14855893 0.99213958 -1.30282440
v -0.14855893 0.99213958 -1.42579144
v -0.14855893 1.11510662 -1.42579144
v -0.14855893 1.11510662 -1.91765960
v -0.14855893 0.99213958 -1.91765960
v -0.14855893 0.99213958 -2.03678392
v -0.14855893 0.50027142 -2.03678392
v -0.14855893 0.50027142 -1.79469256
v -0.14855893 0.37730438 -1.79469256
v -0.14855893 0.37730438 -1.05689032
v -0.14855893 0.25433734 -1.05689032
v -0.14855893 0.25433734 -1.42579144
v -0.14855893 4.5605420e-3 -1.42579144
v -0.14855893 4.5605420e-3 -0.81095624
v -0.14855893 0.13137030 -0.81095624
v -0.14855893 0.13137030 -0.68798920
v -0.14855893 0.25433734 -0.68798920
v -0.14855893 0.25433734 -0.31908808
v -0.14855893 0.37730438 -0.31908808
v -0.14855893 0.37730438 1.52541752
v -0.14855893 0.25433734 1.52541752
v -0.14855893 0.25433734 1.64838456
v -0.14855893 0.13137030 1.64838456
v -0.14855893 0.13137030 1.52541752
v -0.14855893 4.5605420e-3 1.52541752
v -0.14855893 4.5605420e-3 1.89816136
v -0.14855893 0.37730438 1.89816136
v -0.14855893 0.37730438 1.77135160
v -0.14855893 0.74620550 1.77135160
v -0.14855893 0.74620550 1.64838456
v -0.14855893 0.86917254 1.64838456
v -0.14855893 0.86917254 1.52541752
v -0.14855893 0.99213958 1.52541752
v -0.14855893 0.99213958 1.40245048
v -0.14855893 1.11510662 1.40245048
v -0.14855893 1.11510662 1.27948344
v -0.14855893 1.23807366 1.27948344
v -0.14855893 1.23807366 1.15651640
v -0.14855893 1.36104070 1.15651640
v -0.14855893 1.36104070 1.03354936
v -0.14855893 1.48400774 1.03354936
v -0.14855893 1.48400774 0.78761528
v -0.14855893 1.60313206 0.78761528
v 0.50929966 1.60313206 -0.44205512
v 0.50929966 1.48400774 -0.44205512
v 0.50929966 1.48400774 -0.81095624
v 0.50929966 1.36104070 -0.81095624
v 0.50929966 1.36104070 -0.93392328
v 0.50929966 0.99213958 -0.93392328
v 0.50929966 0.99213958 -1.05689032
v 0.50929966 0.86917254 -1.05689032
v 0.50929966 0.86917254 -1.17985736
v 0.50929966 0.74620550 -1.17985736
v 0.50929966 0.74620550 -1.30282440
v 0.50929966 0.99213958 -1.30282440
v 0.50929966 0.99213958 -1.42579144
v 0.50929966 1.11510662 -1.42579144
v 0.50929966 1.11510662 -1.91765960
v 0.50929966 0.99213958 -1.91765960
v 0.50929966 0.99213958 -2.03678392
v 0.50929966 0.50027142 -2.03678392
v 0.50929966 0.50027142 -1.79469256
v 0.50929966 0.37730438 -1.79469256
v 0.50929966 0.37730438 -1.05689032
v 0.50929966 0.25433734 -1.05689032
v 0.50929966 0.25433734 -1.42579144
v 0.50929966 4.5605420e-3 -1.42579144
v 0.50929966 4.5605420e-3 -0.81095624
v 0.50929966 0.13137030 -0.81095624
v 0.50929966 0.13137030 -0.68798920
v 0.50929966 0.25433734 -0.68798920
v 0.50929966 0.25433734 -0.31908808
v 0.50929966 0.37730438 -0.31908808
v 0.50929966 0.37730438 1.52541752
v 0.50929966 0.25433734 1.52541752
v 0.50929966 0.25433734 1.64838456
v 0.50929966 0.13137030 1.64838456
v 0.50929966 0.13137030 1.52541752
v 0.50929966 4.5605420e-3 1.52541752
v 0.50929966 4.5605420e-3 1.89816136
v 0.50929966 0.37730438 1.89816136
v 0.50929966 0.37730438 1.77135160
v 0.50929966 0.74620550 1.77135160
v 0.50929966 0.74620550 1.64838456
v 0.50929966 0.86917254 1.64838456
v 0.50929966 0.86917254 1.52541752
v 0.50929966 0.99213958 1.52541752
v 0.50929966 0.99213958 1.40245048
v 0.50929966 1.11510662 1.40245048
v 0.50929966 1.11510662 1.27948344
v 0.50929966 1.23807366 1.27948344
v 0.50929966 1.23807366 1.15651640
v 0.50929966 1.36104070 1.15651640
v 0.50929966 1.36104070 1.03354936
v 0.50929966 1.48400774 1.03354936
v 0.50929966 1.48400774 0.78761528
v 0.50929966 1.60313206 0.78761528
vt 1.3582062e-4 0.12499694
vt 1.3582062e-4 0.24999694
vt 3.0409258e-2 0.24999694
vt 3.0409258e-2 0.28124694
vt 6.1659258e-2 9.3746942e-2
vt 6.1659258e-2 0.12499694
vt 0.15540926 -9.7962049e-4
vt 0.15540926 6.2496942e-2
vt 0.15540926 0.24999694
vt 0.15540926 0.28124694
vt 0.18665926 0.18749694
vt 0.18665926 0.24999694
vt 0.21790926 0.18749694
vt 0.21790926 0.21874694
vt 0.24915926 6.2496942e-2
vt 0.24915926 9.3746942e-2
vt 0.24915926 0.21874694
vt 0.24915926 0.24999694
vt 0.28040926 0.24999694
vt 0.28040926 0.34374694
vt 0.31165926 -9.7962049e-4
vt 0.31165926 3.1246942e-2
vt 0.31165926 0.34374694
vt 0.31165926 0.37499694
vt 0.34290926 3.1246942e-2
vt 0.34290926 6.2496942e-2
vt 0.40540926 0.37499694
vt 0.40540926 0.40527038
vt 0.43665926 6.2496942e-2
vt 0.43665926 9.3746942e-2
vt 0.71790926 0.37499694
vt 0.71790926 0.40527038
vt 0.78040926 0.34374694
vt 0.78040926 0.37499694
vt 0.81165926 0.31249694
vt 0.81165926 0.34374694
vt 0.84290926 0.28124694
vt 0.84290926 0.31249694
vt 0.87415926 0.24999694
vt 0.87415926 0.28124694
vt 0.90540926 -9.7962049e-4
vt 0.90540926 3.1246942e-2
vt 0.90540926 6.2496942e-2
vt 0.90540926 9.3746942e-2
vt 0.90540926 0.21874694
vt 0.90540926 0.24999694
vt 0.93665926 3.1246942e-2
vt 0.93665926 6.2496942e-2
vt 0.93665926 0.18749694
vt 0.93665926 0.21874694
vt 0.96790926 9.3746942e-2
vt 0.96790926 0.18749694
vt 1.00013582 -9.7962049e-4
vt 1.00013582 9.3746942e-2
vn -0.57735027 0.57735027 -0.57735027
vn -0.94280904 0.23570226 -0.23570226
vn -0.57735027 0.57735027 -0.57735027
vn -0.90453403 0.30151134 -0.30151134
vn -0.57735027 0.57735027 -0.57735027
vn -0.94280904 0.23570226 -0.23570226
vn -0.57735027 0.57735027 -0.57735027
vn -0.94280904 0.23570226 -0.23570226
vn -0.57735027 0.57735027 -0.57735027
vn -0.90453403 0.30151134 -0.30151134
vn -0.94280904 0.23570226 0.23570226
vn -0.57735027 0.57735027 0.57735027
vn -0.90453403 0.30151134 0.30151134
vn -0.57735027 0.57735027 0.57735027
vn -0.57735027 0.57735027 -0.57735027
vn -0.90453403 0.30151134 -0.30151134
vn -0.57735027 0.57735027 -0.57735027
vn -0.57735027 -0.57735027 -0.57735027
vn -0.90453403 -0.30151134 -0.30151134
vn -0.57735027 -0.57735027 -0.57735027
vn -0.94280904 -0.23570226 -0.23570226
vn -0.90453403 0.30151134 -0.30151134
vn -0.57735027 0.57735027 -0.57735027
vn -0.81649658 -0.40824829 -0.40824829
vn -0.57735027 -0.57735027 0.57735027
vn -0.90453403 -0.30151134 0.30151134
vn -0.57735027 -0.57735027 0.57735027
vn -0.96225045 -0.19245009 0.19245009
vn -0.57735027 -0.57735027 0.57735027
vn -0.98019606 -0.14002801 0.14002801
vn -0.96225045 -0.19245009 -0.19245009
vn -0.57735027 -0.57735027 -0.57735027
vn -0.90453403 -0.30151134 -0.30151134
vn -0.90453403 0.30151134 -0.30151134
vn -0.57735027 0.57735027 -0.57735027
vn -0.57735027 -0.57735027 -0.57735027
vn -0.81649658 -0.40824829 0.40824829
vn -0.57735027 0.57735027 0.57735027
vn -0.94280904 0.23570226 0.23570226
vn -0.57735027 0.57735027 0.57735027
vn -0.90453403 0.30151134 0.30151134
vn -0.57735027 0.57735027 0.57735027
vn -0.81649658 0.40824829 0.40824829
vn -0.57735027 0.57735027 0.57735027
vn -0.90453403 0.30151134 0.30151134
vn -0.57735027 0.57735027 0.57735027
vn -0.90453403 0.30151134 0.30151134
vn -0.57735027 0.57735027 0.57735027
vn -0.90453403 0.30151134 0.30151134
vn -0.57735027 0.57735027 0.57735027
vn -0.90453403 0.30151134 0.30151134
vn -0.57735027 0.57735027 0.57735027
vn -0.94280904 0.23570226 0.23570226
vn -0.57735027 0.57735027 0.57735027
vn 0.57735027 0.57735027 -0.57735027
vn 0.94280904 0.23570226 -0.23570226
vn 0.57735027 0.57735027 -0.57735027
vn 0.90453403 0.30151134 -0.30151134
vn 0.57735027 0.57735027 -0.57735027
vn 0.94280904 0.23570226 -0.23570226
vn 0.57735027 0.57735027 -0.57735027
vn 0.94280904 0.23570226 -0.23570226
vn 0.57735027 0.57735027 -0.57735027
vn 0.90453403 0.30151134 -0.30151134
vn 0.94280904 0.23570226 0.23570226
vn 0.57735027 0.57735027 0.57735027
vn 0.90453403 0.30151134 0.30151134
vn 0.57735027 0.57735027 0.57735027
vn 0.57735027 0.57735027 -0.57735027
vn 0.90453403 0.30151134 -0.30151134
vn 0.57735027 0.57735027 -0.57735027
vn 0.57735027 -0.57735027 -0.57735027
vn 0.90453403 -0.30151134 -0.30151134
vn 0.57735027 -0.57735027 -0.57735027
vn 0.94280904 -0.23570226 -0.23570226
vn 0.90453403 0.30151134 -0.30151134
vn 0.57735027 0.57735027 -0.57735027
vn 0.81649658 -0.40824829 -0.40824829
vn 0.57735027 -0.57735027 0.57735027
vn 0.90453403 -0.30151134 0.30151134
vn 0.57735027 -0.57735027 0.57735027
vn 0.96225045 -0.19245009 0.19245009
vn 0.57735027 -0.57735027 0.57735027
vn 0.98019606 -0.14002801 0.14002801
vn 0.96225045 -0.19245009 -0.19245009
vn 0.57735027 -0.57735027 -0.57735027
vn 0.90453403 -0.30151134 -0.30151134
vn 0.90453403 0.30151134 -0.30151134
vn 0.57735027 0.57735027 -0.57735027
vn 0.57735027 -0.57735027 -0.57735027
vn 0.81649658 -0.40824829 0.40824829
vn 0.57735027 0.57735027 0.57735027
vn 0.94280904 0.23570226 0.23570226
vn 0.57735027 0.57735027 0.57735027
vn 0.90453403 0.30151134 0.30151134
vn 0.57735027 0.57735027 0.57735027
vn 0.81649658 0.40824829 0.40824829
vn 0.57735027 0.57735027 0.57735027
vn 0.90453403 0.30151134 0.30151134
vn 0.57735027 0.57735027 0.57735027
vn 0.90453403 0.30151134 0.30151134
vn 0.57735027 0.57735027 0.57735027
vn 0.90453403 0.30151134 0.30151134
vn 0.57735027 0.57735027 0.57735027
vn 0.90453403 0.30151134 0.30151134
vn 0.57735027 0.57735027 0.57735027
vn 0.94280904 0.23570226 0.23570226
vn 0.57735027 0.57735027 0.57735027
g c:/Documents_default
usemtl default
f 1/28/1 55/28/55 56/27/56 2/27/2
f 2/27/2 53/31/53 54/32/54 1/28/1
f 2/27/2 56/27/56 57/24/57 3/24/3
f 3/24/3 4/23/4 2/27/2
f 3/24/3 57/24/57 58/23/58 4/23/4
f 4/23/4 6/19/6 30/30/30 2/27/2
f 4/23/4 58/23/58 59/20/59 5/20/5
f 5/20/5 6/19/6 4/23/4
f 5/20/5 59/20/59 60/19/60 6/19/6
f 6/19/6 60/19/60 61/18/61 7/18/7
f 7/18/7 8/17/8 6/19/6
f 7/18/7 61/18/61 62/17/62 8/17/8
f 8/17/8 28/26/28 30/30/30 6/19/6
f 8/17/8 62/17/62 63/14/63 9/14/9
f 9/14/9 10/13/10 8/17/8
f 9/14/9 63/14/63 64/13/64 10/13/10
f 10/13/10 21/16/21 28/26/28 8/17/8
f 10/13/10 64/13/64 65/11/65 11/11/11
f 11/11/11 21/16/21 10/13/10
f 11/11/11 65/11/65 66/12/66 12/12/12
f 12/12/12 13/9/13 11/11/11
f 12/12/12 66/12/66 67/9/67 13/9/13
f 13/9/13 16/3/16 19/6/19 11/11/11
f 13/9/13 67/9/67 68/10/68 14/10/14
f 14/10/14 15/4/15 16/3/16 13/9/13
f 14/10/14 68/10/68 69/4/69 15/4/15
f 15/4/15 69/4/69 70/3/70 16/3/16
f 16/3/16 70/3/70 71/2/71 17/2/17
f 17/2/17 18/1/18 19/6/19 16/3/16
f 17/2/17 71/2/71 72/1/72 18/1/18
f 18/1/18 72/1/72 73/6/73 19/6/19
f 19/6/19 20/5/20 21/16/21 11/11/11
f 19/6/19 73/6/73 74/5/74 20/5/20
f 20/5/20 74/5/74 75/16/75 21/16/21
f 21/16/21 75/16/75 76/15/76 22/15/22
f 22/15/22 26/22/26 28/26/28 21/16/21
f 22/15/22 76/15/76 77/8/77 23/8/23
f 23/8/23 24/7/24 22/15/22
f 23/8/23 77/8/77 78/7/78 24/7/24
f 24/7/24 25/21/25 26/22/26 22/15/22
f 24/7/24 78/7/78 79/21/79 25/21/25
f 25/21/25 79/21/79 80/22/80 26/22/26
f 26/22/26 80/22/80 81/25/81 27/25/27
f 27/25/27 28/26/28 26/22/26
f 27/25/27 81/25/81 82/26/82 28/26/28
f 28/26/28 82/26/82 83/29/83 29/29/29
f 29/29/29 30/30/30 28/26/28
f 29/29/29 83/29/83 84/30/84 30/30/30
f 30/30/30 53/31/53 2/27/2
f 30/30/30 84/30/84 85/44/85 31/44/31
f 31/44/31 45/39/45 47/37/47 30/30/30
f 31/44/31 85/44/85 86/43/86 32/43/32
f 32/43/32 33/48/33 31/44/31
f 32/43/32 86/43/86 87/48/87 33/48/33
f 33/48/33 39/51/39 41/49/41 31/44/31
f 33/48/33 87/48/87 88/47/88 34/47/34
f 34/47/34 39/51/39 33/48/33
f 34/47/34 88/47/88 89/42/89 35/42/35
f 35/42/35 36/41/36 37/53/37 34/47/34
f 35/42/35 89/42/89 90/41/90 36/41/36
f 36/41/36 90/41/90 91/53/91 37/53/37
f 37/53/37 38/54/38 39/51/39 34/47/34
f 37/53/37 91/53/91 92/54/92 38/54/38
f 38/54/38 92/54/92 93/51/93 39/51/39
f 39/51/39 93/51/93 94/52/94 40/52/40
f 40/52/40 41/49/41 39/51/39
f 40/52/40 94/52/94 95/49/95 41/49/41
f 41/49/41 42/50/42 43/45/43 31/44/31
f 41/49/41 95/49/95 96/50/96 42/50/42
f 42/50/42 96/50/96 97/45/97 43/45/43
f 43/45/43 44/46/44 45/39/45 31/44/31
f 43/45/43 97/45/97 98/46/98 44/46/44
f 44/46/44 98/46/98 99/39/99 45/39/45
f 45/39/45 99/39/99 100/40/100 46/40/46
f 46/40/46 47/37/47 45/39/45
f 46/40/46 100/40/100 101/37/101 47/37/47
f 47/37/47 48/38/48 49/35/49 30/30/30
f 47/37/47 101/37/101 102/38/102 48/38/48
f 48/38/48 102/38/102 103/35/103 49/35/49
f 49/35/49 51/33/51 53/31/53 30/30/30
f 49/35/49 103/35/103 104/36/104 50/36/50
f 50/36/50 51/33/51 49/35/49
f 50/36/50 104/36/104 105/33/105 51/33/51
f 51/33/51 105/33/105 106/34/106 52/34/52
f 52/34/52 53/31/53 51/33/51
f 52/34/52 106/34/106 107/31/107 53/31/53
f 53/31/53 107/31/107 108/32/108 54/32/54
f 54/32/54 108/32/108 55/28/55 1/28/1
f 55/28/55 108/32/108 107/31/107 56/27/56
f 56/27/56 58/23/58 57/24/57
f 56/27/56 84/30/84 60/19/60 58/23/58
f 56/27/56 107/31/107 84/30/84
f 58/23/58 60/19/60 59/20/59
f 60/19/60 62/17/62 61/18/61
f 60/19/60 84/30/84 82/26/82 62/17/62
f 62/17/62 64/13/64 63/14/63
f 62/17/62 82/26/82 75/16/75 64/13/64
f 64/13/64 75/16/75 65/11/65
f 65/11/65 67/9/67 66/12/66
f 65/11/65 73/6/73 70/3/70 67/9/67
f 65/11/65 75/16/75 74/5/74 73/6/73
f 67/9/67 70/3/70 69/4/69 68/10/68
f 70/3/70 73/6/73 72/1/72 71/2/71
f 75/16/75 82/26/82 80/22/80 76/15/76
f 76/15/76 78/7/78 77/8/77
f 76/15/76 80/22/80 79/21/79 78/7/78
f 80/22/80 82/26/82 81/25/81
f 82/26/82 84/30/84 83/29/83
f 84/30/84 101/37/101 99/39/99 85/44/85
f 84/30/84 103/35/103 102/38/102 101/37/101
f 84/30/84 107/31/107 105/33/105 103/35/103
f 85/44/85 87/48/87 86/43/86
f 85/44/85 95/49/95 93/51/93 87/48/87
f 85/44/85 97/45/97 96/50/96 95/49/95
f 85/44/85 99/39/99 98/46/98 97/45/97
f 87/48/87 93/51/93 88/47/88
f 88/47/88 91/53/91 90/41/90 89/42/89
f 88/47/88 93/51/93 92/54/92 91/53/91
f 93/51/93 95/49/95 94/52/94
f 99/39/99 101/37/101 100/40/100
f 103/35/103 105/33/105 104/36/104
f 105/33/105 107/31/107 106/34/106
