<?xml version="1.0" encoding="UTF-8" standalone="no"?>
<!-- Created with Inkscape (http://www.inkscape.org/) -->
<svg
   xmlns:dc="http://purl.org/dc/elements/1.1/"
   xmlns:cc="http://creativecommons.org/ns#"
   xmlns:rdf="http://www.w3.org/1999/02/22-rdf-syntax-ns#"
   xmlns:svg="http://www.w3.org/2000/svg"
   xmlns="http://www.w3.org/2000/svg"
   xmlns:xlink="http://www.w3.org/1999/xlink"
   xmlns:sodipodi="http://sodipodi.sourceforge.net/DTD/sodipodi-0.dtd"
   xmlns:inkscape="http://www.inkscape.org/namespaces/inkscape"
   width="1052.3622"
   height="744.09448"
   id="svg2"
   sodipodi:version="0.32"
   inkscape:version="0.46"
   sodipodi:docname="turtle.svg"
   inkscape:output_extension="org.inkscape.output.svg.inkscape"
   inkscape:export-filename="/home/joe/Source/joebabies/other/turtle.png"
   inkscape:export-xdpi="85.800003"
   inkscape:export-ydpi="85.800003"
   version="1.0">
  <defs
     id="defs4">
    <inkscape:perspective
       sodipodi:type="inkscape:persp3d"
       inkscape:vp_x="0 : 526.18109 : 1"
       inkscape:vp_y="0 : 1000 : 0"
       inkscape:vp_z="744.09448 : 526.18109 : 1"
       inkscape:persp3d-origin="372.04724 : 350.78739 : 1"
       id="perspective10" />
    <inkscape:perspective
       id="perspective2390"
       inkscape:persp3d-origin="372.04724 : 350.78739 : 1"
       inkscape:vp_z="744.09448 : 526.18109 : 1"
       inkscape:vp_y="0 : 1000 : 0"
       inkscape:vp_x="0 : 526.18109 : 1"
       sodipodi:type="inkscape:persp3d" />
    <clipPath
       clipPathUnits="userSpaceOnUse"
       id="clipPath3196">
      <path
         style="fill:none;fill-rule:evenodd;stroke:#000000;stroke-width:8;stroke-linecap:butt;stroke-linejoin:miter;stroke-miterlimit:4;stroke-dasharray:none;stroke-opacity:1"
         d="M 38.571429,630.93361 C 35.609988,563.84474 73.564986,493.91665 112.85714,445.21933 C 152.14929,396.52201 227.7381,349.99589 292.85714,323.79075 C 357.97618,297.58561 473.68235,279.64459 540,280.93361 C 606.31765,282.22263 680.71805,297.03398 727.14286,320.93361 C 773.56767,344.83324 819.71235,387.41968 842.85714,426.6479 C 866.00193,465.87612 862.20967,506.88391 877.14286,569.50504 C 809.2189,567.84045 718.45152,590.84816 674.28571,586.6479 C 628.58807,582.30196 508.25193,575.67011 440,576.6479 C 371.74807,577.62569 280.30732,583.83935 220,592.36218 C 159.69268,600.88501 104.39001,602.30819 38.571429,630.93361 z"
         id="path3198"
         sodipodi:nodetypes="czzzzzczzzc" />
    </clipPath>
  </defs>
  <sodipodi:namedview
     id="base"
     pagecolor="#ffffff"
     bordercolor="#666666"
     borderopacity="1.0"
     gridtolerance="10000"
     guidetolerance="10"
     objecttolerance="10"
     inkscape:pageopacity="0.0"
     inkscape:pageshadow="2"
     inkscape:zoom="0.35"
     inkscape:cx="305.31683"
     inkscape:cy="520"
     inkscape:document-units="px"
     inkscape:current-layer="layer2"
     showgrid="false"
     inkscape:window-width="1034"
     inkscape:window-height="718"
     inkscape:window-x="56"
     inkscape:window-y="27" />
  <metadata
     id="metadata7">
    <rdf:RDF>
      <cc:Work
         rdf:about="">
        <dc:format>image/svg+xml</dc:format>
        <dc:type
           rdf:resource="http://purl.org/dc/dcmitype/StillImage" />
      </cc:Work>
    </rdf:RDF>
  </metadata>
  <g
     inkscape:groupmode="layer"
     id="layer3"
     inkscape:label="orginal"
     style="display:none">
    <image
       y="53.505009"
       x="-340.00003"
       id="image2392"
       height="832"
       width="1400"
       sodipodi:absref="/home/joe/Desktop/turtle.jpg"
       xlink:href="/home/joe/Desktop/turtle.jpg"
       style="stroke:#000000;stroke-width:8;stroke-miterlimit:4;stroke-dasharray:none;stroke-opacity:1" />
  </g>
  <g
     inkscape:groupmode="layer"
     id="layer4"
     inkscape:label="shell">
    <image
       y="53.505009"
       x="-340.00003"
       id="image3190"
       height="832"
       width="1400"
       sodipodi:absref="/home/joe/Desktop/turtle.jpg"
       xlink:href="/home/joe/Desktop/turtle.jpg"
       style="stroke:#000000;stroke-width:8;stroke-miterlimit:4;stroke-dasharray:none;stroke-opacity:1"
       clip-path="url(#clipPath3196)"
       transform="matrix(0.9226409,0,0,0.9226409,219.59303,-78.164321)" />
  </g>
  <g
     inkscape:groupmode="layer"
     id="layer2"
     inkscape:label="paint">
    <path
       style="opacity:1;fill:#00700d;fill-opacity:1;stroke:none;stroke-width:20;stroke-linejoin:miter;stroke-miterlimit:4;stroke-dasharray:none;stroke-dashoffset:0;stroke-opacity:1"
       id="path3212"
       d="M 68.37929,335.72634 C 73.689521,336.1144 79.023631,336.03331 84.344852,336.02667 C 89.843615,336.01086 95.34237,335.99579 100.84115,335.9878 C 106.12693,335.98138 111.41272,335.98104 116.6985,335.98065 C 120.90542,335.23464 124.97075,334.33881 128.96863,332.87559 C 131.88654,332.70567 132.94432,330.43364 135.05867,328.97388 C 138.39603,326.66974 135.42517,329.25717 138.11576,326.75234 C 142.50397,323.40618 144.99278,320.20201 150.1031,317.71633 C 155.0573,315.66687 157.61615,310.90519 161.88941,307.88802 C 165.23462,304.81215 168.52439,301.99394 172.85234,300.46473 C 177.08893,299.07054 181.19393,297.66674 185.64725,297.02233 C 191.24017,296.36866 196.88191,296.47616 202.50126,296.55142 C 209.17646,296.41384 215.77276,297.59736 222.21278,299.23923 C 227.6113,300.62782 232.9665,302.28097 238.17974,304.26426 C 241.99701,305.8533 245.99474,306.88272 249.82921,308.44173 C 254.86995,311.35798 260.07304,313.98596 265.04973,317.00985 C 270.11334,319.73463 275.22257,322.25872 279.88473,325.65716 C 283.68119,328.45297 287.2709,331.55639 290.25343,335.21532 C 292.70877,338.9739 294.35809,343.13526 296.05933,347.26365 C 303.87314,368.07488 300.47654,354.07051 291.77973,396.20246 C 286.71058,398.42458 281.98215,397.34933 276.94594,395.75272 C 270.00845,393.35399 263.33577,390.436 257.19124,386.40745 C 251.47729,381.31215 246.58506,376.96025 239.69456,373.49068 C 233.26098,370.69078 226.72633,368.28334 219.82401,366.98139 C 214.52948,366.1413 209.15712,366.1167 203.81058,366.08782 C 200.04413,366.75981 196.2284,368.23676 193.09175,370.45673 C 190.65969,373.13651 188.54354,376.14372 185.82763,378.55871 C 183.51483,381.90806 179.42596,383.29983 175.8632,384.96662 C 171.35961,386.71459 166.80632,388.30246 162.23585,389.87817 C 157.67724,391.23978 152.81364,392.19942 148.60133,394.47929 C 147.44948,395.72317 147.5047,395.05805 148.05686,396.40606 C 150.13218,383.72085 151.94096,370.98915 154.2828,358.35043 C 154.33499,358.06876 154.75293,358.70092 155.02934,358.77616 C 157.0917,359.33741 159.45109,359.45948 161.53732,359.66727 C 174.69373,360.70014 187.90773,360.6416 201.09518,360.55849 C 210.53153,360.41182 219.96258,360.0539 229.39745,359.84284 C 235.01855,359.24121 240.15533,361.20673 245.37359,362.91158 C 250.22151,364.52694 254.75013,366.32997 257.20598,371.04911 C 249.63968,412.28009 260.96431,409.18901 237.86547,413.66484 C 229.38129,415.26479 221.08543,417.60189 212.60991,419.35506 C 200.81594,421.75836 189.19261,424.83476 177.5545,427.87156 C 173.77432,429.39844 169.67731,430.22252 166.19013,432.427 C 165.52203,432.84935 164.85221,433.31326 164.35264,433.92577 C 164.06267,434.2813 163.81787,435.67788 163.90594,435.22763 C 166.33879,422.78989 168.8949,410.37659 171.38937,397.95107 C 171.13394,398.01204 170.39161,398.00987 170.62305,398.13396 C 174.21112,400.05758 185.0874,399.5542 189.28883,399.68335 C 199.36307,400.00678 209.36636,398.6586 219.11466,396.19995 C 226.12631,393.98713 234.14063,393.06437 240.34475,388.88695 C 240.14722,388.56725 239.8059,387.55592 239.75216,387.92786 C 233.43625,431.63924 245.7279,424.36393 219.90749,430.96312 C 209.08666,434.69185 199.11181,440.48338 188.7804,445.35904 C 180.05157,448.38294 172.9812,453.81299 166.25804,459.95654 C 160.92088,463.03209 156.1074,467.74637 150.18921,469.77583 C 148.69362,470.2887 147.12284,470.54825 145.58966,470.93446 C 136.33495,472.25787 127.23184,474.0838 118.17741,476.36057 C 111.25583,477.87707 104.29028,479.11066 97.333227,480.476 C 90.996132,481.59865 84.534463,481.82836 78.113031,482.02917 C 73.398945,483.10655 68.667412,483.94958 63.851134,484.38908 C 58.693212,484.76696 53.518018,484.77552 48.349172,484.79485 C 43.28164,484.89322 38.202835,484.61608 33.140895,484.90029 C 19.175664,486.74708 24.786493,510.73419 38.400852,446.31088 C 38.50321,445.82654 39.381905,446.44819 39.875306,446.48839 C 41.315585,446.60576 43.019306,446.63083 44.448191,446.67023 C 49.022386,445.91093 53.477874,445.2367 57.728582,443.35979 C 59.416156,442.208 61.537889,442.25352 63.344272,441.44949 C 64.321746,441.01442 65.122201,440.25212 66.065684,439.74757 C 70.271783,437.49831 74.794965,435.68704 79.178939,433.82865 C 89.822376,428.93819 100.77586,425.14893 112.26442,422.89344 C 121.49849,421.57054 130.89147,421.52209 139.87343,418.8206 C 144.73141,415.99129 150.48888,415.12467 155.17022,412.04904 C 160.07345,409.79738 164.80431,406.73965 168.56973,402.84873 C 175.15055,392.51254 178.30898,358.4504 163.50335,435.29084 C 163.44742,435.58109 163.75148,434.61335 163.54191,434.4049 C 162.51748,433.38595 159.26569,432.9404 158.32036,432.72904 C 146.43073,430.95836 134.3785,431.55489 122.41422,430.89657 C 112.14297,430.65648 101.70371,428.53574 91.497468,430.41512 C 90.269248,430.51385 88.75394,430.85286 87.572267,430.16475 C 73.381479,421.9011 84.657055,394.99836 95.916834,385.0821 C 100.3734,381.24426 105.40094,378.20206 110.03868,374.59235 C 114.0447,372.30981 115.49121,367.96127 118.54074,364.8135 C 119.75828,363.55675 122.15457,361.60292 123.49985,360.47375 C 128.59511,355.54521 134.59724,352.16224 140.98524,349.23329 C 146.64741,346.88558 152.11226,344.1111 157.58304,341.36491 C 161.08036,338.83963 164.60929,336.35716 168.21435,334.00105 C 172.06001,332.35489 174.92371,329.29849 178.67654,327.50918 C 180.10655,326.51572 179.81507,327.14719 180.03399,325.92462 C 177.87317,338.69085 175.81095,351.47416 173.55154,364.22331 C 173.53206,364.33317 173.3905,364.05022 173.28178,364.02512 C 172.67679,363.88543 172.05854,363.80628 171.4416,363.73613 C 170.50362,363.62945 169.5604,363.57532 168.6198,363.49492 C 157.13592,363.57487 146.10283,367.30363 135.23525,370.62905 C 124.00248,374.63653 112.47683,377.77317 101.38887,382.18184 C 95.989363,384.71179 90.586932,387.07116 85.052111,389.29984 C 79.993437,390.94107 75.01997,392.78042 69.813646,393.91676 C 65.709979,396.15408 60.922303,396.23279 56.635298,397.79069 C 52.850183,398.79687 50.301443,401.82398 46.865906,403.5222 C 45.175167,405.59302 42.227477,405.71773 40.359554,407.49713 C 39.963003,407.87489 39.695428,408.36819 39.363369,408.80371 C 38.889667,409.21701 38.415956,409.6303 37.942253,410.04359 C 35.013145,412.94263 33.564461,415.63342 32.888995,419.71843 C 31.573291,423.62689 29.556786,427.21704 28.335901,431.14982 C 27.62091,433.88159 23.019331,437.44047 22.746774,439.80348 C 20.714925,389.60757 23.939388,412.28541 30.803984,387.90748 C 33.689266,374.06911 32.700094,378.67776 25.290291,418.91151 C 25.088888,420.00511 25.641476,416.71486 25.775342,415.61094 C 26.253206,411.67038 26.37433,407.71229 26.509773,403.74948 C 26.097418,384.1098 31.226803,366.23914 34.925264,346.5462 C 37.624846,342.21915 41.011603,340.32394 45.893425,339.26101 C 50.973153,338.471 56.134129,338.53856 61.260303,338.5363 C 67.23372,338.8478 73.303073,338.08192 79.171161,339.3236 C 87.893374,343.81199 90.31789,353.03464 92.16068,361.94305 C 95.477666,380.62355 90.416289,394.96161 86.436229,415.47902 C 85.935558,418.05997 84.155655,418.9881 82.33605,420.49374 C 76.886177,427.0425 68.903248,428.46699 61.10804,430.51167 C 53.948974,432.98331 46.24365,433.00122 38.974698,434.8191 C 38.422866,435.07174 37.808572,435.21803 37.319212,435.577 C 37.091929,435.74372 36.867174,436.60037 36.92303,436.32408 C 39.477112,423.69053 42.579271,411.16454 44.820652,398.47177 C 44.890274,398.07752 43.923697,398.11968 43.622815,398.38379 C 43.454008,398.53198 44.608463,398.65734 46.307478,398.88624 C 51.841044,399.8012 56.156992,395.88709 60.597201,393.13174 C 68.18882,389.01107 76.770542,387.47754 84.66772,384.22376 C 90.560996,381.35778 96.768967,379.56182 103.23704,378.66203 C 110.33543,378.13711 117.46321,378.29426 124.57497,378.35656 C 132.20394,378.3849 139.83538,378.23552 147.46283,378.39828 C 157.09914,378.55724 166.73752,378.66545 176.37495,378.57692 C 184.35894,378.58314 192.34099,378.38192 200.32366,378.26281 C 207.8521,378.25398 215.37898,378.40599 222.90663,378.49885 C 234.37864,378.80128 245.85246,378.89568 257.32642,378.69052 C 262.15795,378.57869 266.99025,378.5959 271.79493,378.03052 L 265.72325,416.36565 C 260.98968,415.78706 256.22536,415.82438 251.4638,415.70564 C 239.96962,415.49895 228.47557,415.59734 216.98329,415.89733 C 209.43073,415.99018 201.87893,416.142 194.32557,416.13375 C 186.37593,416.0149 178.42694,415.81377 170.47597,415.81959 C 160.81921,415.72897 151.16165,415.83788 141.50569,415.97405 C 133.88101,416.11304 126.25392,415.9165 118.62818,415.92084 C 111.66759,415.99204 104.67858,415.95162 97.756117,416.77871 C 91.621258,417.68991 85.767573,419.53568 80.072941,422.00143 C 72.167902,424.73104 63.875944,426.49694 56.768279,431.18579 C 51.554472,434.60214 46.382433,437.85658 39.872187,437.18857 C 39.234522,437.15026 33.05603,436.79305 33.145388,436.0794 C 37.664317,399.98789 28.560592,399.59755 44.267455,396.69136 C 51.545467,395.64544 58.938256,395.22972 66.025005,393.06977 C 73.513638,390.96804 80.300086,388.60113 85.144984,382.11811 C 90.927054,372.20997 94.033715,341.18806 81.504511,410.90198 C 81.261377,412.2548 81.813033,408.16521 81.822268,406.79073 C 81.836782,404.62833 81.335114,400.21044 81.121357,398.07915 C 80.001252,390.6131 78.942596,381.84881 72.247452,377.21535 C 66.77884,375.67045 60.863079,376.99437 55.241594,376.62272 C 50.440466,376.65421 45.565878,376.57736 40.862116,377.67069 C 37.224679,378.94247 34.843029,381.34784 33.806396,385.15304 C 35.834785,373.43329 37.856854,361.71243 39.891553,349.99378 C 40.055654,349.04867 39.579876,351.88681 39.41823,352.83234 C 39.18696,354.18511 38.457465,358.12844 38.367904,359.39778 C 38.173485,362.15323 38.531156,364.92943 38.315775,367.6845 C 38.126791,387.45517 35.842406,407.28403 29.588423,426.2412 C 28.44982,429.27979 27.214828,432.16348 25.634418,435.00372 C 23.74783,438.39419 23.041151,439.1046 23.042406,439.02944 C 23.255536,426.21693 24.227031,413.42826 24.819339,400.62767 C 27.31034,398.65503 28.47594,395.21111 29.719899,392.40123 C 31.340878,388.67689 32.798715,384.88854 33.959886,380.99195 C 35.512331,377.11431 38.088916,374.09333 41.209491,371.33933 C 44.113687,368.68692 47.713029,367.13256 50.9417,364.91815 C 54.297428,362.67309 57.535704,360.2379 61.59036,359.37835 C 66.096768,358.29136 70.589753,357.25543 74.974326,355.71717 C 79.977116,354.48203 84.80954,352.67398 89.67074,350.9815 C 95.153589,348.91587 100.44447,346.4097 106.00907,344.56651 C 117.23484,340.85642 128.78879,338.20868 139.88574,334.08827 C 151.26674,330.40814 162.78165,326.56156 174.77064,325.54983 C 174.97809,325.54788 182.49523,325.40353 182.45065,325.933 C 178.43698,373.59314 188.5523,359.15026 174.54512,366.09083 C 171.19386,368.26055 167.97815,370.64065 164.45242,372.54229 C 160.8428,375.10744 157.14824,377.60171 153.28819,379.76993 C 147.84915,382.38905 142.21577,384.58863 136.73471,387.12004 C 130.70567,390.24138 125.14197,393.92842 120.25233,398.68817 C 115.42102,403.17995 112.05549,408.97066 106.53761,412.74728 C 101.95711,416.23186 96.941778,419.27877 93.171498,423.69499 C 86.513482,434.85792 90.017035,460.98813 97.693257,391.18967 C 98.216547,386.43154 94.938798,392.07169 95.428997,392.24383 C 95.978679,392.43684 96.589689,392.34596 97.170027,392.39701 C 107.61114,392.37887 117.96787,393.8257 128.38912,394.33791 C 140.56725,394.86588 152.76275,394.45798 164.9335,395.16551 C 165.78638,395.27766 175.3201,396.13409 175.13459,398.10746 C 172.90091,421.86852 176.75118,429.86298 165.35542,441.25436 C 160.92551,444.80662 156.18994,447.92686 151.06966,450.40481 C 145.81404,452.88408 140.22118,454.62911 134.8292,456.78387 C 125.6996,458.73978 116.31262,458.21186 107.14288,459.96571 C 95.942834,462.26261 85.195397,466.09666 74.898633,471.08195 C 67.653429,474.60488 60.745876,478.79757 53.208739,481.66565 C 48.501758,483.54427 43.429272,484.24754 38.408934,484.8046 C 36.947877,484.84502 35.249877,484.87021 33.780017,484.98854 C 33.270369,485.02957 32.202689,485.67642 32.256654,485.16798 C 39.507606,416.85287 25.235976,444.59358 39.214363,446.58986 C 44.25427,446.89297 49.314457,446.62955 54.360758,446.70569 C 59.413435,446.66979 64.474941,446.63901 69.510383,446.17326 C 74.378568,445.63196 79.145106,444.50386 84.022795,444.07072 C 90.247132,443.93861 96.483382,443.68963 102.6165,442.52286 C 109.49214,441.26219 116.38114,440.07479 123.22663,438.66715 C 132.21626,436.54341 141.38693,435.49394 150.37087,433.38956 C 157.29978,430.72309 163.61487,426.62516 169.48322,422.09967 C 176.56605,416.11192 184.17018,411.17718 192.98585,408.07456 C 203.39818,402.98955 213.80665,397.77029 224.71804,393.83974 C 228.51981,392.60728 230.83963,391.91452 234.48087,390.52958 C 235.65806,390.08184 236.79846,389.54055 237.97819,389.09951 C 238.8796,388.76253 240.73372,387.23469 240.7205,388.19694 C 240.18455,427.22371 250.27041,425.41344 236.1073,427.32803 C 228.96365,430.03151 221.45688,431.73641 214.06226,433.59065 C 203.97418,435.7307 193.67582,437.1592 183.34127,436.9405 C 175.36254,436.98871 167.04071,437.5172 159.32227,435.27798 C 166.97312,395.33021 156.79914,397.7961 182.50068,390.71318 C 194.21204,387.85247 205.97147,385.19185 217.64906,382.19752 C 226.17504,380.09744 234.54235,377.47871 243.11175,375.58266 C 245.31404,375.10971 248.09212,374.88119 250.08596,373.69977 C 251.92883,372.60781 251.58639,371.31076 251.54764,371.55335 C 249.59605,383.77203 247.53692,395.9733 245.53156,408.18328 C 247.54919,403.46513 241.56731,402.23526 238.23936,400.7869 C 233.32725,399.43661 228.66874,397.20615 223.41162,397.66157 C 214.04776,397.47039 204.68719,397.1436 195.32221,397.00409 C 182.00201,396.91611 168.68314,396.99679 155.36444,397.22717 C 154.69182,397.21418 145.20153,397.14645 145.23745,396.50634 C 147.38327,358.27108 138.57699,362.36315 153.05449,355.98736 C 157.62058,354.29909 162.28785,352.97102 166.9603,351.62329 C 171.40174,349.99063 175.88106,348.45336 180.15281,346.39964 C 183.49034,344.61713 186.57408,342.99756 188.84883,339.83377 C 191.33154,336.91502 193.89437,333.92465 197.15048,331.85231 C 201.20667,329.90625 205.25514,327.99358 209.87087,328.0162 C 215.45624,328.07262 221.07007,328.16429 226.58096,329.1799 C 233.77344,330.70343 240.53905,333.3892 247.30177,336.2379 C 254.59945,339.5139 259.88142,343.39742 265.47249,349.11347 C 271.02049,353.34713 277.44422,355.76325 284.01915,357.97507 C 286.913,358.72053 292.20833,360.80989 294.06356,357.22113 C 291.85961,369.51487 289.65565,381.80861 287.4517,394.10236 C 288.28885,392.70055 288.57497,392.797 288.10206,391.00242 C 287.49803,388.71036 285.66836,386.88498 285.49806,384.43952 C 284.01174,380.43642 282.23987,376.5874 280.52683,372.7045 C 278.3681,368.80374 274.75732,365.99512 271.26869,363.31184 C 267.04569,359.49769 261.94408,357.18164 256.97697,354.5062 C 252.21182,351.55958 247.07046,349.30299 242.3332,346.33162 C 238.43325,344.7829 234.27669,344.03892 230.49751,342.20766 C 225.78099,339.64121 220.31961,338.62103 215.23178,337.015 C 209.13839,335.36942 202.8862,334.10853 196.53692,334.36124 C 191.09576,334.50224 185.62638,334.53969 180.23012,335.32673 C 176.12773,336.11711 172.2589,337.57608 168.32552,338.95992 C 164.63823,340.8608 161.7057,343.86176 158.40502,346.34169 C 154.44625,349.86554 151.10352,354.02011 146.01219,356.05683 C 141.87066,358.72518 138.56894,362.46035 134.64616,365.43562 C 131.31894,367.77119 128.33436,370.51525 124.19667,371.34691 C 119.8328,372.80836 115.24674,373.65522 110.66736,374.05977 C 105.38234,374.05939 100.0973,374.05905 94.812267,374.05262 C 89.317599,374.04465 83.822941,374.02957 78.328283,374.01376 C 72.975268,374.00708 67.609871,373.92861 62.267596,374.31409 L 68.37929,335.72634 z" />
    <path
       style="opacity:1;fill:#00700d;fill-opacity:1;stroke:none;stroke-width:20;stroke-linejoin:miter;stroke-miterlimit:4;stroke-dasharray:none;stroke-dashoffset:0;stroke-opacity:1"
       id="path3214"
       d="M 397.89388,464.89606 C 403.20411,465.28412 408.53822,465.20303 413.85944,465.19639 C 419.3582,465.18058 424.85695,465.16551 430.35574,465.15752 C 435.48442,464.91819 440.15762,465.87028 443.8429,469.54891 C 454.46757,485.71601 447.69842,508.3348 431.57521,516.15613 C 426.77914,518.80444 421.46169,520.12915 416.36128,522.03431 C 412.50641,523.24057 407.9431,523.62354 405.49388,527.17033 C 404.1347,540.8448 404.74632,534.26853 412.40806,491.62556 C 412.45367,491.3717 411.90835,491.94236 411.88917,492.19957 C 411.87142,492.43744 412.12024,492.64281 412.32276,492.76885 C 413.12733,493.26956 414.54967,493.45467 415.39538,493.62693 C 420.41603,494.28748 425.49538,494.15911 430.54714,494.26532 C 436.4398,494.29836 442.29029,493.95792 448.12075,494.9281 C 468.30672,498.36061 453.93668,511.75084 449.11515,537.54126 C 445.47134,540.0198 441.87364,542.41611 438.03957,544.62164 C 432.06427,547.17339 425.75556,548.61712 419.63212,550.739 C 411.71263,553.26393 403.64633,555.33458 395.65605,557.64359 C 388.71178,560.3517 381.43395,561.98086 374.48858,564.68052 C 369.33806,567.20627 365.40016,571.25319 360.32946,573.84497 C 356.29466,577.25984 351.2311,578.07123 346.36473,579.55295 C 341.23558,581.16894 335.89555,581.74837 330.55549,582.09625 C 326.54787,582.13512 322.43754,583.12755 319.36398,585.80334 C 322.52558,599.12956 319.77896,588.03523 326.29614,548.57667 C 326.32278,548.41541 325.68874,548.60594 325.82178,548.70089 C 326.86832,549.44777 329.45227,549.26296 330.60711,549.34765 C 338.09409,549.7037 345.58672,549.86995 353.07968,550.03393 C 367.33468,550.43291 381.59192,550.49594 395.8509,550.36791 C 407.07474,550.24859 418.3135,550.66219 429.43013,548.94227 C 434.68132,548.61995 439.43783,546.45132 444.50599,545.31233 C 447.65292,543.53876 450.41782,541.10377 453.50307,539.14427 C 455.48013,538.5378 456.65658,537.502 457.8353,535.8947 L 454.70579,574.61334 C 453.10093,575.78201 451.4366,576.78416 449.72995,577.79658 C 446.52607,580.14254 443.24152,582.65308 439.35159,583.67192 C 434.24776,584.9765 429.23143,586.55416 423.8987,586.6474 C 412.64487,587.50195 401.36584,586.52752 390.09281,586.72967 C 375.79647,586.60898 361.50199,586.68546 347.21042,587.11333 C 339.59199,587.29292 331.97203,587.60235 324.35172,587.57126 C 323.62032,587.54844 315.83652,587.27594 315.91215,586.51314 C 319.72943,548.01107 309.93167,552.19419 323.32791,547.01106 C 327.49065,545.18449 331.68959,543.83081 336.31858,543.97448 C 341.39943,543.58758 346.45129,542.90725 351.3028,541.27026 C 355.96009,539.92626 360.41033,538.44098 364.4018,535.56104 C 369.27762,532.542 373.59321,528.58613 379.14372,526.71767 C 386.21651,524.28288 393.46904,522.41731 400.55163,520.00677 C 408.50939,517.77636 416.49687,515.59987 424.31182,512.90568 C 430.24161,510.76577 436.45248,509.30112 441.98991,506.18924 C 445.20137,504.11877 449.34482,502.091 450.919,498.441 C 448.79399,510.86273 446.3852,523.23922 444.54394,535.70616 C 444.52444,535.83825 446.01872,534.8156 445.96929,534.51975 C 445.7465,533.18623 442.0186,533.34674 441.40046,532.96911 C 435.8198,531.88493 430.20191,532.14019 424.53286,532.21729 C 419.24641,532.31806 413.94052,532.31992 408.6733,531.80442 C 389.75599,528.96339 386.98955,508.75748 408.68831,488.46391 C 412.46215,485.9575 416.77082,484.95702 421.06998,483.68127 C 426.00785,481.93014 431.19185,480.75838 435.5892,477.75818 C 436.90619,476.81157 437.93652,476.27703 438.81653,474.86503 C 439.14028,474.34555 439.57587,472.54707 439.47481,473.15078 C 437.4326,485.35054 434.85432,497.46003 432.98726,509.68782 C 432.9093,510.19833 433.83979,509.03991 434.06578,508.57555 C 434.27176,508.15229 434.16333,507.63918 434.21211,507.17101 C 432.52711,503.2019 428.17671,503.17979 424.32686,503.22234 C 418.83218,503.21437 413.33753,503.19929 407.84288,503.18348 C 402.48985,503.1768 397.12446,503.09833 391.78218,503.48381 L 397.89388,464.89606 z" />
    <path
       style="opacity:1;fill:#00700d;fill-opacity:1;stroke:none;stroke-width:20;stroke-linejoin:miter;stroke-miterlimit:4;stroke-dasharray:none;stroke-dashoffset:0;stroke-opacity:1"
       id="path3216"
       d="M 529.22523,456.61053 C 534.63951,455.79576 540.08268,455.26563 545.54586,454.93105 C 551.04467,454.58316 556.36378,453.97979 561.21352,456.96055 C 563.79057,459.48807 565.81386,463.50084 565.12615,467.24981 C 562.70392,480.45413 560.06005,493.61684 557.52701,506.80036 C 554.42176,510.9987 549.44459,512.63897 545.16523,515.21947 C 540.9898,517.45308 536.31609,518.21879 531.86699,519.7176 C 529.55793,520.205 526.85548,521.17182 526.3378,523.84505 C 526.23945,524.35291 526.31721,525.90318 526.41424,525.39507 C 528.75409,513.14133 530.85419,500.84301 533.07416,488.56698 C 533.04073,491.69659 535.51843,493.85812 538.10067,495.18005 C 542.53952,496.41049 546.85068,496.50015 550.74115,499.19759 C 553.41001,502.07304 555.0429,505.9405 555.50546,509.8225 C 552.95708,518.88684 555.47325,542.54522 545.93282,553.9014 C 540.95398,559.82783 547.65826,550.93772 543.42143,556.67506 C 540.32327,560.39537 537.47621,561.4411 533.18124,563.31442 C 526.31754,565.73204 519.20233,567.19448 512.07258,568.61611 C 503.75125,569.92198 495.62977,572.16027 487.30077,573.44237 C 472.16937,577.27424 480.90881,589.10145 489.95243,535.44835 C 490.00312,535.14762 490.57303,535.36074 490.8337,535.20243 C 491.50853,534.79262 491.76943,534.01331 492.10281,533.36441 C 494.00389,520.08239 496.52831,507.59796 485.98323,567.03758 C 485.93349,567.31795 486.16406,566.45808 486.07356,566.1881 C 485.81115,565.40529 484.75082,565.15567 484.15905,564.89228 C 464.03846,560.27584 478.28865,549.4412 484.13522,522.21401 C 488.97043,520.94554 493.65163,519.3759 498.63802,518.61198 C 504.06337,517.94196 509.5402,517.83891 514.99993,517.90691 C 521.10849,517.82305 527.13964,517.77213 533.18436,518.6988 C 538.64243,519.61821 543.88088,521.39558 549.34908,522.31009 C 554.58484,523.07412 559.88486,523.06461 565.16137,523.22056 L 559.10829,561.17674 C 553.62178,561.21993 548.1173,561.0663 542.68065,560.26528 C 537.23249,559.32515 532.00491,557.59025 526.57802,556.599 C 520.75337,555.67119 514.90941,555.73217 509.01946,555.87036 C 503.75372,556.02429 498.46013,556.00075 493.24027,556.80874 C 488.8632,557.61931 484.34217,558.75468 480.5218,561.09674 C 482.61693,548.61086 484.9281,536.15931 486.8072,523.6391 C 486.8577,523.30262 486.15515,523.99395 486.04222,524.31491 C 485.95291,524.56874 486.11391,524.88572 486.30031,525.07979 C 487.55709,526.3883 489.96634,526.32152 491.53749,526.75092 C 510.13711,532.32426 500.17794,559.15389 489.12286,572.20676 C 470.77414,585.1875 476.42364,533.11677 492.75239,535.56 C 500.97244,534.4869 509.05436,532.68642 517.19155,531.12895 C 524.12638,529.49973 531.07953,527.82099 537.59318,524.86327 C 541.03286,523.2224 543.76047,521.04426 545.99738,517.90354 C 554.63042,507.43206 554.62557,473.14925 543.58872,546.85532 C 543.84077,543.29131 543.24429,540.33351 541.88863,537.01207 C 539.2304,533.4378 534.26354,534.67398 530.43925,533.21233 C 526.66821,531.72155 523.55374,529.3662 521.44728,525.85379 C 524.83128,504.87279 517.91737,486.63466 536.70734,481.28403 C 540.94639,479.92101 545.423,479.22542 549.25653,476.80804 C 553.23664,474.74374 557.46052,472.56903 558.92066,468.00178 C 556.83623,479.99 554.75179,491.97822 552.66736,503.96645 C 552.71391,503.77956 553.59166,500.29805 553.60427,500.08301 C 553.70721,498.32909 553.11186,496.44851 552.56137,494.81475 C 549.61343,491.13043 543.86164,493.11461 539.76813,492.95305 C 534.48463,493.29373 529.13529,493.70081 524.06251,495.32199 L 529.22523,456.61053 z" />
    <path
       style="opacity:1;fill:#00700d;fill-opacity:1;stroke:none;stroke-width:20;stroke-linejoin:miter;stroke-miterlimit:4;stroke-dasharray:none;stroke-dashoffset:0;stroke-opacity:1"
       id="path3218"
       d="M 777.49469,454.35159 C 782.80492,454.73965 788.13903,454.65856 793.46025,454.65192 C 798.47124,454.45158 803.38153,455.50048 808.03248,457.28819 C 813.31119,458.78699 817.41919,462.19049 821.38843,465.8108 C 825.26979,470.05501 828.87303,474.54009 832.61576,478.90439 C 843.05959,491.95459 832.14284,507.955 827.7789,524.26713 C 827.66681,524.68613 822.67698,525.8106 822.44974,525.86625 C 816.15863,526.91043 809.73034,526.87632 803.3668,526.95446 C 802.56595,526.99976 801.75115,526.93479 800.96426,527.09035 C 800.58846,527.16465 800.0637,527.2643 799.94963,527.63 C 799.85666,527.92799 800.52081,528.62925 800.57983,528.32272 C 811.38211,472.21527 795.81906,484.85772 808.89586,491.06242 C 823.34427,497.87669 814.77337,491.40732 805.80164,531.60456 C 805.76094,531.78696 798.74302,531.96263 798.20994,531.98781 C 792.62937,532.20061 787.04384,532.21633 781.45999,532.23215 C 776.0944,532.23987 770.72881,532.23352 765.36322,532.23058 C 760.08986,532.22776 754.81651,532.22709 749.54316,532.22667 C 744.78072,531.72948 740.28003,533.16055 735.64091,533.93071 C 731.60163,535.2282 726.57281,533.48741 722.79293,535.43547 C 722.80494,535.65725 722.69187,535.92606 722.82896,536.1008 C 723.12539,536.47866 723.88762,537.42757 723.98718,536.95774 C 726.58873,524.67918 728.23523,512.21693 730.5049,499.87272 C 730.74691,498.55643 730.40509,502.18186 731.03422,504.02243 C 733.26902,507.70351 736.998,509.84672 740.418,512.27026 C 745.73452,516.1831 752.16825,517.07248 758.55903,517.68482 C 766.15838,518.23234 773.79006,518.18918 781.40482,518.10964 C 785.63124,518.05064 783.65312,518.13393 787.34069,517.89931 L 781.32037,556.01379 C 777.6752,555.80895 779.63816,555.87954 775.43018,555.84134 C 767.69823,555.76651 759.96282,555.76894 752.24319,555.25324 C 745.25265,554.59364 738.0913,553.89859 732.09657,549.87405 C 728.38268,547.3491 724.10685,545.33379 721.31498,541.71563 C 720.21534,540.62652 718.29422,538.95565 718.56913,537.11657 C 720.43383,524.64284 712.88483,499.63449 727.90191,496.77191 C 732.24965,496.23994 736.71185,496.60471 741.02714,495.61929 C 745.85047,494.72189 750.62585,493.72378 755.57464,494.14771 C 760.8491,494.14828 766.12357,494.14889 771.39803,494.15683 C 776.75835,494.1663 782.11863,494.18443 787.47895,494.19865 C 792.96108,494.20029 798.45528,494.24532 803.92265,493.78449 C 804.35485,493.72845 807.41537,493.4294 807.99913,493.02888 C 808.1891,492.89854 807.93887,492.11612 807.90555,492.34409 C 806.04756,505.05826 804.26308,517.78324 802.52125,530.51385 C 802.49185,530.72881 802.92907,530.05332 802.76566,529.9106 C 802.31612,529.51799 801.65155,529.48204 801.0945,529.26776 C 800.7224,529.09072 800.3708,528.86179 799.97818,528.73666 C 799.31716,528.52598 797.88545,528.95653 797.95077,528.26583 C 800.95151,496.53627 791.60107,487.9794 809.34219,489.04529 C 815.31923,489.03045 821.43258,489.1758 827.23137,487.52185 C 827.84531,487.22339 828.5378,487.04997 829.07319,486.62647 C 829.45905,486.32124 829.98166,484.92114 829.90481,485.40709 C 827.97877,497.58553 825.4218,509.65874 823.50435,521.83854 C 823.20481,523.74131 826.61972,513.25052 823.31468,516.17576 C 819.75924,511.80284 815.77187,507.79814 812.49724,503.18995 C 809.07102,499.71665 805.33087,496.6245 800.52989,495.3246 C 796.36009,493.62518 792.00549,492.42402 787.44368,492.63902 C 782.09066,492.63233 776.72527,492.55387 771.38299,492.93935 L 777.49469,454.35159 z" />
    <path
       style="opacity:1;fill:#00700d;fill-opacity:1;stroke:none;stroke-width:20;stroke-linejoin:miter;stroke-miterlimit:4;stroke-dasharray:none;stroke-dashoffset:0;stroke-opacity:1"
       id="path3220"
       d="M 922.48111,446.44324 C 927.96058,446.46526 933.32797,447.16667 938.73492,447.99168 C 943.77546,449.18397 948.7013,450.81906 953.38443,453.03174 C 968.44227,463.17429 960.6419,487.59524 952.22362,501.34253 C 947.46454,504.74639 941.66597,505.0799 936.0323,505.52813 C 929.64068,505.92753 923.23159,505.80701 916.83071,505.8297 C 911.16085,505.85096 905.49097,505.85886 899.82107,505.86318 C 898.35049,506.14979 897.40044,506.08413 896.27918,507.14443 C 895.90668,507.49668 895.46765,507.91924 895.4363,508.43097 C 895.40393,508.95958 896.00929,510.38827 896.11232,509.86878 C 903.27395,473.76025 897.19659,461.27702 903.06602,473.89735 C 907.97363,477.06284 913.78839,478.73477 919.29735,480.60324 C 924.68728,481.86602 929.89923,483.78053 935.27858,485.07448 C 939.91097,485.66511 944.45614,486.38077 949.00973,487.43048 C 966.81391,487.9954 957.45477,524.81079 942.08616,527.88957 C 937.00099,528.73439 931.91493,529.16476 926.86666,530.22153 C 919.69342,531.44011 912.39454,531.5871 905.13841,531.89086 C 898.99011,532.13672 892.8369,532.19723 886.68447,532.22656 C 881.3797,532.24201 876.0749,532.23481 870.77013,532.23167 C 865.88471,531.75429 861.29293,532.58453 856.55306,533.55106 C 851.69719,534.36841 846.74737,534.94537 841.83174,534.49948 C 824.66079,529.43399 831.89842,500.18075 843.78561,489.54135 C 847.2363,486.82134 850.76263,485.23381 855.09513,484.36275 C 860.20398,483.58101 865.3883,483.58752 870.54375,483.55649 C 875.83747,483.55031 881.13116,483.57609 886.42485,483.58871 C 889.945,483.59527 888.18517,483.59241 891.70437,483.59726 L 885.6677,521.67347 C 882.14608,521.66751 883.90713,521.67094 880.38454,521.66318 C 875.105,521.64892 869.82538,521.61839 864.54586,521.64473 C 859.67187,521.70223 854.74315,521.69831 849.95654,522.73322 C 846.66959,523.70749 843.35429,525.35466 841.62007,528.46659 C 839.74477,540.30764 845.94006,504.87647 847.67411,493.01392 C 847.87585,491.63389 845.62652,494.60348 846.95304,495.68143 C 847.33648,495.99303 847.83759,496.12196 848.27986,496.34222 C 852.80267,496.8876 857.38826,495.97343 861.8436,495.21069 C 866.80324,494.21566 871.74185,493.8959 876.80462,494.15028 C 882.10628,494.15527 887.40795,494.16363 892.70953,494.19264 C 898.79918,494.22519 904.88961,494.28525 910.97894,494.1843 C 918.06666,493.99884 925.17579,493.65285 932.11593,492.07711 C 937.07368,491.07113 942.156,490.77874 947.00637,489.30577 C 961.7704,482.59904 946.02959,497.41448 941.7397,526.207 C 941.66082,526.73642 945.43014,526.89358 943.58865,526.0356 C 943.1117,525.81338 942.59241,525.69664 942.09428,525.52716 C 937.51946,524.48851 932.99948,523.60568 928.33092,523.07757 C 922.81865,521.73647 917.60813,519.47224 912.08231,518.16389 C 906.10371,516.1362 900.00607,514.3742 894.27894,511.69775 C 878.10313,502.41937 888.22245,468.0365 905.85583,467.80517 C 911.51735,467.82969 917.1787,467.87605 922.83991,467.94097 C 929.12581,467.99004 935.4179,467.99944 941.69254,467.56366 C 945.80423,467.13932 952.00647,467.03848 953.65134,462.45313 C 955.64433,450.241 959.70415,425.34265 948.19787,497.35659 C 948.10587,497.93243 948.42718,496.19359 948.35827,495.61454 C 948.13096,493.70426 946.91305,492.09232 945.52523,490.87548 C 941.36889,488.49926 936.65037,487.4038 932.14186,485.87009 C 926.89907,485.0582 921.68318,484.31789 916.36941,485.031 L 922.48111,446.44324 z" />
  </g>
  <g
     inkscape:label="lines"
     inkscape:groupmode="layer"
     id="layer1"
     style="display:inline">
    <path
       style="fill:none;fill-rule:evenodd;stroke:#000000;stroke-width:7.38112688;stroke-linecap:butt;stroke-linejoin:miter;stroke-miterlimit:4;stroke-dasharray:none;stroke-opacity:1"
       d="M 87.787187,405.10644 C 62.47043,401.91098 40.608944,425.82395 13.975928,434.10372 C 13.704081,397.56951 26.567522,362.32197 71.970494,336.5674 C 87.058126,345.08235 103.60472,352.19091 118.10254,348.42992 C 132.60036,344.66894 150.13034,328.87403 158.96235,310.20623 C 177.02077,304.71902 207.84396,306.67843 230.1375,316.79651 C 252.43104,326.91461 284.50974,356.60558 294.72236,376.10916 C 290.43635,395.61272 284.74093,396.67617 277.5876,418.28702 C 246.70922,422.76311 213.3962,435.84324 194.54993,444.64818 C 175.70365,453.45312 171.56279,465.49114 151.054,472.32741 C 130.54521,479.16367 66.999563,490.83007 40.337097,471.00936 C 58.488616,449.87057 102.55949,447.84364 87.787187,405.10644 z"
       id="path2396"
       sodipodi:nodetypes="ccczczcczzcc" />
    <path
       style="fill:none;fill-opacity:1;fill-rule:evenodd;stroke:#000000;stroke-width:3.69056344;stroke-linecap:butt;stroke-linejoin:miter;stroke-miterlimit:4;stroke-dasharray:none;stroke-opacity:1"
       d="M 136.55536,273.3006 C 124.77476,267.45032 101.47975,266.64089 89.105254,274.61865 C 76.730758,282.59642 63.234653,313.77965 69.33438,328.65905 C 75.434106,343.53845 97.753697,350.30933 114.14837,348.42992 C 130.54304,346.55051 157.89669,319.56253 158.96235,303.61594 C 160.02801,287.66934 148.33595,279.15086 136.55536,273.3006 z"
       id="path3168"
       sodipodi:nodetypes="czzzzz" />
    <path
       style="fill:#000000;fill-opacity:1;fill-rule:evenodd;stroke:#000000;stroke-width:0.92264086px;stroke-linecap:butt;stroke-linejoin:miter;stroke-opacity:1"
       d="M 108.87613,299.66176 C 113.5081,298.99664 122.7884,303.54643 123.37478,308.88817 C 123.96115,314.22991 115.36871,322.22081 110.19419,322.06875 C 105.01967,321.91669 99.667227,314.68859 99.649717,310.20623 C 99.632207,305.72386 104.24416,300.32689 108.87613,299.66176 z"
       id="path3170"
       sodipodi:nodetypes="czzzz" />
    <path
       style="fill:none;fill-rule:evenodd;stroke:#000000;stroke-width:7.38112688;stroke-linecap:butt;stroke-linejoin:miter;stroke-miterlimit:4;stroke-dasharray:none;stroke-opacity:1"
       d="M 255.18061,503.96081 C 252.44826,442.06188 287.4671,377.54336 323.71964,332.61323 C 359.97218,287.68309 429.71351,244.75619 489.79499,220.57826 C 549.87648,196.40033 656.63172,179.84721 717.81909,181.03651 C 779.00647,182.22581 847.65131,195.89137 890.48474,217.94214 C 933.31817,239.99292 975.89313,279.28491 997.24746,315.47847 C 1018.6018,351.67203 1015.103,389.50749 1028.8809,447.2843 C 966.21145,445.74848 882.46576,466.97634 841.71657,463.101 C 799.55406,459.09126 688.52703,452.97245 625.55501,453.8746 C 562.58299,454.77674 478.21602,460.50972 422.57402,468.37323 C 366.93202,476.23674 315.90752,477.54983 255.18061,503.96081 z"
       id="path3172"
       sodipodi:nodetypes="czzzzzczzzc" />
    <path
       style="fill:none;fill-rule:evenodd;stroke:#000000;stroke-width:3.69056344;stroke-linecap:butt;stroke-linejoin:miter;stroke-miterlimit:4;stroke-dasharray:none;stroke-opacity:1"
       d="M 383.03227,478.9177 C 390.90002,493.98817 398.17658,497.00819 397.53091,514.50527 C 379.17708,518.02223 335.12929,534.73919 326.35576,550.09285 C 317.58223,565.44652 315.83596,580.78826 332.71991,585.52052 C 349.82393,590.31446 387.05955,577.10682 406.18392,572.2737 C 425.30829,567.44059 432.96801,568.76498 455.20566,558.54717 C 452.2791,534.34922 443.39179,497.91632 438.39072,471.00936 C 413.81748,472.06263 401.26075,474.09932 383.03227,478.9177 z"
       id="path3174"
       sodipodi:nodetypes="cczzzccc" />
    <path
       style="fill:none;fill-rule:evenodd;stroke:#000000;stroke-width:3.69056344;stroke-linecap:butt;stroke-linejoin:miter;stroke-miterlimit:4;stroke-dasharray:none;stroke-opacity:1"
       d="M 521.4284,463.32714 C 524.95918,480.13837 533.29092,518.45946 533.29092,518.45946 C 533.29092,518.45946 504.82963,512.29563 493.74917,518.45946 C 482.66872,524.62328 467.33173,545.92616 470.02412,556.68315 C 472.7165,567.44013 489.795,571.18178 495.06723,571.18178 C 500.33946,571.18178 529.47279,557.32628 541.65156,556.68315 C 553.83033,556.04001 551.98462,561.11143 569.49069,555.04527 C 567.42458,526.61092 565.68071,486.9477 567.56044,461.78295 C 545.20796,458.05438 539.3338,460.49604 521.4284,463.32714 z"
       id="path3176"
       sodipodi:nodetypes="cczzzzccc" />
    <path
       style="fill:none;fill-rule:evenodd;stroke:#000000;stroke-width:3.69056344;stroke-linecap:butt;stroke-linejoin:miter;stroke-miterlimit:4;stroke-dasharray:none;stroke-opacity:1"
       d="M 775.26769,465.03125 C 770.06545,477.87827 777.43652,484.67156 773.17754,497.37051 C 764.25852,497.02136 748.3821,488.50662 738.90802,490.78023 C 729.43395,493.05384 717.66223,498.64426 715.18298,509.23305 C 712.70372,519.82184 723.1084,537.92509 735.49982,543.72871 C 747.89122,549.53232 770.61625,542.76259 783.72201,539.54839 C 796.82777,536.33418 804.62236,531.74181 815.26174,524.50379 C 815.437,504.75662 812.03685,480.43295 807.44706,464.41906 C 795.40121,464.24931 787.92601,464.30034 775.26769,465.03125 z"
       id="path3178"
       sodipodi:nodetypes="cczzzzccc" />
    <path
       style="fill:none;fill-rule:evenodd;stroke:#000000;stroke-width:3.69056344;stroke-linecap:butt;stroke-linejoin:miter;stroke-miterlimit:4;stroke-dasharray:none;stroke-opacity:1"
       d="M 913.11788,461.23698 C 911.001,471.85843 912.28642,467.96075 908.93756,481.55382 C 896.58842,485.37452 871.62539,473.70404 860.16939,481.55382 C 848.71339,489.4036 839.03812,510.11154 844.3527,522.41363 C 849.66728,534.71571 876.05461,537.06862 891.1906,534.88835 C 905.41296,532.83968 930.88064,540.92088 941.88901,530.32198 C 952.89738,519.72308 950.69566,496.9492 951.11542,485.50799 C 951.53518,474.06678 953.92947,471.56551 947.16125,455.19265 C 935.73299,458.39196 922.69082,459.93563 913.11788,461.23698 z"
       id="path3180"
       sodipodi:nodetypes="cczzzzzcc" />
  </g>
</svg>
